<svg width="209" height="144" viewBox="0 0 209 144" fill="none" xmlns="http://www.w3.org/2000/svg">
<path d="M91.1405 92.7593C92.0499 92.8265 92.7916 92.8601 93.5292 92.94C97.2882 93.3349 101.047 93.6836 104.798 94.1542C108.942 94.671 113.083 95.2424 117.206 95.8936C120.764 96.4566 124.297 97.1708 127.842 97.8094C128.458 97.9229 129.083 97.9943 129.699 98.1077C130.084 98.1792 130.352 98.0447 130.621 97.7716C133.893 94.4105 137.116 90.9989 140.469 87.7176C145.56 82.7389 150.882 78.0249 156.732 73.9369C157.675 73.2772 158.652 72.6722 159.628 72.0588C160.42 71.5631 161.275 71.353 162.222 71.4496C164.079 71.6429 165.927 71.8698 167.653 72.6428C167.796 72.7058 167.938 72.7773 168.072 72.8571C168.441 73.0756 168.558 73.3235 168.294 73.7436C167.226 75.4578 166.145 77.1678 165.151 78.9282C163.572 81.7347 162.532 84.7766 161.48 87.8058C159.754 92.7971 158.203 97.843 156.867 102.956C156.745 103.418 156.682 103.897 156.59 104.376C159.607 105.183 162.557 105.927 165.478 106.767C170.277 108.145 175.067 109.548 179.84 111.015C183.046 112.002 186.264 112.989 189.39 114.199C193.166 115.661 196.866 117.334 200.575 118.968C202.406 119.775 204.183 120.699 205.985 121.573C207.272 122.199 208.173 123.216 208.872 124.434C208.927 124.531 208.94 124.652 208.998 124.841C207.992 124.568 207.054 124.337 206.128 124.06C203.429 123.245 200.73 122.438 198.044 121.581C194.1 120.325 190.182 118.98 186.23 117.762C181.579 116.325 176.906 114.939 172.225 113.598C168.098 112.414 163.94 111.317 159.792 110.199C158.497 109.851 157.185 109.582 155.89 109.242C155.471 109.132 155.329 109.221 155.224 109.657C153.921 115.178 153.015 120.77 152.194 126.379C151.846 128.761 151.389 131.127 151.042 133.505C150.731 135.627 150.43 137.757 150.279 139.895C150.187 141.185 150.392 142.496 150.463 143.824C148.51 144.399 146.503 143.42 145.745 141.416C145.062 139.61 144.663 137.727 144.5 135.816C144.282 133.228 144.005 130.623 144.102 128.035C144.211 125.152 144.596 122.262 145.07 119.409C145.711 115.56 146.553 111.741 147.312 107.914C147.354 107.695 147.454 107.49 147.555 107.191C146.21 106.885 144.881 106.565 143.545 106.28C140.565 105.649 137.585 105.04 134.606 104.41C134.174 104.317 133.881 104.385 133.562 104.75C127.427 111.834 121.548 119.119 116.364 126.942C113.829 130.77 111.52 134.727 109.592 138.895C109.185 139.773 108.888 140.71 108.611 141.643C108.322 142.614 108.012 142.908 107.002 142.929C104.785 142.975 102.627 142.706 100.578 141.786C100.159 141.597 100.029 141.412 100.238 140.958C100.511 140.37 100.423 139.849 100.129 139.198C99.7062 138.252 99.5302 137.16 99.4296 136.114C99.0525 132.181 99.4254 128.274 99.966 124.379C100.062 123.673 100.213 122.972 100.322 122.27C100.352 122.09 100.326 121.905 100.326 121.77C99.5763 122.48 98.7759 123.144 98.0844 123.909C94.3045 128.085 90.5454 132.282 86.7864 136.479C86.3003 137.026 85.8435 137.601 85.4035 138.189C85.282 138.349 85.2443 138.601 85.2443 138.811C85.2443 139.063 85.3239 139.32 85.3658 139.58C84.5444 139.58 83.7482 139.601 82.952 139.572C82.5246 139.555 82.3737 139.689 82.3569 140.122C82.3276 141.013 82.3025 141.067 81.4057 141.004C80.5801 140.946 79.7629 140.757 78.9458 140.622C78.556 140.559 78.3339 140.315 78.2627 139.929C78.2543 139.895 78.2459 139.862 78.2375 139.828C78.0154 139.013 77.7388 138.475 77.1899 137.782C77.1354 137.715 77.0935 137.639 77.0306 137.542C77.6257 136.832 77.6592 136.042 77.5251 135.143C76.6996 129.492 76.7708 123.85 77.5838 118.191C78.3381 112.922 79.2642 107.687 80.3831 102.486C80.6388 101.292 80.9656 100.116 81.2548 98.9312C81.2841 98.8178 81.2799 98.6917 81.2967 98.5489C81.1752 98.5321 81.0788 98.5027 80.9782 98.5027C77.4245 98.5363 73.8667 98.5027 70.3172 98.6245C67.3251 98.7253 64.3414 99.0026 61.3534 99.2127C58.8684 99.385 56.3875 99.5572 53.9067 99.7673C52.4693 99.8891 51.0361 100.078 49.6071 100.28C49.2006 100.339 48.7061 100.406 48.727 101.07C48.5762 101.019 48.4504 101.011 48.3666 100.948C46.4515 99.4732 44.8591 97.7128 43.7192 95.5659C43.2415 94.6668 43.4049 94.2634 44.419 94.1248C46.7616 93.7971 49.1126 93.5072 51.4677 93.2929C54.5897 93.0072 57.7159 92.8013 60.8422 92.5702C62.1119 92.4778 63.3817 92.3728 64.6515 92.3518C68.884 92.2845 73.1166 92.2383 77.3491 92.2173C79.0715 92.2089 80.798 92.2887 82.5204 92.3224C82.7844 92.3266 83.0023 92.3097 83.1071 91.9568C84.2134 88.2512 85.2694 84.5287 86.4763 80.8524C87.9473 76.3653 89.5062 71.9076 91.0986 67.4667C93.7639 60.0343 96.8105 52.749 100.033 45.5436C103.578 37.6155 107.421 29.8344 111.725 22.2886C114.663 17.1377 117.613 11.9993 120.919 7.07523C121.083 6.83155 121.196 6.55425 121.384 6.19713C120.706 6.49963 120.11 6.74332 119.536 7.02481C115.027 9.21376 110.514 11.3985 106.017 13.6127C99.3584 16.894 92.8796 20.503 86.5811 24.4356C82.2228 27.1581 77.8897 29.9226 73.632 32.8006C68.5362 36.25 63.6206 39.9557 58.8181 43.8042C52.5112 48.8543 46.3719 54.0977 40.6349 59.7864C36.4484 63.9375 32.3374 68.1683 28.3563 72.5126C21.8231 79.6424 15.7508 87.1546 10.1396 95.0407C9.85461 95.4398 9.56126 95.8263 9.2763 96.2255C8.84885 96.8179 8.86143 96.8977 9.39783 97.3893C9.46069 97.4439 9.50678 97.5153 9.52774 97.5447C7.83891 98.6539 6.0076 98.5909 4.13857 98.2632C2.85204 98.0405 1.5739 97.7884 0.387944 97.2002C-0.0646454 96.9733 -0.16103 96.7465 0.149077 96.3305C1.12131 95.0323 2.10611 93.7424 3.04481 92.4232C6.632 87.3899 10.5167 82.596 14.4601 77.8442C21.0101 69.9497 28.1132 62.5846 35.5516 55.5388C42.4704 48.9845 49.8208 42.9345 57.4394 37.2163C63.5745 32.6116 69.9023 28.2841 76.423 24.2423C82.6587 20.377 88.9781 16.6587 95.5239 13.3438C101.303 10.4196 107.073 7.47437 113.07 5.02073C117.483 3.21411 121.967 1.58816 126.551 0.264704C127.888 -0.121828 129.238 -0.0462024 130.579 0.289912C130.901 0.36974 131.224 0.436963 131.543 0.529394C131.727 0.584013 131.895 0.684847 132.05 0.894919C131.807 0.928531 131.568 0.962142 131.325 0.995753C131.262 1.06718 131.203 1.1428 131.14 1.21423C131.287 1.26885 131.438 1.31506 131.58 1.38229C131.941 1.55034 132.284 1.75621 132.657 1.88646C133.11 2.04611 133.127 2.2898 132.888 2.63431C132.481 3.22251 132.075 3.81072 131.664 4.39471C128.215 9.24317 125.076 14.2933 122.126 19.4611C120.157 22.9104 118.179 26.364 116.297 29.8596C113.196 35.6156 110.376 41.5144 107.744 47.5014C106.29 50.8038 104.848 54.1103 103.474 57.4462C100.523 64.6013 97.833 71.853 95.4234 79.2097C93.9608 83.68 92.5695 88.1713 91.107 92.7677L91.1405 92.7593ZM84.3265 128.61C84.3726 128.631 84.4187 128.648 84.4648 128.669C84.666 128.446 84.8713 128.224 85.0725 127.997C89.0997 123.501 93.1646 119.043 97.6402 114.981C99.2159 113.552 100.821 112.157 102.468 110.817C102.883 110.481 103.515 110.271 104.052 110.258C106.29 110.204 108.431 110.729 110.505 111.552C110.837 111.683 110.971 111.901 110.908 112.241C110.799 112.821 110.715 113.414 110.564 113.981C109.584 117.686 108.515 121.371 108.092 125.199C108.067 125.438 108.02 125.673 107.987 125.913C108.037 125.93 108.083 125.942 108.134 125.959C113.502 117.875 119.511 110.292 126.007 102.923C125.684 102.813 125.487 102.717 125.278 102.683C121.38 102.078 117.483 101.448 113.581 100.889C110.585 100.465 107.576 100.103 104.567 99.7715C102.371 99.5278 100.167 99.343 97.9629 99.1959C95.3228 99.0194 92.6785 98.9144 90.0384 98.7716C89.7073 98.7548 89.5732 98.8976 89.5062 99.2001C89.1751 100.679 88.8566 102.162 88.4837 103.633C87.3899 107.985 86.6691 112.405 86.0154 116.838C85.5125 120.254 84.9887 123.665 84.4816 127.081C84.4062 127.585 84.3852 128.098 84.3391 128.606L84.3265 128.61ZM138.021 99.8009C138.306 99.8849 138.482 99.9438 138.662 99.9858C140.2 100.36 141.734 100.738 143.276 101.103C144.936 101.494 146.595 101.872 148.255 102.255C148.548 102.322 148.758 102.339 148.867 101.935C149.634 99.1119 150.379 96.2843 151.226 93.4819C152.064 90.7174 153.011 87.9823 153.908 85.2345C154.055 84.7892 154.185 84.3396 154.323 83.8943C154.281 83.8733 154.239 83.8565 154.197 83.8354C148.544 88.8268 143.243 94.1752 138.025 99.7925L138.021 99.8009Z" fill="#E5E5E5"/>
<path d="M110.705 87.7176C108.551 87.7092 106.485 87.2723 104.465 86.5706C102.097 85.7471 100.823 84.0834 100.693 81.5877C100.471 77.3905 101.238 73.3991 103.262 69.685C103.769 68.7523 104.536 68.307 105.605 68.328C107.428 68.3616 109.188 68.6977 110.939 69.2187C111.669 69.4372 112.482 69.4708 113.253 69.4498C115.285 69.3909 117.23 69.7901 119.141 70.4245C121.269 71.1303 122.313 72.7689 122.828 74.8192C123.805 78.7055 122.392 81.8104 119.539 84.3565C117.795 85.9152 115.83 87.1504 113.466 87.5369C112.561 87.684 111.631 87.663 110.713 87.7218L110.705 87.7176ZM108.894 84.6253C109.272 84.4447 109.577 84.3481 109.816 84.1716C110.583 83.6044 111.396 83.0708 112.071 82.4028C114.941 79.5584 116.132 76.1931 115.105 72.1723C115 71.7606 114.833 71.6639 114.451 71.8152C113.194 72.3193 111.924 72.7941 110.675 73.3193C110.395 73.4369 110.055 73.6764 109.963 73.9411C108.882 77.0123 108.32 80.1634 108.689 83.4321C108.731 83.8019 108.815 84.1674 108.894 84.6253Z" fill="#E5E5E5"/>
</svg>
