<svg width="154" height="45" viewBox="0 0 154 45" fill="none" xmlns="http://www.w3.org/2000/svg">
<path d="M123.096 37.0807L123.173 36.9509L123.456 36.455L124.053 36.7655C124.109 36.7937 124.14 36.8634 124.151 36.9518C124.165 37.2152 123.968 37.5831 123.686 37.4072C123.468 37.298 123.332 37.2152 123.095 37.0816M122.47 36.9518L122.314 37.2312C122.727 37.4947 123.173 37.7176 123.6 37.95C124.104 38.2295 124.816 37.5539 124.762 36.9527C124.755 36.8445 124.724 36.7486 124.662 36.647L125.689 35.8981C125.498 35.8096 125.348 35.7278 125.119 35.6318L124.214 36.2895L123.718 36.026L124.247 35.1444C124.043 35.0146 123.918 34.9375 123.68 34.7973L122.469 36.9527L122.47 36.9518ZM136.09 8.70584L137.027 6.02539C137.21 6.09313 137.404 6.14299 137.589 6.22579L136.679 8.89213C136.431 8.80746 136.315 8.7717 136.091 8.70584M132.338 6.17404L132.121 6.7169L131.896 7.30493L131.703 6.7169L131.516 6.14017L132.339 6.17498L132.338 6.17404ZM132.71 6.7169L133.322 5.2332C133.122 5.22191 132.934 5.20215 132.756 5.18145L132.567 5.6594L131.339 5.62835L131.198 5.125C131.003 5.14005 130.82 5.14664 130.623 5.14664L131.157 6.7169L131.531 7.90989L131.551 7.94658L132.174 7.97763L132.205 7.90048L132.709 6.71784L132.71 6.7169ZM135.788 38.0225L136.424 37.8211C136.595 37.7703 136.825 38.0441 136.825 38.2765C136.825 38.3913 136.788 38.4863 136.634 38.5249C136.4 38.6105 136.24 38.6566 135.985 38.7206L135.852 38.2765L135.788 38.0225H135.788ZM135.401 36.5407C135.173 36.6093 135.005 36.6338 134.755 36.71L135.217 38.2765L135.552 39.3933C136.038 39.2766 136.498 39.1204 136.959 38.968C137.221 38.889 137.361 38.5926 137.388 38.2756C137.404 37.8512 137.193 37.3865 136.761 37.2905L136.928 36.0251C136.727 36.105 136.578 36.1671 136.353 36.2575L136.206 37.3601L135.665 37.5285L135.402 36.5388L135.401 36.5407ZM126.782 8.06607C126.763 8.14887 126.733 8.21096 126.634 8.25236L125.923 8.5205L125.764 8.06513L125.706 7.89954L125.701 7.88825L126.352 7.6521C126.526 7.56931 126.699 7.72925 126.761 7.90048C126.782 7.94659 126.801 8.00868 126.782 8.06607ZM127.313 8.06607V7.91083C127.271 7.53261 127.013 7.14969 126.6 7.10359L126.693 5.78453C126.501 5.82405 126.282 5.8899 126.078 5.97928L126.057 7.21932L125.499 7.46017L125.046 6.36033C124.863 6.4196 124.678 6.48169 124.5 6.56825L125.073 7.90143L125.143 8.06701L125.608 9.16686L126.879 8.67668C127.163 8.57695 127.291 8.32198 127.313 8.06701M135.417 8.46875C134.593 8.28905 133.957 8.13664 133.141 8.00962L133.215 7.53261C133.516 7.58436 133.794 7.62199 134.114 7.65681L134.526 5.36868L135.134 5.48252L134.642 7.76971C134.952 7.84215 135.242 7.92494 135.552 7.99363L135.418 8.46781L135.417 8.46875ZM138.515 35.2366L139.129 36.4174L140.781 37.187C140.607 37.3112 140.418 37.3949 140.246 37.5125L139.106 36.9913L138.897 38.2313C138.657 38.3395 138.514 38.3932 138.268 38.4873L138.597 36.6902L137.984 35.5274L138.514 35.2366H138.515ZM144.718 34.5103C144.457 34.834 144.022 34.7869 143.899 34.5639L141.976 32.6268C141.693 32.3379 141.72 31.9061 142.01 31.6963C144.915 28.4786 146.131 24.4781 145.177 19.5171C145.16 19.1981 145.363 18.9422 145.616 18.8641L148.278 18.0898C148.631 17.9891 148.858 18.2065 148.934 18.5094C150.301 24.6108 148.428 30.6105 144.719 34.5113M147.798 16.6654L145.13 17.578C144.991 17.6326 144.63 17.6326 144.441 17.1593C142.288 12.0044 137.281 8.47063 131.482 8.47063C125.684 8.47063 120.577 12.0882 118.518 17.2383C118.364 17.6326 117.991 17.6326 117.849 17.578L115.2 16.6654C114.913 16.5638 114.739 16.3088 114.892 15.9437C117.489 9.3014 123.963 4.616 131.482 4.616C139.002 4.616 145.499 9.33245 148.108 15.9682C148.248 16.3154 148.085 16.5638 147.798 16.6654ZM114.766 18.0907L117.424 18.8651C117.672 18.9422 117.876 19.1991 117.856 19.518C116.9 24.4715 118.114 28.4795 121.017 31.6972C121.309 31.907 121.34 32.3389 121.061 32.6277L119.129 34.5724C118.942 34.7888 118.601 34.7888 118.308 34.4906C114.606 30.5889 112.735 24.6127 114.107 18.5019C114.183 18.2083 114.416 17.991 114.766 18.0917M141.42 30.4638C141.427 30.5814 141.358 30.7291 141.19 30.8918C139.063 33.147 136.878 34.404 133.883 35.1115C133.716 35.1576 133.517 35.2009 133.39 35.0805C133.255 34.9779 133.217 34.77 133.245 34.4605L133.736 27.5274C133.752 27.264 133.871 27.0541 134.047 26.9459C134.24 26.8434 134.468 26.8613 134.707 26.977L140.951 29.9915C141.152 30.0865 141.379 30.1937 141.421 30.4035C141.421 30.4186 141.428 30.4346 141.421 30.4647M142.684 18.0766C142.87 17.9543 143.086 17.8123 143.281 17.8753C143.411 17.9204 143.53 18.0606 143.6 18.326C144.476 21.2868 144.476 23.8148 143.6 26.7446C143.547 26.93 143.463 27.1162 143.305 27.1868C143.154 27.2404 142.956 27.1774 142.678 26.9855L136.95 23.0941C136.729 22.9464 136.616 22.7441 136.616 22.5343C136.616 22.3245 136.729 22.1175 136.95 21.9774L142.685 18.0766H142.684ZM133.373 10.0174C133.477 9.93552 133.653 9.90918 133.919 9.98257C136.899 10.691 139.082 11.9536 141.212 14.1862C141.336 14.3396 141.476 14.4883 141.437 14.6529C141.398 14.8194 141.259 14.9615 140.97 15.0989L134.725 18.1246C134.487 18.2403 134.26 18.2403 134.067 18.1397C133.885 18.023 133.772 17.8273 133.754 17.5507L133.25 10.6421C133.247 10.4163 133.219 10.1566 133.374 10.0174M131.484 18.0239C133.95 18.0239 135.956 20.0251 135.956 22.4901C135.956 24.9551 133.951 26.9554 131.484 26.9704C129.021 26.9704 127.017 24.9551 127.017 22.4901C127.017 20.0251 129.022 18.0239 131.484 18.0239ZM121.662 14.5409C121.662 14.4205 121.742 14.2719 121.892 14.1176C124.044 11.8586 126.216 10.6035 129.201 9.90071C129.394 9.84332 129.581 9.81228 129.712 9.92141C129.848 10.0183 129.887 10.2253 129.865 10.5574C129.865 10.5612 129.356 17.4886 129.356 17.4886C129.334 17.7455 129.236 17.9534 129.053 18.055C128.867 18.1632 128.634 18.1632 128.386 18.0484L122.154 15.017C121.936 14.9135 121.704 14.7997 121.669 14.5965C121.669 14.5823 121.661 14.5569 121.661 14.5409M121.568 30.3574C121.596 30.141 121.833 30.0404 122.044 29.9388L128.278 26.9149C128.526 26.7907 128.756 26.7907 128.946 26.8923C129.12 27.008 129.235 27.2028 129.25 27.4728L129.753 34.3871C129.781 34.7239 129.735 34.9158 129.613 35.0184C129.481 35.1332 129.286 35.1021 129.1 35.0645C126.109 34.3485 123.935 33.0849 121.786 30.8448C121.611 30.6435 121.533 30.4882 121.568 30.3556M120.318 26.945C120.115 27.0758 119.898 27.2244 119.72 27.1454C119.574 27.0993 119.471 26.945 119.395 26.7051C118.527 23.7283 118.527 21.2087 119.395 18.277C119.454 18.0842 119.518 17.8913 119.694 17.8433C119.836 17.7821 120.045 17.8433 120.317 18.0305L126.04 21.9303C126.253 22.0705 126.381 22.2718 126.381 22.4798C126.381 22.7037 126.253 22.8919 126.04 23.0462L120.317 26.945H120.318ZM120.193 35.597L122.044 33.5413C122.299 33.2646 122.587 33.2957 122.96 33.5902C125.293 35.4201 128.293 36.5049 131.483 36.5049C134.674 36.5049 137.678 35.4258 140.036 33.5902C140.404 33.3173 140.684 33.2646 140.951 33.5413L142.802 35.597C143.009 35.8237 143.009 36.1389 142.606 36.4748C139.51 38.8918 135.682 40.3821 131.476 40.3821C127.269 40.3821 123.41 38.8918 120.368 36.4654C119.969 36.1399 119.986 35.8237 120.192 35.597M154 22.4722C154 22.2088 153.989 21.9454 153.96 21.7356L153.952 21.681L153.892 21.649C152.935 21.077 151.698 20.7514 150.458 20.7204C150.427 20.5652 150.295 19.4409 150.271 19.2856C151.427 18.9582 152.547 18.3241 153.332 17.5159L153.363 17.4632V17.4096C153.301 16.974 153.146 16.3841 152.971 15.9955L152.951 15.9372L152.895 15.9287C151.812 15.6173 150.534 15.6276 149.351 15.9183C149.295 15.7725 148.859 14.7329 148.816 14.5795C149.85 13.9275 150.766 13.029 151.279 12.0665L151.307 12.011L151.292 11.9574C151.13 11.5764 150.828 11.0203 150.555 10.6882L150.526 10.6393H150.458C149.352 10.6308 148.116 10.9563 147.038 11.5538C146.94 11.423 146.22 10.4756 146.124 10.3514C146.971 9.46981 147.615 8.36056 147.876 7.26636L147.894 7.21273L147.86 7.16851C147.614 6.83357 147.162 6.38949 146.832 6.12605L146.793 6.09501L146.712 6.10724C145.648 6.38949 144.522 7.03773 143.648 7.87979C143.519 7.781 142.626 7.08383 142.495 6.98128C143.062 5.94071 143.41 4.73455 143.41 3.64694V3.49828L143.347 3.45689C143.015 3.19063 142.469 2.87733 142.077 2.7155L142.039 2.69669L141.976 2.72397C141.015 3.28001 140.099 4.1851 139.472 5.23414C139.319 5.1664 138.23 4.69974 138.082 4.63388C138.229 4.05809 138.32 3.44183 138.337 2.8491C138.337 2.23944 138.23 1.63448 138.082 1.08502L138.075 1.02763L138.016 0.996585C137.653 0.844169 137.04 0.695516 136.613 0.620248L136.548 0.611781L136.51 0.656001C135.687 1.4416 135.053 2.5565 134.722 3.72126C134.575 3.7175 133.45 3.56038 133.288 3.53121C133.27 2.3053 132.934 1.06433 132.352 0.103727L132.32 0.0538624L132.256 0.0444534C131.863 -0.0148196 131.237 -0.0148196 130.811 0.0444534L130.76 0.0538624L130.722 0.103727C130.155 1.06527 129.819 2.3053 129.795 3.53121C129.625 3.54533 128.437 3.7175 128.275 3.72126C127.95 2.56497 127.313 1.4576 126.509 0.661646L126.465 0.620248L126.4 0.630599C125.963 0.695517 125.381 0.862986 124.993 1.02387L124.947 1.04927L124.928 1.09537C124.763 1.64388 124.679 2.25543 124.679 2.86416C124.679 3.47288 124.763 4.05809 124.916 4.63388C124.764 4.70068 123.737 5.11653 123.589 5.18239C122.958 4.12112 122.042 3.19721 121.072 2.66093L121.021 2.63365L120.959 2.65059C120.56 2.82747 120.031 3.12948 119.692 3.38538L119.65 3.42866V3.54439C119.65 4.64611 119.985 5.85792 120.56 6.91919C120.431 7.01797 119.474 7.74618 119.343 7.84309C118.466 6.99727 117.351 6.36032 116.274 6.08278L116.215 6.06678L116.156 6.1063C115.826 6.3735 115.405 6.7997 115.136 7.13558L115.102 7.19579L115.114 7.25318C115.405 8.34268 116.048 9.45005 116.889 10.3128C116.794 10.4426 116.068 11.3825 115.965 11.5284C114.897 10.9234 113.651 10.5828 112.546 10.6073H112.486L112.447 10.644C112.19 10.9855 111.88 11.5368 111.715 11.9188L111.689 11.979L111.715 12.027C112.271 13.0036 113.182 13.9078 114.221 14.5353C114.153 14.6905 113.709 15.7386 113.636 15.8845C112.456 15.59 111.169 15.5834 110.089 15.8845L110.034 15.8995L110.005 15.9484C109.857 16.3126 109.696 16.926 109.632 17.3597L109.618 17.4284L109.657 17.482C110.44 18.2808 111.548 18.9102 112.731 19.2649C112.718 19.4352 112.545 20.6216 112.525 20.7853C111.296 20.8013 110.053 21.1203 109.088 21.6932L109.04 21.7243L109.035 21.7939C109.007 21.9887 109 22.2521 109 22.5221C109 22.7921 109.007 23.0349 109.035 23.2513L109.04 23.3134L109.088 23.3444C110.053 23.9108 111.297 24.2439 112.525 24.2589C112.554 24.4226 112.7 25.577 112.718 25.7388C111.549 26.0728 110.433 26.7089 109.641 27.5076L109.608 27.5462L109.618 27.6083C109.671 28.058 109.836 28.647 110.005 29.0196L110.021 29.0741L110.08 29.0892C111.145 29.4053 112.437 29.3987 113.623 29.1042C113.69 29.2435 114.12 30.2906 114.189 30.4534C113.143 31.0819 112.222 31.9879 111.675 32.9617L111.649 33.0247L111.675 33.0802C111.845 33.4716 112.156 34.0013 112.399 34.3316L112.437 34.3824H112.503C113.624 34.3993 114.863 34.0587 115.926 33.4632C116.025 33.5874 116.755 34.5687 116.85 34.7013C116.005 35.5782 115.366 36.6855 115.09 37.7788L115.08 37.8249L115.102 37.871C115.372 38.2125 115.819 38.6547 116.15 38.9097L116.2 38.9407L116.25 38.9351C117.351 38.6538 118.461 37.9999 119.325 37.1578C119.452 37.2576 120.315 37.9246 120.447 38.0206C119.85 39.0649 119.516 40.2749 119.516 41.3578V41.5224L119.573 41.5553C119.896 41.8131 120.447 42.1264 120.837 42.2845L120.879 42.3155L120.943 42.2845C121.908 41.7397 122.817 40.8271 123.45 39.779C123.602 39.8345 124.726 40.3285 124.88 40.3925C124.732 40.9673 124.639 41.5751 124.649 42.1763C124.649 42.7925 124.725 43.3853 124.889 43.931L124.897 43.9949L124.954 44.0138C125.319 44.1643 125.923 44.3289 126.353 44.3939L126.417 44.4004L126.466 44.3619C127.272 43.5763 127.909 42.4595 128.246 41.2825C128.415 41.2976 129.596 41.4481 129.754 41.4791C129.779 42.6909 130.11 43.931 130.693 44.8944L130.715 44.9433L130.777 44.9612C131.2 45.0129 131.824 45.0129 132.235 44.9612L132.289 44.9433L132.323 44.8944C132.906 43.931 133.245 42.6909 133.245 41.4885C133.421 41.4481 134.577 41.2976 134.741 41.2825C135.085 42.4604 135.72 43.5716 136.53 44.3515L136.568 44.3939L136.62 44.3779C137.06 44.3299 137.655 44.1643 138.037 43.9949L138.083 43.978L138.102 43.9122C138.27 43.3702 138.348 42.7841 138.348 42.1754C138.337 41.5685 138.25 40.9607 138.102 40.3774C138.25 40.3153 139.371 39.8477 139.528 39.779C140.154 40.8271 141.046 41.7313 142.021 42.2845L142.077 42.3155L142.137 42.2845C142.52 42.1236 143.061 41.8131 143.394 41.5497L143.442 41.5224V41.37C143.442 40.2645 143.1 39.0555 142.521 38.0215C142.648 37.9256 143.574 37.2002 143.713 37.091C144.588 37.9435 145.698 38.5917 146.792 38.8589L146.841 38.8881L146.892 38.8335C147.218 38.5926 147.664 38.1307 147.916 37.8004L147.961 37.7487L147.944 37.6941C147.664 36.5999 147.006 35.486 146.162 34.6223C146.261 34.4868 146.959 33.5657 147.068 33.4331C148.158 34.022 149.387 34.3532 150.503 34.3325H150.555L150.59 34.2864C150.863 33.9364 151.175 33.4029 151.322 33.0304L151.361 32.9626L151.322 32.9062C150.77 31.9428 149.857 31.0433 148.814 30.4073C148.88 30.2521 149.3 29.2049 149.383 29.0506C150.554 29.3526 151.842 29.3601 152.911 29.0506L152.974 29.0431L152.997 28.981C153.146 28.6084 153.321 28.0044 153.378 27.5622L153.387 27.5086L153.34 27.4691C152.56 26.6562 151.441 26.0202 150.269 25.6862C150.293 25.5234 150.439 24.3765 150.468 24.2137C151.701 24.1912 152.933 23.8638 153.89 23.2917L153.95 23.2607L153.958 23.1986C153.987 22.9888 153.998 22.7394 153.998 22.4694M141.394 11.8539L142.566 10.5913L140.596 11.1718C140.434 11.0429 140.324 11.0015 140.182 10.8773L141.89 8.57601C142.039 8.68703 142.19 8.83098 142.326 8.94294L141.287 10.3288L143.275 9.73042C143.41 9.84803 143.604 9.98257 143.74 10.151L141.758 12.2453C141.651 12.1333 141.532 11.98 141.394 11.8539ZM140.033 8.48945C140.033 8.65504 139.99 8.8084 139.91 8.95423C139.675 9.38796 139.118 9.53002 138.683 9.28164C138.378 9.11887 138.223 8.80746 138.223 8.48851C138.229 8.34268 138.268 8.17803 138.355 8.03879C138.378 7.99269 138.409 7.94564 138.453 7.89954C138.723 7.57589 139.205 7.49969 139.573 7.71326C139.675 7.76877 139.757 7.83086 139.821 7.89954C139.957 8.06513 140.034 8.28717 140.034 8.48851M140.355 9.1885C140.473 8.98527 140.533 8.73689 140.543 8.48851C140.543 8.29093 140.5 8.0943 140.419 7.90989C140.288 7.6521 140.094 7.41313 139.822 7.25695C139.162 6.86932 138.303 7.10171 137.903 7.77911C137.889 7.82239 137.87 7.86191 137.844 7.90989C137.764 8.0943 137.725 8.29093 137.707 8.48851C137.725 8.98904 137.968 9.45005 138.418 9.70784C139.091 10.087 139.958 9.86214 140.355 9.18755M143.316 12.9566L143.648 12.4259L143.952 11.8991L144.366 12.4259L144.474 12.5605L143.317 12.9566H143.316ZM142.992 13.6039L145.812 12.6734C145.744 12.5906 145.692 12.5115 145.633 12.425C145.581 12.3629 145.525 12.3008 145.486 12.2171L144.99 12.3939L144.222 11.4324L144.503 10.994C144.388 10.8632 144.262 10.7192 144.114 10.58L142.998 12.425L142.585 13.1071L142.994 13.6029L142.992 13.6039ZM146.114 14.0169L144.045 15.1563L143.781 14.6821L146.261 13.2934L147.218 15.0095L146.792 15.2353L146.115 14.0169H146.114ZM129.75 8.03785L129.546 6.31234L128.717 8.20249C128.523 8.24013 128.403 8.28999 128.205 8.31916L127.558 5.53521C127.759 5.4797 127.95 5.459 128.156 5.42513L128.507 7.1337L129.346 5.23225C129.536 5.20121 129.75 5.13911 129.973 5.1457L130.283 8.02279C130.122 8.03314 129.927 8.00774 129.751 8.03785M129.657 39.2794L129.905 36.9716L130.51 37.0337L130.274 39.3227L131.19 39.3829L131.158 39.8966C130.129 39.8345 129.71 39.7988 128.696 39.6464L128.765 39.1571L129.658 39.2794H129.657ZM132.463 38.0206C132.771 38.0046 133.056 37.9745 133.345 37.9275L133.194 38.5221L133.005 39.127L132.718 38.5221L132.463 38.0206H132.463ZM131.993 37.0572C131.758 37.06 131.65 37.06 131.416 37.06L132.121 38.523L132.757 39.8477L133.389 39.779L133.719 38.523L134.18 36.8314C133.966 36.8718 133.799 36.9029 133.601 36.9113L133.437 37.4476C133.02 37.5097 132.641 37.5285 132.257 37.5455L131.992 37.0572H131.993ZM126.126 37.7609C126.165 37.2585 126.609 36.8897 127.092 36.9358C127.568 36.9819 127.925 37.3601 127.925 37.8409C127.94 37.8635 127.925 37.8945 127.925 37.9256C127.885 38.4299 127.449 38.7846 126.948 38.7347C126.467 38.7018 126.108 38.3217 126.126 37.8409V37.7609ZM125.609 37.7111V37.8409C125.595 38.5701 126.154 39.1684 126.885 39.2305C127.665 39.3077 128.357 38.7347 128.42 37.9566V37.84C128.42 37.1117 127.871 36.4908 127.122 36.4212C126.368 36.3572 125.675 36.9236 125.609 37.7111ZM131.532 19.7871C133.004 19.7871 134.213 20.9961 134.213 22.4685C134.213 23.6935 133.361 24.7547 132.19 25.0492C132.174 25.1668 132.144 25.7247 132.144 25.7247H130.792C130.792 25.7247 130.761 25.1198 130.748 24.9956C129.627 24.655 128.87 23.6314 128.87 22.4685C128.87 20.9961 130.079 19.7871 131.533 19.7871M131.482 18.4586C129.263 18.4586 127.454 20.2744 127.454 22.4835C127.454 24.6926 129.263 26.5216 131.482 26.5216C133.702 26.5216 135.507 24.7077 135.507 22.4835C135.507 20.2594 133.706 18.4586 131.482 18.4586ZM123.549 9.67773C123.934 9.46698 124.307 9.25059 124.726 9.05113L124.978 9.46793C124.399 9.76994 123.85 10.1124 123.362 10.453L121.757 8.09618C122.367 7.6935 122.921 7.35762 123.548 6.99633L123.804 7.41313L122.51 8.17897L122.946 8.7877L123.804 8.27212L124.054 8.6748C123.78 8.83004 123.493 9.00033 123.191 9.18661L123.548 9.67773H123.549ZM120.339 13.1711L119.02 12.028L119.693 13.9811C119.574 14.1505 119.517 14.2662 119.394 14.4224L117.029 12.8173C117.136 12.6602 117.266 12.5144 117.378 12.3497L118.8 13.3357L118.133 11.3665C118.247 11.2358 118.364 11.0363 118.527 10.9084L120.715 12.7797C120.593 12.9086 120.449 13.0271 120.34 13.172M118.779 15.4395L116.343 14.0197C116.431 13.8494 116.527 13.6528 116.634 13.4863L119.071 14.9088C118.953 15.1261 118.883 15.2381 118.779 15.4395ZM121.786 11.0118L120.284 9.23366L119.819 9.63634L121.37 11.3656C121.124 11.5923 120.938 11.7946 120.698 12.0082L121.044 12.3582C121.636 11.7946 122.155 11.3656 122.806 10.8453L122.506 10.4577C122.268 10.644 122.025 10.8246 121.786 11.0109" fill="#B5B7BA"/>
<path d="M79.5171 13.7428C77.6978 13.8515 75.9024 14.8905 74.7946 15.6763V14.5631C74.7946 14.1801 74.4781 13.8753 74.1031 13.8753H71.3449C70.9699 13.8753 70.6627 14.1801 70.6627 14.5631V31.1816C70.6627 31.558 70.9699 31.8602 71.3449 31.8602H74.1031C74.4781 31.8602 74.7946 31.5567 74.7946 31.1816V19.6958C75.4077 19.1723 77.3374 17.7411 79.6262 17.5436C79.9772 17.5118 80.2512 17.2057 80.2512 16.8571V14.4213C80.2512 14.2371 80.1741 14.0516 80.0318 13.931C79.9001 13.7905 79.7046 13.7229 79.5171 13.7441M58.0287 24.0744C56.4142 24.2268 55.6455 24.961 55.6455 26.379C55.6455 27.2523 55.8835 28.7286 57.4887 28.7286C59.3958 28.7286 61.9811 28.017 62.0117 27.9971V23.8663L58.03 24.0731L58.0287 24.0744ZM66.137 19.5328V31.4573C66.137 31.6548 66.0493 31.8416 65.9003 31.9728C65.7474 32.104 65.5452 32.1636 65.3577 32.1345C63.9547 31.9384 63.2871 31.5024 62.6248 30.9974C62.5942 31.008 59.4995 32.2538 56.736 32.2538C53.394 32.2538 51.4842 30.1572 51.4842 26.489C51.4842 22.8207 53.2357 21.3325 57.5273 21.0157L62.0117 20.6566V19.5646C62.0117 18.1983 61.1925 17.4124 59.7682 17.4124C57.8039 17.4124 55.0045 17.6417 53.5083 17.7729C53.3235 17.7941 53.1307 17.7291 52.9897 17.6085C52.85 17.4893 52.7676 17.3024 52.7543 17.1182L52.6665 14.8467C52.6585 14.4982 52.9019 14.1921 53.245 14.1377C54.5816 13.9297 57.905 13.4486 59.9863 13.4486C64.1794 13.4486 66.137 15.3808 66.137 19.5315M8.86641 10.9598H7.36097C5.67732 10.9598 4.71714 11.0897 4.23306 11.1785V18.2857C5.03498 18.3414 6.58298 18.4289 8.66959 18.4063C11.356 18.3732 13.0277 16.9539 13.0277 14.6957C13.0277 12.892 11.9345 10.9598 8.86641 10.9598ZM17.5427 30.9033C17.6318 31.1167 17.6158 31.3566 17.4921 31.554C17.3605 31.7502 17.1503 31.8615 16.9149 31.8615H13.7165C13.4466 31.8615 13.1966 31.6998 13.0928 31.4493L8.99408 22.2734C6.95535 22.2615 5.18526 22.1422 4.23306 22.0865V31.1816C4.23306 31.558 3.92452 31.8602 3.54949 31.8602H0.688886C0.305876 31.8602 0 31.5567 0 31.1816V8.13573C0 7.78587 0.263319 7.49696 0.609092 7.45456C4.28226 7.04108 7.21867 7 8.30919 7C8.68156 7 8.8837 7.0053 8.8837 7.0053C15.9282 7.0053 17.4043 11.1453 17.4043 14.6162C17.4043 17.5211 16.0159 19.6176 13.1593 21.0369L17.5427 30.902V30.9033ZM97.859 14.1483C97.7274 13.9747 97.5305 13.8767 97.3204 13.8767H94.6393C94.3308 13.8767 94.0675 14.0847 93.9797 14.3895L90.3917 27.8646H90.123L86.5283 14.3895C86.4459 14.0861 86.1772 13.8767 85.8607 13.8767H83.1969C82.9775 13.8767 82.7807 13.9747 82.649 14.1483C82.52 14.3113 82.4735 14.53 82.5293 14.7261L86.4844 29.8392C86.6813 30.5932 87.3728 31.8602 88.7479 31.8602H89.5099C89.4448 32.1133 89.377 32.3836 89.2958 32.6156L89.2679 32.7322C89.0485 33.4306 88.7253 34.4815 86.781 34.4815L83.3618 34.2734C83.165 34.2602 82.9775 34.3278 82.8458 34.4616C82.7035 34.5994 82.6264 34.7889 82.6291 34.9864L82.7168 36.7649C82.7368 37.0684 82.9456 37.3228 83.2408 37.3891C84.2489 37.6462 86.1679 37.9351 87.7558 37.9947C87.8276 38 87.8994 38 87.9646 38C90.5446 38 92.2921 36.3408 93.1791 33.0648C94.1992 29.2388 95.4798 24.3143 96.4148 20.7003C96.839 19.0835 97.2021 17.6867 97.4654 16.6928L97.9787 14.7381C98.0346 14.53 97.9827 14.3113 97.8604 14.1483M32.1023 22.7849C32.1023 18.7575 31.0039 17.1937 28.1938 17.1937C25.3837 17.1937 24.2493 18.6568 24.2493 22.7849C24.2493 26.5115 24.8784 28.5431 28.1938 28.5431C31.5092 28.5431 32.1023 26.424 32.1023 22.7849ZM36.2982 22.7849C36.2982 29.329 33.7966 32.2538 28.1938 32.2538C22.5909 32.2538 20.0562 29.329 20.0562 22.7849C20.0562 16.2409 22.567 13.4499 28.1938 13.4499C33.8206 13.4499 36.2982 16.4092 36.2982 22.7849ZM49.3099 28.9354L49.4269 31.2028C49.4455 31.5355 49.2048 31.8416 48.8737 31.9039C47.9121 32.0815 46.5942 32.2948 45.7683 32.2948C41.6124 32.2948 40.3424 30.7059 40.3424 25.5176V17.5873H38.7478C38.3701 17.5873 38.0629 17.2812 38.0629 16.8995V14.5631C38.0629 14.1801 38.3701 13.8753 38.7478 13.8753H40.3424V11.0897C40.3424 10.773 40.5565 10.5 40.8624 10.4231L43.6166 9.7565C43.824 9.70349 44.0355 9.74722 44.2004 9.87709C44.3693 10.0096 44.4677 10.2044 44.4677 10.4231V13.8753H48.6649C49.0452 13.8753 49.3498 14.1801 49.3498 14.5631V16.8995C49.3498 17.2812 49.0452 17.5873 48.6649 17.5873H44.4677V24.9358C44.4677 27.4816 44.5595 28.3655 46.3482 28.3655C47.0105 28.3655 48.0398 28.3205 48.5957 28.29C48.9628 28.2794 49.2912 28.5603 49.3099 28.9354Z" fill="#B5B7BA"/>
</svg>
