<svg width="543" height="105" viewBox="0 0 543 105" fill="none" xmlns="http://www.w3.org/2000/svg">
<path d="M109.404 82V24.0234H133.107C146.16 24.0234 154.168 31.3906 154.168 43.2422C154.168 51.21 150.524 56.9355 144.158 59.8184L156.25 82H141.275L130.625 62.0605H123.018V82H109.404ZM123.018 51.1699H130.225C136.631 51.1699 140.074 48.6875 140.074 43.2422C140.074 37.7969 136.631 35.0742 130.225 35.0742H123.018V51.1699Z" fill="#004D95"/>
<path d="M178.694 82.8008C165.081 82.8008 156.833 73.752 156.833 60.3789C156.833 47.0059 165.081 37.957 178.694 37.957C192.308 37.957 200.556 47.0059 200.556 60.3789C200.556 73.752 192.308 82.8008 178.694 82.8008ZM178.774 72.6309C183.899 72.6309 186.782 67.5859 186.782 60.2988C186.782 53.0117 183.899 47.9668 178.774 47.9668C173.489 47.9668 170.606 53.0117 170.606 60.2988C170.606 67.5859 173.489 72.6309 178.774 72.6309Z" fill="#004D95"/>
<path d="M229.326 38.5176V48.4473H221.398V68.3867C221.398 71.1094 222.76 71.9102 225.082 71.9902C226.203 72.0703 228.365 71.9102 229.887 71.8301V82.1602C228.605 82.3203 226.363 82.6406 223.16 82.6406C213.631 82.6406 207.865 78.7168 207.945 69.9082V48.4473H202.1V38.5176H207.945V28.1074H221.398V38.5176H229.326Z" fill="#004D95"/>
<path d="M231.831 69.9082C231.831 60.2988 239.278 56.8555 247.927 56.2949C251.05 56.0947 256.495 55.8945 258.337 55.8145V52.291C258.337 49.248 256.095 47.5664 252.411 47.5664C248.807 47.5664 246.565 49.0879 246.005 51.9707H233.432C233.993 44.2832 240.559 37.957 252.731 37.957C263.462 37.957 271.87 43.082 271.87 52.4512V82H259.138V75.9141H258.817C256.415 80.3184 252.251 82.8008 246.165 82.8008C237.837 82.8008 231.831 78.5566 231.831 69.9082ZM244.643 69.3477C244.643 72.3105 246.966 73.832 250.249 73.832C254.813 73.832 258.497 70.8691 258.417 66.5449V63.7422C256.775 63.8223 252.171 64.0225 250.169 64.2227C246.806 64.623 244.643 66.4648 244.643 69.3477Z" fill="#004D95"/>
<path d="M277.658 82V38.5176H290.791V46.3652H291.191C292.793 40.6797 296.637 37.877 301.441 37.877C302.723 37.877 304.164 38.1172 305.285 38.3574V50.1289C304.004 49.7285 301.601 49.4883 299.92 49.4883C294.875 49.4883 291.191 53.0117 291.191 58.2168V82H277.658Z" fill="#004D95"/>
<path d="M317.479 98.3359C314.917 98.3359 312.514 98.2559 310.753 98.0957V87.8457C312.514 88.0059 314.436 88.0059 316.038 88.0059C318.28 88.0059 319.962 87.7656 321.163 84.8828L321.643 83.5215L306.188 38.5176H320.282L328.53 69.748H329.011L337.259 38.5176H351.513L335.016 86.2441C332.614 93.3711 327.649 98.3359 317.479 98.3359Z" fill="#004D95"/>
<path d="M378.624 82.3906C372.178 82.3906 367.608 78.8359 367.53 73.7578H374.249C374.288 75.6328 376.163 76.9609 378.663 76.9609C381.163 76.9609 382.96 75.5156 382.921 73.4844C382.96 71.4531 381.046 69.9688 378.077 69.9688H375.342V65.2031H378.077C380.655 65.2031 382.452 63.8359 382.452 61.8047C382.452 59.8906 380.928 58.5234 378.663 58.5234C376.358 58.5234 374.522 59.8516 374.483 61.8438H368.077C368.155 56.8438 372.608 53.3281 378.702 53.3281C384.757 53.3281 388.897 56.8047 388.858 61.4141C388.897 64.5781 386.553 66.8047 383.311 67.2734V67.4688C387.647 67.9766 389.952 70.4766 389.913 73.9922C389.952 78.875 385.225 82.3906 378.624 82.3906Z" fill="black"/>
<path d="M393.713 82L405.275 59.3047V59.1094H391.76V53.7188H412.189V59.1484L400.588 82H393.713Z" fill="black"/>
<path d="M425.638 82.3906C418.294 82.3906 413.802 77.1172 413.802 67.8594C413.802 58.6016 418.294 53.3281 425.638 53.3281C432.982 53.3281 437.474 58.6016 437.474 67.8594C437.474 77.1562 432.982 82.3906 425.638 82.3906ZM425.638 76.9609C428.646 76.9609 430.638 74.1094 430.638 67.8594C430.638 61.6875 428.646 58.7188 425.638 58.7188C422.63 58.7188 420.677 61.6875 420.638 67.8594C420.599 74.1094 422.63 76.9609 425.638 76.9609Z" fill="black"/>
<path d="M451.703 82.3906C444.36 82.3906 439.867 77.1172 439.867 67.8594C439.867 58.6016 444.36 53.3281 451.703 53.3281C459.047 53.3281 463.539 58.6016 463.539 67.8594C463.539 77.1562 459.047 82.3906 451.703 82.3906ZM451.703 76.9609C454.711 76.9609 456.703 74.1094 456.703 67.8594C456.703 61.6875 454.711 58.7188 451.703 58.7188C448.696 58.7188 446.742 61.6875 446.703 67.8594C446.664 74.1094 448.696 76.9609 451.703 76.9609Z" fill="black"/>
<path d="M479.293 59.2656C479.293 64.9688 481.793 71.1797 488.043 73.7188L485.035 78.1328C480.875 76.4141 478.121 73.0547 476.519 68.9531C474.957 73.4453 472.125 77.1562 467.925 79.0312L464.722 74.6172C470.933 71.8828 473.55 65.3203 473.55 59.2656V57.8594H466.207V53.2891H486.48V57.8594H479.293V59.2656ZM495.191 49.8906V85.75H489.527V49.8906H495.191Z" fill="black"/>
<path d="M527.468 51.9219V55.1641C527.428 58.5039 527.428 62.1367 526.569 67.1172H531.139V71.6484H517.428V85.7891H511.764V71.6484H498.444V67.1172H520.905C521.725 62.7422 521.823 59.3438 521.843 56.375H502.077V51.9219H527.468Z" fill="black"/>
<path d="M36.626 24.9587L36.7718 25.204L37.3067 26.1405L38.4335 25.554C38.5382 25.5007 38.597 25.3692 38.6182 25.2022C38.645 24.7045 38.2735 24.0097 37.7402 24.342C37.328 24.5482 37.0737 24.7062 36.626 24.9587ZM35.4425 25.2022L35.1493 24.6742C35.9293 24.1767 36.7717 23.7555 37.5785 23.3165C38.5295 22.7887 39.8747 24.0647 39.7735 25.2002C39.7592 25.4047 39.7005 25.586 39.5832 25.778L41.524 27.1925C41.1633 27.3595 40.879 27.5142 40.447 27.6955L38.7373 26.4532L37.8008 26.9507L38.7995 28.616C38.414 28.8612 38.1793 29.007 37.7298 29.2717L35.4408 25.2002L35.4425 25.2022ZM61.1692 78.5556L62.9392 83.6187C63.2857 83.4908 63.652 83.3966 64.002 83.2402L62.2835 78.2037C61.8143 78.3637 61.594 78.4312 61.1692 78.5556ZM54.0835 83.3379L53.673 82.3125L53.2482 81.2018L52.884 82.3125L52.5303 83.4019L54.0835 83.3379ZM54.7855 82.3125L55.9408 85.1151C55.564 85.1364 55.2085 85.1737 54.8725 85.2128L54.5153 84.31L52.196 84.3687L51.9295 85.3194C51.5617 85.291 51.215 85.2786 50.8438 85.2786L51.8512 82.3125L52.5588 80.0591L52.596 79.9898L53.7725 79.9311L53.831 80.0769L54.7855 82.3125ZM60.6005 23.1797L61.8 23.56C62.1235 23.656 62.559 23.139 62.559 22.7C62.559 22.483 62.4877 22.3037 62.1982 22.2307C61.7557 22.069 61.4535 21.982 60.972 21.861L60.7212 22.7L60.6005 23.1797ZM59.8682 25.9787C59.4382 25.849 59.12 25.8027 58.649 25.659L59.5218 22.7L60.1545 20.5905C61.0715 20.8107 61.9405 21.1057 62.8112 21.3937C63.3072 21.543 63.5702 22.1027 63.6217 22.7017C63.652 23.5032 63.2538 24.381 62.438 24.5625L62.7528 26.9527C62.3723 26.8015 62.0915 26.6842 61.6668 26.5137L61.3895 24.4307L60.3678 24.1127L59.87 25.9822L59.8682 25.9787ZM43.589 79.7641C43.5518 79.6077 43.495 79.4904 43.3083 79.4122L41.9665 78.9057L41.6645 79.7659L41.556 80.0786L41.547 80.1L42.777 80.546C43.104 80.7024 43.431 80.4003 43.5482 80.0769C43.589 79.9898 43.6248 79.8725 43.589 79.7641ZM44.5915 79.7641V80.0573C44.5115 80.7717 44.0245 81.495 43.2443 81.5821L43.4202 84.0737C43.0577 83.999 42.6437 83.8746 42.258 83.7058L42.219 81.3635L41.165 80.9086L40.3085 82.986C39.9635 82.8741 39.6135 82.7568 39.2775 82.5933L40.36 80.0751L40.4915 79.7623L41.3713 77.6848L43.7722 78.6107C44.307 78.7991 44.5487 79.2825 44.5915 79.7641ZM59.8985 79.0035C58.3417 79.3429 57.1402 79.6308 55.5995 79.8707L55.7397 80.7717C56.3085 80.674 56.8328 80.6029 57.437 80.5371L58.2155 84.8592L59.3635 84.6441L58.434 80.3239C59.0205 80.187 59.568 80.0307 60.1545 79.9009L59.8985 79.0035ZM65.7507 28.442L66.9095 26.2115L70.0303 24.7577C69.7015 24.5232 69.3443 24.365 69.0208 24.143L66.867 25.1275L66.4722 22.7852C66.0192 22.5807 65.749 22.4795 65.2835 22.3017L65.9055 25.6962L64.7485 27.8927L65.7507 28.442ZM77.468 29.8137C76.9738 29.2025 76.1527 29.2912 75.92 29.7125L72.2872 33.3717C71.7542 33.9172 71.804 34.733 72.353 35.1292C77.8392 41.2072 80.1373 48.7635 78.3335 58.1345C78.3015 58.737 78.6853 59.2202 79.1633 59.3677L84.191 60.8305C84.8592 61.0205 85.2875 60.61 85.4315 60.0377C88.0138 48.513 84.4738 37.1817 77.468 29.8137ZM83.2848 63.521L78.2462 61.7972C77.9832 61.694 77.3007 61.694 76.9437 62.588C72.8775 72.3249 63.4192 78.9999 52.4662 78.9999C41.5132 78.9999 31.8685 72.1668 27.9782 62.4387C27.6885 61.694 26.9829 61.694 26.7146 61.7972L21.7118 63.521C21.1697 63.713 20.8409 64.1945 21.1288 64.884C26.0357 77.4307 38.2627 86.2809 52.4662 86.2809C66.6697 86.2809 78.943 77.372 83.8712 64.8377C84.1342 64.182 83.8268 63.713 83.2848 63.521ZM20.8907 60.8285L25.9113 59.366C26.3805 59.2202 26.7661 58.735 26.7288 58.1327C24.9214 48.776 27.2158 41.2052 32.6984 35.1275C33.2511 34.7312 33.308 33.9155 32.7819 33.37L29.1334 29.6965C28.7797 29.2877 28.1346 29.2877 27.5819 29.8512C20.5886 37.221 17.0555 48.5095 19.6467 60.052C19.7906 60.6065 20.2296 61.0187 20.8907 60.8285ZM71.237 37.4572C71.2512 37.2352 71.1197 36.9562 70.8035 36.6487C66.7852 32.389 62.6585 30.0147 57.0017 28.6782C56.6852 28.5912 56.3102 28.5095 56.0705 28.737C55.8145 28.9305 55.7435 29.3232 55.7968 29.908L56.7245 43.0037C56.7528 43.5015 56.9785 43.8977 57.311 44.102C57.6753 44.2957 58.107 44.262 58.5585 44.0435L70.352 38.3495C70.7323 38.17 71.1605 37.9675 71.2388 37.571C71.2388 37.5427 71.2512 37.5142 71.237 37.4572ZM73.6255 60.8552C73.9775 61.0862 74.3845 61.3547 74.7523 61.2355C74.9995 61.1502 75.2233 60.8855 75.3548 60.3842C77.0095 54.7917 77.0095 50.0165 75.3548 44.4825C75.2553 44.1322 75.097 43.7805 74.7985 43.6472C74.5125 43.5457 74.1393 43.665 73.6133 44.0275L62.7952 51.3777C62.3777 51.6567 62.1645 52.0387 62.1645 52.4352C62.1645 52.8315 62.3777 53.2225 62.7952 53.4872L73.6255 60.8552ZM56.0385 76.0783C56.234 76.2329 56.5662 76.2826 57.0692 76.144C62.6975 74.8058 66.8208 72.4209 70.8443 68.2037C71.0788 67.914 71.3438 67.6332 71.2708 67.3222C71.1963 67.0077 70.9332 66.7395 70.3875 66.48L58.5922 60.7645C58.1425 60.546 57.7125 60.546 57.3483 60.7362C57.0053 60.9565 56.792 61.3262 56.7583 61.8487L55.8055 74.8983C55.8003 75.3248 55.7452 75.8153 56.0385 76.0783ZM52.4697 60.9547C57.1277 60.9547 60.9167 57.1747 60.9167 52.5187C60.9167 47.8625 57.1295 44.0842 52.4697 44.056C47.817 44.056 44.0317 47.8625 44.0317 52.5187C44.0317 57.1747 47.8187 60.9547 52.4697 60.9547ZM33.9176 67.5337C33.9176 67.7612 34.0687 68.042 34.3512 68.3335C38.4158 72.6004 42.5193 74.9711 48.1565 76.2986C48.5225 76.407 48.8745 76.4657 49.1232 76.2595C49.3792 76.0765 49.454 75.6855 49.4112 75.0582C49.4112 75.0511 48.4497 61.966 48.4497 61.966C48.409 61.4807 48.224 61.088 47.8775 60.8962C47.5255 60.6917 47.0868 60.6917 46.6175 60.9085L34.847 66.6345C34.4347 66.83 33.9958 67.045 33.93 67.429C33.93 67.4555 33.9176 67.5035 33.9176 67.5337ZM33.7399 37.6582C33.7932 38.067 34.241 38.257 34.6391 38.449L46.413 44.1607C46.8822 44.3952 47.3177 44.3952 47.675 44.2035C48.0037 43.9847 48.2222 43.617 48.2507 43.107L49.1997 30.0467C49.253 29.4105 49.166 29.048 48.935 28.8542C48.6863 28.6372 48.3182 28.696 47.9662 28.767C42.3167 30.1195 38.2112 32.5062 34.1504 36.7375C33.8216 37.118 33.6741 37.4112 33.7399 37.6617M31.3779 44.104C30.9958 43.8567 30.5853 43.576 30.2494 43.7252C29.974 43.8125 29.7785 44.104 29.6345 44.557C27.996 50.18 27.996 54.9392 29.6345 60.4767C29.7465 60.841 29.8674 61.2052 30.1997 61.296C30.468 61.4115 30.8626 61.296 31.3762 60.9422L42.187 53.576C42.5885 53.3112 42.8302 52.931 42.8302 52.5382C42.8302 52.1152 42.5885 51.7597 42.187 51.4682L31.3779 44.104ZM31.1416 27.7612L34.6391 31.6442C35.1208 32.1667 35.6645 32.1082 36.3683 31.552C40.7758 28.0952 46.4415 26.0462 52.468 26.0462C58.4945 26.0462 64.169 28.0847 68.6227 31.552C69.3195 32.0672 69.8473 32.1667 70.352 31.6442L73.8477 27.7612C74.2387 27.333 74.2387 26.7375 73.478 26.1032C67.6292 21.5377 60.3998 18.7227 52.4538 18.7227C44.508 18.7227 37.2195 21.5377 31.4721 26.121C30.7186 26.7357 30.7524 27.333 31.1416 27.7612ZM95 52.5525C95 53.05 94.9787 53.5477 94.9235 53.944L94.9092 54.047L94.7958 54.1075C92.9883 55.188 90.6512 55.8027 88.3087 55.8615C88.2502 56.1547 88.0015 58.2785 87.957 58.5715C90.1393 59.19 92.256 60.3877 93.7383 61.9145L93.7968 62.014V62.1152C93.6795 62.938 93.3863 64.0522 93.0558 64.7862L93.0185 64.8965L92.9135 64.9125C90.868 65.5007 88.4527 65.4812 86.2188 64.932C86.1123 65.2075 85.2893 67.1712 85.2075 67.461C87.1608 68.6925 88.8917 70.3896 89.8602 72.2077L89.9137 72.3125L89.8852 72.4138C89.5795 73.1335 89.009 74.1838 88.4937 74.8112L88.4385 74.9036H88.3087C86.2207 74.9196 83.8855 74.3047 81.8505 73.1762C81.664 73.4232 80.3043 75.2128 80.123 75.4474C81.7225 77.1126 82.94 79.2078 83.4323 81.2746L83.466 81.3759L83.402 81.4595C82.9383 82.0921 82.0832 82.931 81.4595 83.4286L81.3867 83.4872L81.2337 83.4641C79.2237 82.931 77.0965 81.7065 75.4455 80.116C75.202 80.3026 73.5155 81.6194 73.2685 81.8131C74.34 83.7787 74.9958 86.0569 74.9958 88.1113V88.3921L74.8785 88.4703C74.2513 88.9733 73.2185 89.565 72.4792 89.8707L72.4065 89.9063L72.2872 89.8547C70.4727 88.8044 68.7418 87.0948 67.5583 85.1133C67.2685 85.2412 65.2123 86.1227 64.9333 86.2471C65.2105 87.3347 65.383 88.4988 65.415 89.6184C65.415 90.7699 65.2123 91.9126 64.9333 92.9505L64.919 93.0589L64.809 93.1176C64.123 93.4055 62.9642 93.6862 62.1572 93.8284L62.0348 93.8444L61.9635 93.7609C60.4085 92.277 59.2107 90.171 58.5852 87.9709C58.308 87.9781 56.1843 88.2748 55.8768 88.3299C55.843 90.6455 55.2085 92.9896 54.1103 94.8041L54.0498 94.8983L53.9288 94.916C53.186 95.028 52.0025 95.028 51.199 94.916L51.1012 94.8983L51.0303 94.8041C49.9605 92.9878 49.3243 90.6455 49.2798 88.3299C48.958 88.3033 46.7152 87.9781 46.4077 87.9709C45.7945 90.1551 44.5915 92.2467 43.072 93.7502L42.9902 93.8284L42.8675 93.8089C42.0413 93.6862 40.941 93.3699 40.2087 93.066L40.1217 93.018L40.0863 92.931C39.7753 91.8949 39.6152 90.7397 39.6152 89.5899C39.6152 88.4401 39.7752 87.3347 40.0632 86.2471C39.777 86.1209 37.8363 85.3354 37.5573 85.211C36.3648 87.2157 34.6356 88.9608 32.8033 89.9738L32.7055 90.0253L32.59 89.9933C31.8365 89.6592 30.8359 89.0888 30.1961 88.6054L30.1161 88.5236V88.305C30.1161 86.224 30.7488 83.935 31.8347 81.9304C31.5912 81.7438 29.7838 80.3683 29.5368 80.1853C27.8804 81.7829 25.7744 82.986 23.7395 83.5103L23.6276 83.5405L23.5174 83.4659C22.8936 82.9612 22.0974 82.1561 21.5909 81.5217L21.5252 81.4079L21.5483 81.2995C22.0992 79.2416 23.313 77.1499 24.9018 75.5203C24.7223 75.275 23.3503 73.4996 23.1566 73.2242C21.1395 74.3669 18.7847 75.0102 16.6983 74.964H16.5845L16.5117 74.8947C16.0247 74.2496 15.44 73.2082 15.129 72.4867L15.0793 72.3729L15.129 72.2823C16.1793 70.4376 17.8996 68.7297 19.8617 67.5445C19.7337 67.2512 18.8949 65.2715 18.7563 64.996C16.5277 65.5522 14.0965 65.5647 12.0562 64.996L11.9531 64.9675L11.8981 64.8752C11.619 64.1875 11.3151 63.0287 11.1943 62.2095L11.1676 62.0797L11.2405 61.9785C12.7209 60.4695 14.8126 59.2807 17.0484 58.6107C17.0235 58.289 16.6965 56.048 16.6574 55.7387C14.3364 55.7087 11.9887 55.1062 10.1671 54.024L10.0746 53.9652L10.0658 53.8337C10.0124 53.466 10 52.9682 10 52.4582C10 51.9482 10.0124 51.4897 10.0658 51.081L10.0746 50.9637L10.1671 50.905C11.9887 49.8352 14.3382 49.206 16.6574 49.1777C16.7125 48.8685 16.9897 46.6877 17.0235 46.3822C14.8145 45.7512 12.7067 44.55 11.2103 43.0412L11.1481 42.9682L11.1676 42.851C11.2671 42.0015 11.5799 40.889 11.8981 40.1852L11.9283 40.0822L12.0402 40.0537C14.052 39.4567 16.4921 39.469 18.7332 40.0252C18.8594 39.7622 19.6715 37.7842 19.8013 37.477C17.825 36.2897 16.0852 34.5782 15.0526 32.739L15.0028 32.62L15.0526 32.515C15.3743 31.7757 15.9607 30.7752 16.421 30.1515L16.4921 30.0555H16.6165C18.735 30.0235 21.0737 30.667 23.082 31.7917C23.2704 31.5572 24.6477 29.7037 24.8272 29.453C23.2313 27.7967 22.0246 25.705 21.5038 23.64L21.4843 23.553L21.5252 23.466C22.0352 22.8207 22.8811 21.9855 23.5049 21.504L23.5991 21.4452L23.6951 21.456C25.7745 21.9872 27.8716 23.2225 29.503 24.813C29.7429 24.6245 31.3726 23.3645 31.6214 23.1832C30.4947 21.2107 29.8638 18.9252 29.8638 16.8797V16.5687L29.9704 16.5065C30.5818 16.0197 31.6214 15.4277 32.359 15.1292L32.4389 15.0707L32.5598 15.1292C34.3814 16.1582 36.0983 17.882 37.2943 19.8617C37.5823 19.757 39.7042 18.824 39.9955 18.7032C39.7165 17.6172 39.5407 16.4692 39.5585 15.3337C39.5585 14.1697 39.7023 13.05 40.0135 12.0192L40.0275 11.8985L40.136 11.863C40.8255 11.5785 41.9665 11.2675 42.7787 11.145L42.8995 11.1325L42.992 11.2052C44.5133 12.6892 45.7165 14.7987 46.3545 17.022C46.6725 16.9935 48.903 16.7092 49.2015 16.6505C49.2495 14.3615 49.875 12.0192 50.9753 10.1995L51.0178 10.107L51.135 10.0732C51.933 9.97548 53.1113 9.97548 53.888 10.0732L53.991 10.107L54.055 10.1995C55.1553 12.0192 55.7968 14.3615 55.7968 16.6327C56.129 16.7092 58.3115 16.9935 58.6225 17.022C59.2712 14.797 60.4707 12.6982 62.001 11.225L62.072 11.145L62.1715 11.1752C63.0015 11.2657 64.1265 11.5785 64.848 11.8985L64.935 11.9305L64.9707 12.0547C65.287 13.0785 65.4345 14.1855 65.4345 15.3355C65.415 16.4817 65.2497 17.6297 64.9707 18.7315C65.2497 18.8487 67.368 19.732 67.6647 19.8617C68.8467 17.882 70.5315 16.1742 72.3727 15.1292L72.4792 15.0707L72.593 15.1292C73.3163 15.4332 74.3382 16.0197 74.9655 16.5172L75.0562 16.5687V16.8567C75.0562 18.9447 74.411 21.2285 73.3183 23.1815C73.558 23.3627 75.3067 24.733 75.5697 24.9392C77.221 23.329 79.318 22.1045 81.3848 21.6L81.4772 21.5447L81.5732 21.6477C82.19 22.1027 83.0322 22.9755 83.5085 23.5992L83.5922 23.697L83.5602 23.8C83.0322 25.8667 81.7883 27.971 80.1943 29.6022C80.3825 29.8582 81.6995 31.598 81.9055 31.8487C83.9653 30.7362 86.2865 30.1107 88.3942 30.1497H88.492L88.5595 30.2367C89.0748 30.898 89.663 31.9055 89.942 32.6092L90.015 32.7372L89.942 32.844C88.8988 34.6637 87.175 36.3627 85.204 37.564C85.3285 37.8572 86.123 39.8352 86.2793 40.1265C88.49 39.5562 90.923 39.542 92.9438 40.1265L93.061 40.1407L93.1055 40.2582C93.3862 40.962 93.7168 42.1027 93.8253 42.938L93.8412 43.0392L93.7543 43.114C92.279 44.6495 90.166 45.8507 87.9535 46.4817C87.9977 46.7892 88.2732 48.9555 88.3285 49.263C90.6582 49.3055 92.9848 49.924 94.792 51.0045L94.9057 51.0632L94.92 51.1805C94.975 51.5767 94.9965 52.0477 94.9965 52.5577M71.189 72.6093L73.4017 74.9942L69.682 73.8977C69.3745 74.1412 69.1685 74.2194 68.9 74.454L72.1257 78.8009C72.4065 78.5912 72.6925 78.3193 72.9485 78.1078L70.9865 75.49L74.7418 76.6203C74.9958 76.3982 75.3637 76.144 75.6195 75.8259L71.8768 71.87C71.6743 72.0815 71.4485 72.3712 71.189 72.6093ZM68.6175 78.9644C68.6175 78.6516 68.5375 78.3619 68.3865 78.0864C67.942 77.2672 66.89 76.9988 66.0673 77.468C65.4913 77.7755 65.198 78.3637 65.198 78.9661C65.2105 79.2416 65.2835 79.5526 65.4488 79.8156C65.4913 79.9027 65.55 79.9916 65.6335 80.0786C66.1435 80.69 67.0535 80.8339 67.7485 80.4305C67.942 80.3257 68.0967 80.2084 68.2175 80.0786C68.4752 79.7659 68.6175 79.3447 68.6175 78.9644ZM69.2253 77.6439C69.4493 78.0278 69.563 78.497 69.5807 78.9661C69.5807 79.3393 69.5007 79.7108 69.3477 80.0591C69.099 80.546 68.733 80.9974 68.2193 81.2924C66.9735 82.0246 65.3492 81.5857 64.5938 80.3061C64.569 80.2244 64.5317 80.1497 64.4837 80.0591C64.3325 79.7108 64.258 79.3393 64.2242 78.9661C64.258 78.0207 64.7182 77.1499 65.5677 76.663C66.8385 75.9468 68.477 76.3697 69.2253 77.6439ZM74.82 70.5265L75.4455 71.5288L76.0213 72.524L76.8033 71.5288L77.0058 71.2746L74.82 70.5265ZM74.2067 69.3037L79.533 71.0614C79.405 71.2178 79.3073 71.3671 79.1953 71.5306C79.0975 71.6479 78.991 71.7651 78.918 71.9233L77.9815 71.5892L76.5312 73.4054L77.061 74.2336C76.844 74.4806 76.606 74.7525 76.327 75.0155L73.439 70.2421L74.2103 69.3055L74.2067 69.3037ZM80.1035 68.5237L76.1955 66.3715L75.6978 67.2672L80.3825 69.8902L82.19 66.6487L81.3848 66.2222L80.1035 68.5237ZM49.1945 79.8174L48.8088 83.0767L47.243 79.5064C46.877 79.4353 46.6495 79.3411 46.2762 79.286L45.0535 84.5446C45.4338 84.6495 45.7945 84.6886 46.1838 84.7525L46.8467 81.5252L48.432 85.1168C48.791 85.1755 49.1945 85.2928 49.6155 85.2803L50.202 79.8458C49.8965 79.8263 49.5267 79.8743 49.1945 79.8174ZM49.0185 20.8055L49.4878 25.1647L50.6305 25.0475L50.1842 20.7237L51.9152 20.61L51.855 19.6397C49.9105 19.757 49.1198 19.8245 47.204 20.1125L47.3338 21.0365L49.0185 20.8055ZM54.318 23.1832C54.901 23.2135 55.4395 23.2705 55.985 23.3592L55.699 22.236L55.3435 21.0935L54.8015 22.236L54.318 23.1832ZM53.4312 25.003C52.987 24.9977 52.7825 24.9977 52.3418 24.9977L53.673 22.2342L54.8742 19.732L56.0685 19.8617L56.6908 22.2342L57.5615 25.4297C57.158 25.3532 56.8435 25.2945 56.4685 25.2785L56.1592 24.2655C55.372 24.1482 54.6557 24.1127 53.9307 24.0807L53.4312 25.003ZM42.3488 23.6737C42.4233 24.6227 43.262 25.3195 44.1738 25.2322C45.073 25.1452 45.7467 24.4307 45.7467 23.5227C45.775 23.48 45.7467 23.4215 45.7467 23.3627C45.672 22.4102 44.8473 21.7402 43.902 21.8345C42.9938 21.8967 42.3148 22.6147 42.3488 23.5227V23.6737ZM41.373 23.768V23.5227C41.3463 22.1455 42.402 21.0152 43.7827 20.898C45.2562 20.7522 46.5622 21.8345 46.6815 23.3042V23.5245C46.6815 24.9 45.6453 26.073 44.2308 26.2045C42.8073 26.3252 41.4973 25.2555 41.373 23.768ZM52.5605 57.6245C55.3418 57.6245 57.6237 55.3407 57.6237 52.5595C57.6237 50.2457 56.0152 48.241 53.8027 47.6847C53.7725 47.4627 53.7155 46.4087 53.7155 46.4087H51.1635C51.1635 46.4087 51.105 47.5515 51.08 47.786C48.9615 48.4295 47.5327 50.363 47.5327 52.5595C47.5327 55.3407 49.8148 57.6245 52.5605 57.6245ZM52.4662 60.1337C48.2737 60.1337 44.858 56.7037 44.858 52.531C44.858 48.3582 48.2737 44.9035 52.4662 44.9035C56.6587 44.9035 60.069 48.33 60.069 52.531C60.069 56.7322 56.6675 60.1337 52.4662 60.1337ZM37.4808 76.7198C38.2078 77.1179 38.9132 77.5266 39.7042 77.9034L40.1805 77.1161C39.0875 76.5457 38.0495 75.8988 37.129 75.2555L34.0971 79.7072C35.2488 80.4678 36.2955 81.1023 37.479 81.7847L37.9625 80.9974L35.5188 79.5508L36.3418 78.401L37.9625 79.3749L38.4352 78.6143C37.918 78.321 37.376 77.9994 36.8055 77.6475L37.4808 76.7198ZM31.4188 70.1213L28.9272 72.2805L30.1979 68.5912C29.9722 68.2712 29.8655 68.0527 29.6327 67.7577L25.1666 70.7895C25.3675 71.0863 25.6145 71.3617 25.826 71.6727L28.5113 69.8102L27.2513 73.5299C27.4663 73.7769 27.6885 74.1536 27.996 74.3953L32.128 70.8606C31.8987 70.6171 31.625 70.3932 31.4206 70.1195M28.4722 65.8365L23.8693 68.5182C24.0363 68.84 24.2176 69.2115 24.4202 69.526L29.0232 66.839C28.7992 66.4285 28.6677 66.217 28.4722 65.8365ZM34.1504 74.1998L31.314 77.5586L30.4361 76.798L33.3649 73.5316C32.901 73.1033 32.5491 72.7212 32.0959 72.3178L32.75 71.6567C33.8678 72.7212 34.8488 73.5316 36.0788 74.5144L35.5117 75.2466C35.062 74.8947 34.6036 74.5517 34.1504 74.1998Z" fill="#E3BE1B"/>
</svg>
