<svg width="22" height="24" viewBox="0 0 22 24" fill="none" xmlns="http://www.w3.org/2000/svg">
<path fill-rule="evenodd" clip-rule="evenodd" d="M2 13C1 13 0 14 0 15V22C0 23 1 24 2 23.9766L20 24C21 23.9766 22 23 22 22V15C22 14 21 13 20 13H2ZM10 20.5C10 21.5 10.5 22 11.5 22C12.5 22 13 21.5 13 20.5V16.5C13 15.5 12.5 15 11.5 15H9.5C8.5 15 8 15.5 8 16.5C8 17.5 8.5 18 9.5 18H10V20.5Z" fill="black"/>
<path d="M14 3C14 3.5 14.5 4 15 4H18C18.5 4 19 3.5 19 3V1C19 0.5 18.5 0 18 0H15C14.5 0 14 0.5 14 1V3Z" fill="black"/>
<path d="M7 4H4C3.5 4 3 3.5 3 3V1C3 0.5 3.5 0 4 0H7C7.5 0 8 0.5 8 1V3C8 3.5 7.5 4 7 4Z" fill="black"/>
<path d="M20 12.0117C21 12.0117 22 11 22 10V7C22 6 21 5 20 5H2C1 5 0 6 0 7V10C0 11 1 12.0117 2 12.0117H20Z" fill="black"/>
</svg>
