<svg width="22" height="24" viewBox="0 0 22 24" fill="none" xmlns="http://www.w3.org/2000/svg">
<path d="M0.00577862 10.7368C-0.00309038 9.97132 0.149719 9.21302 0.453549 8.51488C0.757369 7.81674 1.20489 7.19557 1.76485 6.69474L8.36139 1.01053C9.0959 0.358485 10.0319 0 11 0C11.9681 0 12.9041 0.358485 13.6386 1.01053L20.2351 6.69474C20.7951 7.19557 21.2426 7.81674 21.5465 8.51488C21.8503 9.21302 22.0031 9.97132 21.9942 10.7368V18.9474C22.0555 20.2195 21.6274 21.465 20.8033 22.4117C19.9793 23.3585 18.8264 23.9295 17.5965 24H15.5712C15.2637 23.9824 14.9755 23.8396 14.7694 23.6029C14.5634 23.3662 14.4564 23.0549 14.4717 22.7368V18.9474C14.5024 18.3113 14.2883 17.6886 13.8763 17.2152C13.4643 16.7418 12.8878 16.4563 12.2729 16.4211H9.7271C9.1122 16.4563 8.53571 16.7418 8.12371 17.2152C7.7117 17.6886 7.49763 18.3113 7.52827 18.9474V22.7368C7.54359 23.0549 7.43655 23.3662 7.23055 23.6029C7.02455 23.8396 6.73632 23.9824 6.42885 24H4.40347C3.17358 23.9295 2.02067 23.3585 1.19665 22.4117C0.372639 21.465 -0.0555064 20.2195 0.00577862 18.9474V10.7368Z" fill="black"/>
</svg>
