<svg width="24" height="24" viewBox="0 0 24 24" fill="none" xmlns="http://www.w3.org/2000/svg">
<path d="M9.5 12.5H2C0.89543 12.5 0 13.3954 0 14.5V22C0 23.1046 0.89543 24 2 24H9.5C10.6046 24 11.5 23.1046 11.5 22V14.5C11.5 13.3954 10.6046 12.5 9.5 12.5Z" fill="black"/>
<path d="M22 12.5H14.5C13.3954 12.5 12.5 13.3954 12.5 14.5V22C12.5 23.1046 13.3954 24 14.5 24H22C23.1046 24 24 23.1046 24 22V14.5C24 13.3954 23.1046 12.5 22 12.5Z" fill="black"/>
<path d="M9.5 0H2C0.89543 0 0 0.89543 0 2V9.5C0 10.6046 0.89543 11.5 2 11.5H9.5C10.6046 11.5 11.5 10.6046 11.5 9.5V2C11.5 0.89543 10.6046 0 9.5 0Z" fill="black"/>
<path d="M22 0H14.5C13.3954 0 12.5 0.89543 12.5 2V9.5C12.5 10.6046 13.3954 11.5 14.5 11.5H22C23.1046 11.5 24 10.6046 24 9.5V2C24 0.89543 23.1046 0 22 0Z" fill="black"/>
</svg>
