<svg width="24" height="23" viewBox="0 0 24 23" fill="none" xmlns="http://www.w3.org/2000/svg">
<path d="M20 0C22 0 24 2 24 4V15C24 17 22 19 20 19H14L7.8168 22.8274C7.64471 22.9316 7.44946 22.9906 7.24893 22.999C7.0484 23.0073 6.84899 22.9648 6.66895 22.8753C6.48891 22.7859 6.334 22.6523 6.21839 22.4867C6.10278 22.3212 6.03017 22.1291 6.0072 21.928L6 21.79V19H4C2 19 0 17 0 15V4C0 2.15011 2 0 4 0H20ZM13.5 11H7.5C6.5 11 6 11.5 6 12.5C6 13.5 6.5 14 7.5 14H13.5C14.5 14 15 13.5 15 12.5C15 11.5 14.5 11 13.5 11ZM16.5 5H7.5C6.5 5 6 5.5 6 6.5C6 7.5 6.5 8 7.5 8H16.5C17.5 8 18 7.5 18 6.5C18 5.5 17.5 5 16.5 5Z" fill="black"/>
</svg>
