<svg width="26" height="21" viewBox="0 0 26 21" fill="none" xmlns="http://www.w3.org/2000/svg">
<path d="M4.4933 13.6765C-0.164646 13.6765 -0.164301 4.23736 4.49355 4.23736L10.3163 4.23736C10.3163 4.23736 11.481 4.23736 12.6456 3.64576L17.3038 1.27937C19.0506 0.0961691 19.0506 3.05416 19.0506 3.05416V6.60375V12.5197V14.8861C19.0506 14.8861 19.0506 17.8441 17.3038 16.6609L12.6456 14.2945C11.481 13.7029 10.3163 13.7028 10.3163 13.7028L9.34486 13.6991V18.4401C9.34461 20.2174 6.82278 21.1141 5.65823 17.5653L4.4933 13.6765Z" fill="black"/>
<path d="M22 6.60375C25.4937 6.60375 25.4937 12.52 22 12.52C22 12.52 21.3797 12.5197 21.3797 11V8C21.3797 6.60375 22 6.60375 22 6.60375Z" fill="black"/>
<path d="M4.4933 13.6765C-0.164646 13.6765 -0.164301 4.23736 4.49355 4.23736L10.3163 4.23736M4.4933 13.6765L5.65823 17.5653C6.82278 21.1141 9.34462 20.2174 9.34486 18.4401V13.6991L10.3163 13.7028M4.4933 13.6765L10.3163 13.7028M10.3163 13.7028C10.3163 13.7028 11.481 13.7029 12.6456 14.2945L17.3038 16.6609C19.0506 17.8441 19.0506 14.8861 19.0506 14.8861V12.5197V6.60375V3.05416C19.0506 3.05416 19.0506 0.0961696 17.3038 1.27937L12.6456 3.64576C11.481 4.23736 10.3163 4.23736 10.3163 4.23736M10.3163 13.7028L10.3163 4.23736M22 6.60375C25.4937 6.60375 25.4937 12.52 22 12.52C22 12.52 21.3797 12.5197 21.3797 11V8C21.3797 6.60375 22 6.60375 22 6.60375Z" stroke="black"/>
</svg>
