<svg width="32" height="39" viewBox="0 0 32 39" fill="none" xmlns="http://www.w3.org/2000/svg">
<g clip-path="url(#clip0_14483_45365)">
<path d="M30.09 8.37H22.64V7.09C22.64 3.18 19.46 0 15.55 0C11.64 0 8.46 3.18 8.46 7.09V8.37H1C0.45 8.37 0 8.82 0 9.37V37.35C0 37.9 0.45 38.35 1 38.35H30.1C30.65 38.35 31.1 37.9 31.1 37.35V9.37C31.1 8.82 30.65 8.37 30.1 8.37H30.09ZM15.55 1.99C18.36 1.99 20.65 4.28 20.65 7.09V8.37H10.45V7.09C10.45 4.28 12.74 1.99 15.55 1.99ZM9.45 13.35C10 13.35 10.45 12.9 10.45 12.35V10.36H20.65V12.35C20.65 12.9 21.1 13.35 21.65 13.35C22.2 13.35 22.65 12.9 22.65 12.35V10.36H29.11V36.34H1.99V10.37H8.45V12.36C8.45 12.91 8.9 13.36 9.45 13.36V13.35Z" fill="white"/>
<path d="M9.15625 24.7201H14.5463V30.1101C14.5463 30.6601 14.9963 31.1101 15.5463 31.1101C16.0963 31.1101 16.5462 30.6601 16.5462 30.1101V24.7201H21.9363C22.4863 24.7201 22.9363 24.2701 22.9363 23.7201C22.9363 23.1701 22.4863 22.7201 21.9363 22.7201H16.5462V17.3301C16.5462 16.7801 16.0963 16.3301 15.5463 16.3301C14.9963 16.3301 14.5463 16.7801 14.5463 17.3301V22.7201H9.15625C8.60625 22.7201 8.15625 23.1701 8.15625 23.7201C8.15625 24.2701 8.60625 24.7201 9.15625 24.7201Z" fill="white"/>
</g>
<defs>
<clipPath id="clip0_14483_45365">
<rect width="31.09" height="38.34" fill="white"/>
</clipPath>
</defs>
</svg>
