<svg width="30" height="30" viewBox="0 0 30 30" fill="none" xmlns="http://www.w3.org/2000/svg">
<g clip-path="url(#clip0_14483_45468)">
<path d="M29.7632 24.1002L24.9566 19.3349V0.782473C24.9566 0.352113 24.6014 0 24.1673 0H0.789266C0.35517 0 0 0.352113 0 0.782473V29.2254C0 29.6557 0.35517 30.0078 0.789266 30.0078H24.1752C24.6093 30.0078 24.9645 29.6557 24.9645 29.2254V28.9437C25.1066 29.0689 25.2802 29.1393 25.4775 29.1393C25.6906 29.1393 25.8879 29.061 26.03 28.9124L29.7711 25.2034C29.9211 25.0548 30 24.8592 30 24.6479C30 24.4366 29.9211 24.241 29.7711 24.1002H29.7632ZM15.6354 17.5039L18.2636 14.8983L28.0979 24.6479L25.4696 27.2535L15.6354 17.5039ZM23.386 17.7778L18.8161 13.2473C18.8161 13.2473 18.7687 13.2238 18.753 13.2003C18.7135 13.169 18.674 13.1377 18.6267 13.1142C18.5793 13.0908 18.532 13.0751 18.4846 13.0595C18.4609 13.0595 18.4373 13.036 18.4136 13.0282L13.7806 12.144C13.5201 12.097 13.2597 12.1753 13.0781 12.3552C12.8966 12.5352 12.8098 12.8013 12.865 13.0516L13.7569 17.6448C13.7569 17.6448 13.7806 17.6995 13.7885 17.723C13.8043 17.7621 13.8122 17.8013 13.8358 17.8404C13.8595 17.8951 13.899 17.9421 13.9305 17.9812C13.9463 18.0047 13.9542 18.0282 13.97 18.0438L23.3938 27.3865V28.4351H1.57064V1.55712H23.386V17.77V17.7778ZM14.6172 13.8967L16.6535 14.288L15.0118 15.9155L14.6172 13.8967Z" fill="white"/>
<path d="M5.40645 6.56495H19.558C19.9921 6.56495 20.3473 6.21283 20.3473 5.78247C20.3473 5.35211 19.9921 5 19.558 5H5.40645C4.97236 5 4.61719 5.35211 4.61719 5.78247C4.61719 6.21283 4.97236 6.56495 5.40645 6.56495Z" fill="white"/>
<path d="M5.40645 11.1738H19.558C19.9921 11.1738 20.3473 10.8217 20.3473 10.3914C20.3473 9.961 19.9921 9.60889 19.558 9.60889H5.40645C4.97236 9.60889 4.61719 9.961 4.61719 10.3914C4.61719 10.8217 4.97236 11.1738 5.40645 11.1738Z" fill="white"/>
<path d="M5.40645 15.7822H10.7971C11.2312 15.7822 11.5864 15.4301 11.5864 14.9998C11.5864 14.5694 11.2312 14.2173 10.7971 14.2173H5.40645C4.97236 14.2173 4.61719 14.5694 4.61719 14.9998C4.61719 15.4301 4.97236 15.7822 5.40645 15.7822Z" fill="white"/>
<path d="M5.40645 20.3911H12.4862C12.9203 20.3911 13.2754 20.039 13.2754 19.6086C13.2754 19.1783 12.9203 18.8262 12.4862 18.8262H5.40645C4.97236 18.8262 4.61719 19.1783 4.61719 19.6086C4.61719 20.039 4.97236 20.3911 5.40645 20.3911Z" fill="white"/>
<path d="M5.40645 24.9922H16.9534C17.3875 24.9922 17.7427 24.6401 17.7427 24.2097C17.7427 23.7794 17.3875 23.4272 16.9534 23.4272H5.40645C4.97236 23.4272 4.61719 23.7794 4.61719 24.2097C4.61719 24.6401 4.97236 24.9922 5.40645 24.9922Z" fill="white"/>
</g>
<defs>
<clipPath id="clip0_14483_45468">
<rect width="30" height="30" fill="white"/>
</clipPath>
</defs>
</svg>
