<svg width="36" height="44" viewBox="0 0 36 44" fill="none" xmlns="http://www.w3.org/2000/svg">
<g clip-path="url(#clip0_14483_45255)">
<path d="M30.6191 29.5397H5.22906C4.98906 29.5397 4.78906 29.3397 4.78906 29.0997V14.0597C4.78906 9.02969 8.87906 4.92969 13.9191 4.92969H21.9391C26.9691 4.92969 31.0691 9.01969 31.0691 14.0597V29.0997C31.0691 29.3397 30.8691 29.5397 30.6291 29.5397H30.6191ZM5.66906 28.6597H30.1791V14.0597C30.1791 9.50969 26.4791 5.81969 21.9391 5.81969H13.9191C9.36906 5.81969 5.67906 9.51969 5.67906 14.0597V28.6597H5.66906Z" fill="white"/>
<path d="M30.6213 30.0499H5.23125C4.71125 30.0499 4.28125 29.6199 4.28125 29.0999V14.0599C4.28125 8.74992 8.60125 4.41992 13.9212 4.41992H21.9412C27.2512 4.41992 31.5812 8.73992 31.5812 14.0599V29.0999C31.5812 29.6199 31.1512 30.0499 30.6312 30.0499H30.6213ZM6.18125 28.1499H29.6712V14.0599C29.6712 9.79992 26.2013 6.32992 21.9412 6.32992H13.9212C9.65125 6.32992 6.19125 9.79992 6.19125 14.0599V28.1499H6.18125Z" fill="white"/>
<path d="M34.903 36.4599H0.953046C0.793046 36.4599 0.643046 36.3699 0.563046 36.2299C0.483046 36.0899 0.493046 35.9199 0.573046 35.7799L4.85305 28.8599C4.93305 28.7299 5.07305 28.6499 5.23305 28.6499H30.623C30.773 28.6499 30.923 28.7299 31.003 28.8599L35.283 35.7799C35.363 35.9199 35.3731 36.0899 35.293 36.2299C35.213 36.3699 35.063 36.4599 34.903 36.4599ZM1.74305 35.5799H34.113L30.383 29.5499H5.48305L1.75305 35.5799H1.74305Z" fill="white"/>
<path d="M34.9015 36.9601H0.951491C0.611491 36.9601 0.291491 36.7701 0.121491 36.4701C-0.048509 36.1701 -0.038509 35.8001 0.141491 35.5101L4.42149 28.5901C4.59149 28.3101 4.90149 28.1401 5.23149 28.1401H30.6215C30.9515 28.1401 31.2515 28.3101 31.4315 28.5901L35.7115 35.5101C35.8915 35.8001 35.9015 36.1701 35.7315 36.4701C35.5615 36.7701 35.2415 36.9601 34.9015 36.9601ZM2.65149 35.0601H33.1915L30.0915 30.0401H5.76149L2.66149 35.0601H2.65149Z" fill="white"/>
<path d="M17.9328 42.5901C15.5628 42.5901 13.6328 40.6601 13.6328 38.2901C13.6328 38.0501 13.8328 37.8501 14.0728 37.8501C14.3128 37.8501 14.5128 38.0501 14.5128 38.2901C14.5128 40.1701 16.0428 41.7001 17.9228 41.7001C19.8028 41.7001 21.3328 40.1701 21.3328 38.2901C21.3328 38.0501 21.5328 37.8501 21.7728 37.8501C22.0128 37.8501 22.2128 38.0501 22.2128 38.2901C22.2128 40.6601 20.2828 42.5901 17.9128 42.5901H17.9328Z" fill="white"/>
<path d="M17.9328 43.1001C15.2828 43.1001 13.1328 40.9401 13.1328 38.3001C13.1328 37.7801 13.5628 37.3501 14.0828 37.3501C14.6028 37.3501 15.0328 37.7801 15.0328 38.3001C15.0328 39.9001 16.3328 41.2001 17.9328 41.2001C19.5328 41.2001 20.8328 39.9001 20.8328 38.3001C20.8328 37.7801 21.2628 37.3501 21.7828 37.3501C22.3028 37.3501 22.7328 37.7801 22.7328 38.3001C22.7328 40.9501 20.5728 43.1001 17.9228 43.1001H17.9328Z" fill="white"/>
<path d="M17.9244 5.80977C17.6844 5.80977 17.4844 5.60977 17.4844 5.36977V0.949766C17.4844 0.709766 17.6844 0.509766 17.9244 0.509766C18.1644 0.509766 18.3644 0.709766 18.3644 0.949766V5.36977C18.3644 5.60977 18.1644 5.80977 17.9244 5.80977Z" fill="white"/>
<path d="M17.9266 6.32C17.4066 6.32 16.9766 5.89 16.9766 5.37V0.95C16.9766 0.43 17.4066 0 17.9266 0C18.4466 0 18.8766 0.43 18.8766 0.95V5.37C18.8766 5.89 18.4466 6.32 17.9266 6.32Z" fill="white"/>
</g>
<defs>
<clipPath id="clip0_14483_45255">
<rect width="35.85" height="43.1" fill="white"/>
</clipPath>
</defs>
</svg>
