<svg width="28" height="35" viewBox="0 0 28 35" fill="none" xmlns="http://www.w3.org/2000/svg">
<g clip-path="url(#clip0_15005_45221)">
<path d="M14.0035 7.37677C12.8144 7.37677 11.6603 7.52169 10.5551 7.79771V5.18237C10.5551 5.12027 10.5481 5.06506 10.5341 5.00296C10.3173 2.12539 8.04397 0 5.27404 0C2.50412 0 0.237822 2.12539 0.0209843 5.00296C0.00699475 5.06506 0 14.8295 0 14.8295V21.1849C0 21.2332 0 21.2746 0 21.316C0.0699475 28.8791 6.30927 34.9931 13.9965 34.9931C21.6837 34.9931 28 28.8101 28 21.178C28 13.5459 21.7327 7.37677 14.0035 7.37677ZM14.0035 32.8815C7.45641 32.8815 2.15438 27.6508 2.15438 21.1918V5.27898C2.15438 3.56073 3.55334 2.1668 5.28104 2.1668C7.00874 2.1668 8.40769 3.56073 8.40769 5.27898V21.0469C8.40769 24.1039 10.9048 26.7192 14.0035 26.7192C17.1022 26.7192 19.6133 24.2419 19.6133 21.1849C19.6133 18.128 17.1022 15.6506 14.0035 15.6506C12.7025 15.6506 11.5064 16.0854 10.5551 16.8237V14.4568C11.5903 13.9393 12.7584 13.6494 14.0035 13.6494C18.2283 13.6494 21.6558 17.0239 21.6558 21.1918C21.6558 25.3598 18.2283 28.7411 14.0035 28.7411C9.77867 28.7411 6.35124 25.3598 6.35124 21.1918V5.18237C6.35124 4.66483 5.8686 4.16798 5.27404 4.16798C4.67949 4.16798 4.19685 4.65793 4.19685 5.18237V21.1918C4.19685 21.4334 4.21084 21.6749 4.22483 21.9164C4.59555 26.9194 8.82738 30.8596 13.9965 30.8596C19.1656 30.8596 23.7962 26.5329 23.7962 21.1918C23.7962 15.8507 19.4104 11.5241 13.9965 11.5241C12.7794 11.5241 11.6183 11.7449 10.5481 12.1382V10.0059C11.6393 9.68159 12.7934 9.50217 13.9965 9.50217C20.5436 9.50217 25.8456 14.7328 25.8456 21.1918C25.8456 27.6508 20.5436 32.8815 13.9965 32.8815H14.0035ZM10.5551 21.1918C10.5551 19.3149 12.1009 17.7898 14.0035 17.7898C15.9061 17.7898 17.4519 19.3149 17.4519 21.1918C17.4519 23.0688 15.9061 24.5938 14.0035 24.5938C12.1009 24.5938 10.5551 23.0688 10.5551 21.1918Z" fill="white"/>
</g>
<defs>
<clipPath id="clip0_15005_45221">
<rect width="28" height="34.9931" fill="white"/>
</clipPath>
</defs>
</svg>
