<svg width="35" height="35" viewBox="0 0 35 35" fill="none" xmlns="http://www.w3.org/2000/svg">
<g clip-path="url(#clip0_14483_45486)">
<path d="M23.37 15.07C24.68 12.28 23.48 8.81 20.71 7.33C19.15 6.5 17.19 6.35 15.34 6.92C13.49 7.49 11.95 8.73 11.11 10.32C10.81 10.89 11.03 11.6 11.6 11.9C12.17 12.2 12.88 11.98 13.18 11.41C13.73 10.36 14.77 9.54 16.03 9.15C17.29 8.76 18.6 8.85 19.61 9.39C21.28 10.28 22.03 12.42 21.26 14.08C20.74 15.19 19.85 15.75 18.72 16.45C18.37 16.67 18.01 16.9 17.64 17.14C15.84 18.38 15.88 20.31 15.92 21.4L15.89 22.26C15.86 22.9 16.37 23.45 17.01 23.47C17.03 23.47 17.04 23.47 17.06 23.47C17.68 23.47 18.2 22.98 18.23 22.35L18.27 21.45C18.27 21.45 18.27 21.37 18.27 21.34C18.23 20.29 18.26 19.56 18.97 19.07C19.3 18.84 19.63 18.63 19.96 18.43C21.24 17.63 22.57 16.8 23.38 15.07H23.37ZM15.88 27.11C15.88 27.76 16.41 28.29 17.06 28.29C17.71 28.29 18.24 27.75 18.24 27.11C18.24 26.47 17.71 25.93 17.06 25.93C16.41 25.93 15.88 26.47 15.88 27.11ZM34.87 17.43C34.87 7.82 27.05 0 17.43 0C7.81 0 0 7.82 0 17.43C0 27.04 7.82 34.86 17.43 34.86C27.04 34.86 34.86 27.04 34.86 17.43H34.87ZM32.53 17.43C32.53 25.75 25.76 32.53 17.44 32.53C9.12 32.53 2.34 25.76 2.34 17.43C2.34 9.11 9.11 2.33 17.44 2.33C25.77 2.33 32.53 9.1 32.53 17.43Z" fill="white"/>
</g>
<defs>
<clipPath id="clip0_14483_45486">
<rect width="34.87" height="34.87" fill="white"/>
</clipPath>
</defs>
</svg>
