<svg width="37" height="35" viewBox="0 0 37 35" fill="none" xmlns="http://www.w3.org/2000/svg">
<g clip-path="url(#clip0_14483_45269)">
<path d="M33.7 34.0501H2.74C1.37 34.0501 0.25 32.9301 0.25 31.5601V6.57008C0.25 5.20008 1.37 4.08008 2.74 4.08008H33.7C35.07 4.08008 36.19 5.20008 36.19 6.57008V31.5701C36.19 32.9401 35.07 34.0601 33.7 34.0601V34.0501ZM2.74 5.21008C1.99 5.21008 1.38 5.82008 1.38 6.57008V31.5701C1.38 32.3201 1.99 32.9301 2.74 32.9301H33.7C34.45 32.9301 35.06 32.3201 35.06 31.5701V6.57008C35.06 5.82008 34.45 5.21008 33.7 5.21008H2.74Z" fill="white"/>
<path d="M33.7 34.3101H2.74C1.23 34.3101 0 33.0801 0 31.5701V6.57008C0 5.06008 1.23 3.83008 2.74 3.83008H33.7C35.21 3.83008 36.44 5.06008 36.44 6.57008V31.5701C36.44 33.0801 35.21 34.3101 33.7 34.3101ZM2.74 4.33008C1.51 4.33008 0.51 5.33008 0.51 6.56008V31.5601C0.51 32.7901 1.51 33.7901 2.74 33.7901H33.7C34.93 33.7901 35.93 32.7901 35.93 31.5601V6.57008C35.93 5.34008 34.93 4.34008 33.7 4.34008H2.74V4.33008ZM33.7 33.1701H2.74C1.85 33.1701 1.13 32.4501 1.13 31.5601V6.57008C1.13 5.68008 1.85 4.96008 2.74 4.96008H33.7C34.59 4.96008 35.31 5.68008 35.31 6.57008V31.5701C35.31 32.4601 34.59 33.1801 33.7 33.1801V33.1701ZM2.74 5.46008C2.13 5.46008 1.64 5.95008 1.64 6.56008V31.5601C1.64 32.1701 2.13 32.6601 2.74 32.6601H33.7C34.31 32.6601 34.8 32.1701 34.8 31.5601V6.57008C34.8 5.96008 34.31 5.47008 33.7 5.47008H2.74V5.46008Z" fill="white"/>
<path d="M27.5934 7.85986C27.2834 7.85986 27.0234 7.60986 27.0234 7.28986V1.17986C27.0234 0.869863 27.2734 0.609863 27.5934 0.609863C27.9134 0.609863 28.1634 0.859863 28.1634 1.17986V7.29986C28.1634 7.60986 27.9134 7.86986 27.5934 7.86986V7.85986Z" fill="white"/>
<path d="M27.5934 8.11986C27.1434 8.11986 26.7734 7.74986 26.7734 7.29986V1.17986C26.7734 0.729863 27.1434 0.359863 27.5934 0.359863C28.0434 0.359863 28.4134 0.729863 28.4134 1.17986V7.29986C28.4134 7.74986 28.0434 8.11986 27.5934 8.11986ZM27.5934 0.869863C27.4234 0.869863 27.2834 1.00986 27.2834 1.17986V7.29986C27.2834 7.46986 27.4234 7.60986 27.5934 7.60986C27.7634 7.60986 27.9034 7.46986 27.9034 7.29986V1.17986C27.9034 1.00986 27.7634 0.869863 27.5934 0.869863Z" fill="white"/>
<path d="M8.85125 7.5C8.54125 7.5 8.28125 7.25 8.28125 6.93V0.82C8.28125 0.51 8.53125 0.25 8.85125 0.25C9.17125 0.25 9.42125 0.5 9.42125 0.82V6.94C9.42125 7.25 9.17125 7.51 8.85125 7.51V7.5Z" fill="white"/>
<path d="M8.85125 7.76C8.40125 7.76 8.03125 7.39 8.03125 6.94V0.82C8.03125 0.37 8.40125 0 8.85125 0C9.30125 0 9.67125 0.37 9.67125 0.82V6.94C9.67125 7.39 9.30125 7.76 8.85125 7.76ZM8.85125 0.51C8.68125 0.51 8.54125 0.65 8.54125 0.82V6.94C8.54125 7.11 8.68125 7.25 8.85125 7.25C9.02125 7.25 9.16125 7.11 9.16125 6.94V0.82C9.16125 0.65 9.02125 0.51 8.85125 0.51Z" fill="white"/>
<path d="M35.62 11.1698H0.82C0.51 11.1698 0.25 10.9198 0.25 10.5998C0.25 10.2798 0.5 10.0298 0.82 10.0298H35.62C35.93 10.0298 36.19 10.2798 36.19 10.5998C36.19 10.9198 35.94 11.1698 35.62 11.1698Z" fill="white"/>
<path d="M35.62 11.4198H0.82C0.37 11.4198 0 11.0498 0 10.5998C0 10.1498 0.37 9.77979 0.82 9.77979H35.62C36.07 9.77979 36.44 10.1498 36.44 10.5998C36.44 11.0498 36.07 11.4198 35.62 11.4198ZM0.82 10.2898C0.65 10.2898 0.51 10.4298 0.51 10.5998C0.51 10.7698 0.65 10.9098 0.82 10.9098H35.62C35.79 10.9098 35.93 10.7698 35.93 10.5998C35.93 10.4298 35.79 10.2898 35.62 10.2898H0.82Z" fill="white"/>
<path d="M16.4891 27.6803H10.7191C10.4791 27.6803 10.2691 27.5303 10.1891 27.3103C10.1091 27.0903 10.1791 26.8403 10.3591 26.6803C11.8291 25.4603 15.5991 21.7603 15.3491 19.3403C15.3491 19.3203 15.1291 17.4103 13.5291 17.4103C12.1191 17.4103 11.2691 18.4203 11.2391 18.4603C11.0391 18.7003 10.6891 18.7403 10.4491 18.5403C10.2091 18.3403 10.1691 17.9903 10.3691 17.7503C10.4191 17.6903 11.5791 16.2803 13.5391 16.2803C15.6291 16.2803 16.3791 18.2003 16.4891 19.2203C16.7591 21.7903 13.8691 24.9603 12.2091 26.5403H16.5091C16.8191 26.5403 17.0791 26.7903 17.0791 27.1103C17.0791 27.4303 16.8291 27.6803 16.5091 27.6803H16.4891Z" fill="white"/>
<path d="M16.4886 27.93H10.7186C10.3786 27.93 10.0686 27.71 9.94859 27.39C9.82859 27.07 9.92859 26.7 10.1986 26.48C12.2086 24.82 15.3086 21.41 15.0986 19.37C15.0986 19.3 14.8886 17.67 13.5286 17.67C12.1686 17.67 11.4586 18.59 11.4286 18.63C11.1386 18.98 10.6286 19.03 10.2786 18.75C9.92859 18.47 9.87859 17.95 10.1586 17.6C10.2086 17.54 11.4386 16.04 13.5286 16.04C15.7986 16.04 16.6086 18.11 16.7286 19.21C16.9886 21.66 14.5686 24.56 12.8186 26.31H16.4986C16.9486 26.31 17.3186 26.68 17.3186 27.13C17.3186 27.58 16.9486 27.95 16.4986 27.95L16.4886 27.93ZM13.5286 17.16C15.3586 17.16 15.5986 19.29 15.5986 19.32C15.9186 22.37 10.5686 26.83 10.5186 26.88C10.4186 26.96 10.3786 27.1 10.4286 27.23C10.4686 27.35 10.5886 27.44 10.7186 27.44H16.4886C16.6586 27.44 16.7986 27.3 16.7986 27.13C16.7986 26.96 16.6586 26.82 16.4886 26.82H11.5586L12.0186 26.38C13.6986 24.77 16.4786 21.71 16.2286 19.27C16.1286 18.33 15.4386 16.56 13.5386 16.56C11.6386 16.56 10.6086 17.88 10.5586 17.93C10.4486 18.06 10.4686 18.26 10.6086 18.37C10.7386 18.48 10.9386 18.46 11.0486 18.33C11.0886 18.28 12.0086 17.19 13.5386 17.19L13.5286 17.16Z" fill="white"/>
<path d="M24.0309 27.68C23.7209 27.68 23.4609 27.43 23.4609 27.11V16.84C23.4609 16.53 23.7109 16.27 24.0309 16.27C24.3509 16.27 24.6009 16.52 24.6009 16.84V27.11C24.6009 27.42 24.3509 27.68 24.0309 27.68Z" fill="white"/>
<path d="M24.0309 27.93C23.5809 27.93 23.2109 27.56 23.2109 27.11V16.84C23.2109 16.39 23.5809 16.02 24.0309 16.02C24.4809 16.02 24.8509 16.39 24.8509 16.84V27.11C24.8509 27.56 24.4809 27.93 24.0309 27.93ZM24.0309 16.53C23.8609 16.53 23.7209 16.67 23.7209 16.84V27.11C23.7209 27.28 23.8609 27.42 24.0309 27.42C24.2009 27.42 24.3409 27.28 24.3409 27.11V16.84C24.3409 16.67 24.2009 16.53 24.0309 16.53Z" fill="white"/>
<path d="M18.9156 24.5302C18.8056 24.5302 18.6856 24.5002 18.5856 24.4202C18.3356 24.2402 18.2756 23.8802 18.4556 23.6302L23.5656 16.5202C23.7456 16.2702 24.1056 16.2102 24.3556 16.3902C24.6056 16.5702 24.6656 16.9302 24.4856 17.1802L19.3756 24.2902C19.2656 24.4402 19.0956 24.5302 18.9156 24.5302Z" fill="white"/>
<path d="M18.9161 24.78C18.7461 24.78 18.5761 24.73 18.4361 24.63C18.2561 24.5 18.1361 24.31 18.1061 24.1C18.0661 23.88 18.1261 23.67 18.2461 23.49L23.3561 16.38C23.4861 16.2 23.6761 16.08 23.8861 16.05C24.1061 16.02 24.3161 16.07 24.4961 16.19C24.8661 16.45 24.9461 16.97 24.6861 17.33L19.5761 24.44C19.4261 24.65 19.1761 24.78 18.9061 24.78H18.9161ZM24.0261 16.54C24.0261 16.54 23.9961 16.54 23.9761 16.54C23.8961 16.55 23.8261 16.6 23.7761 16.67L18.6661 23.78C18.6161 23.85 18.5961 23.93 18.6161 24.01C18.6261 24.09 18.6761 24.16 18.7461 24.21C18.8861 24.31 19.0861 24.27 19.1761 24.14L24.2861 17.03C24.3361 16.96 24.3561 16.88 24.3361 16.8C24.3261 16.72 24.2761 16.65 24.2061 16.6C24.1561 16.56 24.0861 16.54 24.0261 16.54Z" fill="white"/>
<path d="M25.7216 24.5301H18.9216C18.6116 24.5301 18.3516 24.2801 18.3516 23.9601C18.3516 23.6401 18.6016 23.3901 18.9216 23.3901H25.7216C26.0316 23.3901 26.2916 23.6401 26.2916 23.9601C26.2916 24.2801 26.0416 24.5301 25.7216 24.5301Z" fill="white"/>
<path d="M25.7216 24.7801H18.9216C18.4716 24.7801 18.1016 24.4101 18.1016 23.9601C18.1016 23.5101 18.4716 23.1401 18.9216 23.1401H25.7216C26.1716 23.1401 26.5416 23.5101 26.5416 23.9601C26.5416 24.4101 26.1716 24.7801 25.7216 24.7801ZM18.9216 23.6501C18.7516 23.6501 18.6116 23.7901 18.6116 23.9601C18.6116 24.1301 18.7516 24.2701 18.9216 24.2701H25.7216C25.8916 24.2701 26.0316 24.1301 26.0316 23.9601C26.0316 23.7901 25.8916 23.6501 25.7216 23.6501H18.9216Z" fill="white"/>
</g>
<defs>
<clipPath id="clip0_14483_45269">
<rect width="36.44" height="34.31" fill="white"/>
</clipPath>
</defs>
</svg>
