<svg width="43" height="31" viewBox="0 0 43 31" fill="none" xmlns="http://www.w3.org/2000/svg">
<g clip-path="url(#clip0_14483_45297)">
<path d="M42.44 29.54V1.18C42.44 0.53 41.91 0 41.25 0H1.18C0.53 0 0 0.53 0 1.18V29.53C0 30.18 0.53 30.71 1.18 30.71H41.25C41.9 30.71 42.43 30.18 42.43 29.53L42.44 29.54ZM40.07 28.36H2.37V2.37H40.08V28.36H40.07ZM13.43 22.21C12.93 22.63 12.87 23.38 13.3 23.88C13.53 24.15 13.87 24.29 14.2 24.29C14.47 24.29 14.74 24.2 14.97 24.01L29.54 11.57L37.8 20.81C38.24 21.3 38.98 21.34 39.47 20.9C39.96 20.46 40 19.72 39.56 19.23L30.53 9.12C30.1 8.64 29.37 8.59 28.88 9.01L13.44 22.2L13.43 22.21ZM3.24 20.39C3.47 20.72 3.84 20.89 4.21 20.89C4.44 20.89 4.68 20.82 4.89 20.68L11.19 16.26L14.91 19.58C15.4 20.01 16.14 19.97 16.58 19.48C17.01 18.99 16.97 18.24 16.48 17.81L12.06 13.87C11.65 13.5 11.04 13.47 10.59 13.79L3.52 18.74C2.99 19.12 2.86 19.85 3.23 20.39H3.24Z" fill="white"/>
</g>
<defs>
<clipPath id="clip0_14483_45297">
<rect width="42.44" height="30.72" fill="white"/>
</clipPath>
</defs>
</svg>
