<svg width="27" height="31" viewBox="0 0 27 31" fill="none" xmlns="http://www.w3.org/2000/svg">
<g clip-path="url(#clip0_14483_45351)">
<path d="M5.32681 20.7306C5.32681 21.2496 5.7497 21.6649 6.27831 21.6649H20.7298C21.2584 21.6649 21.6813 21.2496 21.6813 20.7306C21.6813 20.2115 21.2584 19.7962 20.7298 19.7962H6.27831C5.7497 19.7962 5.32681 20.2115 5.32681 20.7306ZM5.32681 16.0031C5.32681 16.5222 5.7497 16.9374 6.27831 16.9374H20.7298C21.2584 16.9374 21.6813 16.5222 21.6813 16.0031C21.6813 15.484 21.2584 15.0688 20.7298 15.0688H6.27831C5.7497 15.0688 5.32681 15.484 5.32681 16.0031ZM5.32681 6.54019C5.32681 7.05925 5.7497 7.4745 6.27831 7.4745H20.7298C21.2584 7.4745 21.6813 7.05925 21.6813 6.54019C21.6813 6.02112 21.2584 5.60587 20.7298 5.60587H6.27831C5.7497 5.60587 5.32681 6.02112 5.32681 6.54019ZM5.32681 11.2676C5.32681 11.7867 5.7497 12.202 6.27831 12.202H20.7298C21.2584 12.202 21.6813 11.7867 21.6813 11.2676C21.6813 10.7486 21.2584 10.3333 20.7298 10.3333H6.27831C5.7497 10.3333 5.32681 10.7486 5.32681 11.2676ZM27.0081 30.0657V0.934312C27 0.41525 26.5771 0 26.0566 0H0.951506C0.422892 0 0 0.41525 0 0.934312V30.0657C0 30.5848 0.422892 31 0.951506 31H26.0566C26.5852 31 27.0081 30.5848 27.0081 30.0657ZM25.1051 29.1314H1.90301V1.86862H25.1051V29.1314Z" fill="white"/>
</g>
<defs>
<clipPath id="clip0_14483_45351">
<rect width="27" height="31" fill="white"/>
</clipPath>
</defs>
</svg>
