<svg width="35" height="50" viewBox="0 0 35 50" fill="none" xmlns="http://www.w3.org/2000/svg">
<g clip-path="url(#clip0_14485_45224)">
<path d="M3.5957 48V40.9297H5.06055V44.0645H5.1582L7.72656 40.9297H9.49414L6.85742 44.0938L9.52344 48H7.76562L5.80273 45.0801L5.06055 45.9785V48H3.5957ZM13.0391 43.8887V45.041H9.81641V43.8887H13.0391ZM15.4512 48H13.8691L16.3203 40.9297H18.2051L20.6465 48H19.0742L18.5469 46.3691H15.9883L15.4512 48ZM16.3594 45.2266H18.1758L17.2871 42.5215H17.2383L16.3594 45.2266ZM21.4473 48V40.9297H24.2207C25.832 40.9297 26.75 41.916 26.75 43.3125C26.75 44.7285 25.8125 45.6953 24.1816 45.6953H22.9121V48H21.4473ZM22.9121 44.5137H23.9473C24.8164 44.5137 25.2363 44.0254 25.2363 43.3125C25.2363 42.6094 24.8164 42.1309 23.9473 42.1309H22.9121V44.5137ZM27.6777 48V40.9297H30.4512C32.0625 40.9297 32.9805 41.916 32.9805 43.3125C32.9805 44.7285 32.043 45.6953 30.4121 45.6953H29.1426V48H27.6777ZM29.1426 44.5137H30.1777C31.0469 44.5137 31.4668 44.0254 31.4668 43.3125C31.4668 42.6094 31.0469 42.1309 30.1777 42.1309H29.1426V44.5137Z" fill="white"/>
<g clip-path="url(#clip1_14485_45224)">
<path d="M34.9754 16.9585V16.9057H34.9225C34.1823 16.4566 33.2042 16.1925 32.2526 16.1925C32.2526 16.0604 32.1204 15.1623 32.094 15.0566C32.9928 14.7925 33.8651 14.317 34.4996 13.683H34.526V13.6038C34.4731 13.2604 34.3409 12.7849 34.2352 12.4944V12.4415H34.1823C33.3364 12.2038 32.3319 12.2038 31.4331 12.4415C31.3802 12.3359 31.0366 11.4906 31.0101 11.3849C31.8296 10.883 32.5434 10.1963 32.9663 9.43021V9.35097C32.8341 9.0604 32.5962 8.63776 32.4112 8.37361L32.3583 8.34719C31.486 8.34719 30.5343 8.58493 29.6884 9.0604C29.6091 8.95474 29.0539 8.24153 29.0011 8.13587C29.6619 7.44908 30.1642 6.6038 30.3757 5.75852V5.70569V5.67927C30.1642 5.41512 29.8205 5.07172 29.5826 4.8604H29.5562H29.5033C28.6574 5.07172 27.785 5.57361 27.1242 6.23399C27.0184 6.15474 26.3047 5.60002 26.1989 5.52078C26.6483 4.72833 26.9127 3.77738 26.9127 2.9321V2.82644H26.8863C26.6219 2.5887 26.1989 2.35097 25.9082 2.21889H25.8817H25.8289C25.0622 2.64153 24.3749 3.35474 23.8727 4.14719C23.7405 4.09436 22.8681 3.72455 22.7624 3.67172C22.8681 3.22267 22.9474 2.74719 22.9474 2.27172C22.9474 1.79625 22.8946 1.34719 22.7624 0.924552V0.871722H22.7095C22.4187 0.739647 21.9693 0.633986 21.6257 0.581156H21.5728H21.5464C20.9119 1.1887 20.4097 2.0604 20.1718 2.95851C20.0396 2.95851 19.1408 2.82644 19.0086 2.80002C19.0086 1.84908 18.7443 0.898137 18.2949 0.132099V0.026439H18.2156C17.8983 -0.0263911 17.3961 -0.0263911 17.0789 0.026439H17.026V0.0792692C16.5766 0.818892 16.3387 1.79625 16.3122 2.74719C16.1801 2.74719 15.2548 2.87927 15.1227 2.90568C14.8583 1.98116 14.356 1.10946 13.748 0.501911H13.7216L13.6687 0.475496C13.3251 0.528326 12.8757 0.660401 12.5849 0.766062H12.532V0.818892C12.4263 1.24153 12.347 1.71701 12.347 2.19248C12.347 2.66795 12.4263 3.11701 12.532 3.56606C12.4263 3.61889 11.5275 3.9887 11.4218 4.04153C10.9195 3.22267 10.2322 2.50946 9.46556 2.08682H9.41269H9.35982C9.06904 2.21889 8.64608 2.45663 8.38173 2.66795H8.32886V2.82644C8.32886 3.67172 8.59321 4.62267 9.0426 5.41512C8.93686 5.49436 8.27599 6.02267 8.17025 6.10191C7.48294 5.44153 6.63701 4.93965 5.76466 4.72833H5.71179H5.68535C5.421 4.91323 5.07735 5.25663 4.86587 5.52078H4.83943V5.60002C5.05091 6.44531 5.55318 7.31701 6.21405 8.0038C6.13475 8.10946 5.55318 8.84908 5.47387 8.95474C4.65439 8.50568 3.67629 8.21512 2.80393 8.24153H2.75106L2.72463 8.29436C2.53958 8.55852 2.30167 8.95474 2.16949 9.27172V9.32455V9.37738C2.59245 10.1434 3.3062 10.8302 4.12568 11.3321C4.07281 11.4378 3.75559 12.2566 3.70272 12.3887C2.7775 12.151 1.77297 12.151 0.927044 12.3887H0.874174V12.4415C0.741999 12.7321 0.636259 13.1812 0.583388 13.551V13.6038V13.6302C1.19139 14.2642 2.06375 14.7396 2.96254 15.0038C2.96254 15.1359 2.83037 16.034 2.80393 16.1661C1.85227 16.1661 0.874174 16.4302 0.133993 16.8793H0.0811225V16.9585C0.0811225 17.117 0.0546875 17.3283 0.0546875 17.5396C0.0546875 17.751 0.0546875 17.9359 0.0811225 18.0944V18.1472H0.133993C0.874174 18.5963 1.85227 18.8604 2.80393 18.8604C2.80393 18.9925 2.96254 19.917 2.96254 20.0491C2.03732 20.3132 1.19139 20.8151 0.583388 21.4491H0.556953V21.5283C0.609823 21.8717 0.741999 22.3472 0.847739 22.6378V22.6906H0.900609C1.74653 22.9283 2.75106 22.9283 3.67629 22.6906C3.72916 22.7963 4.07281 23.6151 4.12568 23.7472C3.3062 24.2227 2.59245 24.9359 2.16949 25.7019V25.7547V25.8076C2.30167 26.0981 2.53958 26.5208 2.75106 26.7849H2.7775L2.83037 26.8113C3.70272 26.8113 4.65439 26.5736 5.50031 26.0981C5.57961 26.2038 6.13475 26.9434 6.21405 27.0227C5.55318 27.683 5.05091 28.5547 4.83943 29.4V29.4529V29.4793C5.05091 29.7434 5.39457 30.0868 5.63248 30.2717H5.65892H5.71179C6.55771 30.0604 7.40363 29.5585 8.11738 28.8981C8.22312 28.9774 8.9633 29.5321 9.06904 29.6113C8.61964 30.4302 8.35529 31.3812 8.35529 32.2264V32.3321H8.40816C8.67251 32.5698 9.06904 32.7812 9.38626 32.9396H9.43913H9.492C10.2586 32.517 10.9459 31.8038 11.4482 30.9849C11.5539 31.0378 12.3734 31.3547 12.4792 31.4076C12.3734 31.8566 12.2941 32.3321 12.2941 32.7812C12.2941 33.2566 12.347 33.7321 12.4792 34.1547V34.2076H12.532C12.8228 34.3396 13.2722 34.4453 13.6159 34.5246H13.6687L13.6952 34.4981C14.3296 33.8906 14.8054 33.0189 15.0698 32.1208C15.202 32.1208 16.1272 32.2793 16.2594 32.2793C16.2594 33.2302 16.5237 34.2076 16.9731 34.9472L17.026 35C17.3432 35.0529 17.8455 35.0529 18.1627 35H18.2156V34.9472C18.665 34.2076 18.9029 33.2302 18.9293 32.2793C19.0615 32.2793 19.9338 32.1472 20.0396 32.1208C20.3039 33.0453 20.8062 33.8906 21.4142 34.5246H21.4406L21.4935 34.551C21.8372 34.4981 22.313 34.3661 22.6038 34.2604H22.6567V34.2076C22.7888 33.7849 22.8417 33.3095 22.8417 32.834C22.8417 32.3585 22.7888 31.883 22.6567 31.434C22.7888 31.3812 23.6083 31.0378 23.7405 30.9849C24.2428 31.8038 24.9301 32.517 25.6967 32.9396H25.7231H25.776C26.0668 32.8076 26.5162 32.5698 26.7541 32.3585H26.7805C26.7805 32.3585 26.7805 32.2264 26.7805 32.2C26.7805 31.3547 26.5162 30.4302 26.0668 29.6113C26.1725 29.5321 26.8598 29.0038 26.9656 28.9246C27.6529 29.5849 28.5252 30.0868 29.3712 30.2981H29.424H29.4505C29.7148 30.0868 30.0585 29.7434 30.2699 29.5057V29.4529V29.4264C30.0585 28.5812 29.5562 27.7095 28.8953 27.0227C28.9746 26.917 29.5298 26.1774 29.6091 26.0717C30.455 26.5208 31.4067 26.7849 32.279 26.7849H32.3583C32.5698 26.4944 32.8077 26.0717 32.9399 25.7547V25.6755C32.5169 24.9359 31.8296 24.2227 31.0101 23.7208C31.063 23.6151 31.3802 22.7963 31.4331 22.6906C32.3583 22.9283 33.3364 22.9283 34.1823 22.6906H34.2088V22.6378C34.3409 22.3472 34.4467 21.8717 34.4996 21.5283V21.4755L34.4731 21.4491C33.8651 20.8151 32.9928 20.3396 32.094 20.0755C32.094 19.9434 32.2261 19.0717 32.2526 18.9661C33.2042 18.9661 34.1823 18.7019 34.9225 18.2529H34.9489V18.1736C34.9489 18.0151 34.9754 17.8038 34.9754 17.6189C34.9754 17.434 34.9754 17.2227 34.9489 17.0642M17.4754 30.6151C10.2586 30.6151 4.3636 24.7246 4.3636 17.5132C4.3636 10.3019 10.2851 4.27927 17.5018 4.27927C24.7186 4.27927 30.6136 10.1698 30.6136 17.3812C30.6136 24.5925 24.7186 30.483 17.5018 30.483" fill="white"/>
<path d="M17.5022 5.86426C11.1314 5.86426 5.97656 11.0416 5.97656 17.4077C5.97656 23.7737 11.1578 28.951 17.5022 28.951C23.8467 28.951 29.0544 23.7737 29.0544 17.4077C29.0544 11.0416 23.8731 5.86426 17.5022 5.86426ZM18.9562 7.71331C18.9562 7.71331 19.2205 7.66048 19.3527 7.6869C21.679 8.24162 23.3708 9.21898 25.0362 10.9624C25.142 11.0944 25.2213 11.2001 25.2213 11.3058C25.2213 11.3058 25.2213 11.3322 25.2213 11.3586C25.1948 11.5171 25.0098 11.5963 24.8512 11.6756L19.9871 14.0265C19.8021 14.1058 19.617 14.1322 19.4849 14.0265C19.3527 13.9473 19.247 13.7888 19.247 13.5775L18.8504 8.18879C18.8504 7.92463 18.8504 7.76614 18.9562 7.6869M9.94182 10.9888C11.6072 9.24539 13.2991 8.26803 15.6254 7.71331C15.7575 7.6869 15.9161 7.66048 16.0219 7.73973C16.1276 7.81897 16.1541 7.97747 16.1276 8.24162L15.7311 13.6039C15.7311 13.8152 15.6254 13.9737 15.4932 14.0529C15.361 14.1322 15.176 14.1322 14.9909 14.0529L10.1269 11.702C9.96825 11.6227 9.78321 11.5435 9.75677 11.385C9.75677 11.2794 9.78321 11.1473 9.94182 10.9888ZM8.77868 20.9473C8.5672 21.0794 8.40859 21.1322 8.30285 21.1058C8.17067 21.0529 8.1178 20.9209 8.09137 20.7624C7.40405 18.4643 7.40405 16.5095 8.09137 14.2114C8.14424 14.0001 8.22354 13.8944 8.32928 13.868C8.48789 13.8152 8.6465 13.9209 8.77868 14.0265L13.2462 17.0643C13.4048 17.1699 13.5106 17.3284 13.5106 17.4869C13.5106 17.6454 13.4048 17.8039 13.2462 17.936L8.77868 20.9473ZM16.1012 27.2605C16.1012 27.2605 15.8368 27.3133 15.7047 27.2605C13.3784 26.7058 11.6865 25.7284 10.0211 23.985C9.88895 23.8529 9.83608 23.7473 9.83608 23.6416C9.83608 23.6416 9.83608 23.6152 9.83608 23.5888C9.83608 23.4303 10.0476 23.3511 10.2062 23.2718L15.0702 20.9209C15.2553 20.8416 15.4403 20.8152 15.5989 20.9209C15.7311 21.0001 15.8368 21.1586 15.8368 21.3699L16.2334 26.7586C16.2334 27.0227 16.2334 27.1812 16.1276 27.2341M17.5022 20.5246C15.7575 20.5246 14.3565 19.1246 14.3565 17.3812C14.3565 16.3246 14.8852 15.3473 15.784 14.7397C16.0747 14.5548 16.4713 14.6341 16.6563 14.9246C16.8414 15.2152 16.7621 15.6114 16.4713 15.7963C15.9426 16.1397 15.6254 16.7209 15.6254 17.3548C15.6254 18.385 16.4713 19.2303 17.5022 19.2303C18.5332 19.2303 19.3791 18.385 19.3791 17.3548C19.3791 16.7209 19.0619 16.1397 18.5332 15.7963C18.2424 15.6114 18.1631 15.2152 18.3482 14.9246C18.5332 14.6341 18.9297 14.5548 19.2205 14.7397C20.0929 15.3209 20.648 16.2982 20.648 17.3812C20.648 19.1246 19.2205 20.5246 17.5022 20.5246ZM25.0627 23.9058C23.3973 25.6492 21.7054 26.6265 19.3791 27.1812C19.1941 27.2341 19.0355 27.2077 18.9562 27.1548C18.824 27.0492 18.8504 26.8378 18.8504 26.6794L19.247 21.2907C19.247 21.0794 19.3527 20.9209 19.5113 20.8416C19.6435 20.7624 19.8285 20.7624 20.0136 20.8416L24.8776 23.1926C25.1155 23.2982 25.2213 23.4039 25.2477 23.536C25.2477 23.668 25.1684 23.8001 25.0627 23.9058ZM26.7016 13.8152C26.7016 13.8152 26.8867 14.0001 26.9131 14.1586C27.6004 16.4567 27.6004 18.4114 26.9131 20.7095C26.8602 20.9209 26.7809 21.0265 26.6752 21.0529C26.5166 21.1058 26.358 21.0001 26.2258 20.8944L21.7583 17.8567C21.5997 17.7511 21.4939 17.5926 21.4939 17.4077C21.4939 17.2227 21.5997 17.0907 21.7583 16.9586L26.2258 13.9209C26.4373 13.7888 26.5959 13.736 26.7016 13.7624" fill="white"/>
</g>
</g>
<defs>
<clipPath id="clip0_14485_45224">
<rect width="35" height="50" fill="white"/>
</clipPath>
<clipPath id="clip1_14485_45224">
<rect width="35" height="35" fill="white"/>
</clipPath>
</defs>
</svg>
