<svg width="30" height="34" viewBox="0 0 30 34" fill="none" xmlns="http://www.w3.org/2000/svg">
<path d="M27.2227 32H0.777251C0.350711 32 0 32.2256 0 32.5C0 32.7744 0.350711 33 0.777251 33H27.2227C27.6493 33 28 32.7744 28 32.5C28 32.2256 27.6493 32 27.2227 32Z" fill="white"/>
<path d="M1.53656 29.2298C1.76656 29.2298 1.98656 29.1298 2.13656 28.9698L2.93656 28.0998L8.17656 27.3198C8.35656 27.2898 8.53656 27.1998 8.65656 27.0598L25.0466 9.2698L26.9066 7.2498C28.5266 5.4998 28.4066 2.7498 26.6566 1.1398C25.7966 0.359803 24.6966 -0.0401968 23.5466 -0.000196754C22.3866 0.0498032 21.3266 0.539803 20.5466 1.3898L19.5766 2.4498L18.5066 3.6198L2.30656 21.1998C2.17656 21.3398 2.10656 21.5098 2.09656 21.6998L1.74656 26.9898L0.946562 27.8598C0.796562 28.0198 0.726562 28.2298 0.726562 28.4498C0.726562 28.6698 0.826562 28.8698 0.986562 29.0198C1.13656 29.1598 1.33656 29.2398 1.53656 29.2398V29.2298ZM25.5366 2.3498C26.0666 2.8398 26.3666 3.4998 26.3966 4.2198C26.4266 4.9398 26.1766 5.6198 25.6866 6.1498L23.8266 8.1698L8.08656 25.2598L4.13656 21.6198L19.8866 4.5198L20.2166 4.1598L22.9966 6.7198C23.1466 6.8598 23.3466 6.9398 23.5466 6.9398C23.7766 6.9398 23.9966 6.8398 24.1466 6.6798C24.4566 6.3498 24.4266 5.8298 24.0966 5.5198L21.3166 2.9598L21.7366 2.4998C22.2266 1.9698 22.8866 1.6698 23.6066 1.6398C24.3266 1.6098 25.0066 1.8598 25.5366 2.3498ZM3.61656 23.3498L6.40656 25.9198L3.41656 26.3698L3.61656 23.3498Z" fill="white"/>
</svg>
