<svg width="40" height="40" viewBox="0 0 40 40" fill="none" xmlns="http://www.w3.org/2000/svg">
<g clip-path="url(#clip0_14483_45370)">
<path d="M22.2811 39.5318H17.7204C17.5002 39.5318 17.3167 39.3483 17.3167 39.128V35.9163C14.9216 35.5125 12.6275 34.5673 10.6454 33.1542L8.37882 35.4207C8.30541 35.4942 8.19529 35.54 8.09435 35.54C7.98423 35.54 7.8833 35.4942 7.80988 35.4207L4.57978 32.1907C4.50637 32.1172 4.46049 32.0071 4.46049 31.9062C4.46049 31.8052 4.50637 31.6951 4.57978 31.6217L6.84636 29.3551C5.43319 27.373 4.48802 25.0789 4.08426 22.6839H0.872512C0.652278 22.6839 0.46875 22.5004 0.46875 22.2801V17.7194C0.46875 17.4992 0.652278 17.3157 0.872512 17.3157H4.08426C4.48802 14.9206 5.43319 12.6265 6.84636 10.6444L4.57978 8.37784C4.50637 8.30443 4.46049 8.19432 4.46049 8.09338C4.46049 7.99243 4.50637 7.88232 4.57978 7.80891L7.80988 4.57881C7.96588 4.42281 8.22282 4.42281 8.388 4.57881L10.6546 6.84538C12.6367 5.43221 14.9308 4.48704 17.3258 4.08328V0.871536C17.3258 0.651302 17.5094 0.467773 17.7296 0.467773H22.2903C22.5105 0.467773 22.694 0.651302 22.694 0.871536V4.08328C25.0891 4.48704 27.3832 5.43221 29.3653 6.84538L31.6319 4.57881C31.7879 4.42281 32.0448 4.42281 32.21 4.57881L35.4401 7.80891C35.5961 7.96491 35.5961 8.22185 35.4401 8.38702L33.1735 10.6536C34.5867 12.6357 35.5318 14.9298 35.9356 17.3249H39.1474C39.3676 17.3249 39.5511 17.5084 39.5511 17.7286V22.2893C39.5511 22.5095 39.3676 22.6931 39.1474 22.6931H35.9356C35.5318 25.0881 34.5867 27.3822 33.1735 29.3643L35.4401 31.6309C35.5135 31.7043 35.5594 31.8144 35.5594 31.9154C35.5594 32.0163 35.5135 32.1264 35.4401 32.1998L32.21 35.4299C32.054 35.5859 31.7879 35.5859 31.6319 35.4299L29.3653 33.1633C27.3832 34.5765 25.0891 35.5217 22.694 35.9255V39.1372C22.694 39.3574 22.5105 39.541 22.2903 39.541L22.2811 39.5318ZM18.1242 38.7243H21.8773V35.5767C21.8773 35.3749 22.0242 35.2005 22.226 35.173C24.7312 34.8059 27.1262 33.8149 29.1542 32.3008C29.3194 32.1815 29.5396 32.1998 29.6865 32.3375L31.9163 34.5673L34.5683 31.9154L32.3384 29.6855C32.1916 29.5387 32.1824 29.3184 32.3017 29.1533C33.8159 27.1253 34.8069 24.721 35.174 22.2251C35.2015 22.0232 35.3758 21.8764 35.5777 21.8764H38.7252V18.1232H35.5777C35.3758 18.1232 35.2015 17.9764 35.174 17.7745C34.8069 15.2693 33.8159 12.8743 32.3017 10.8463C32.1824 10.6811 32.2008 10.4609 32.3384 10.3141L34.5683 8.0842L31.9163 5.43221L29.6865 7.66208C29.5396 7.80891 29.3194 7.81808 29.1542 7.69879C27.1262 6.18468 24.7312 5.19363 22.226 4.82657C22.0242 4.79904 21.8773 4.62469 21.8773 4.42281V1.2753H18.1242V4.42281C18.1242 4.62469 17.9774 4.79904 17.7755 4.82657C15.2703 5.19363 12.8753 6.18468 10.8473 7.69879C10.6821 7.81808 10.4619 7.79973 10.315 7.66208L8.08518 5.43221L5.43319 8.0842L7.66306 10.3141C7.80988 10.4609 7.81906 10.6811 7.69977 10.8463C6.18566 12.8743 5.1946 15.2785 4.82755 17.7745C4.80002 17.9764 4.62567 18.1232 4.42379 18.1232H1.27627V21.8764H4.42379C4.62567 21.8764 4.80002 22.0232 4.82755 22.2251C5.1946 24.7302 6.18566 27.1253 7.69977 29.1533C7.81906 29.3184 7.80071 29.5387 7.66306 29.6855L5.43319 31.9154L8.08518 34.5673L10.315 32.3375C10.4619 32.1907 10.6821 32.1815 10.8473 32.3008C12.8753 33.8149 15.2795 34.8059 17.7755 35.173C17.9774 35.2005 18.1242 35.3749 18.1242 35.5767V38.7243Z" fill="white"/>
<path d="M22.2803 40H17.7197C17.2425 40 16.8479 39.6054 16.8479 39.1282V36.3111C14.6639 35.889 12.5533 35.0172 10.6997 33.7692L8.70842 35.7605C8.37807 36.0908 7.80913 36.0908 7.47878 35.7605L4.24868 32.5304C4.08351 32.3652 3.99174 32.145 3.99174 31.9156C3.99174 31.6862 4.08351 31.4659 4.24868 31.3008L6.23996 29.3095C4.99197 27.465 4.12021 25.3544 3.6981 23.1613H0.87176C0.394586 23.1613 0 22.7667 0 22.2895V17.7288C0 17.2517 0.394586 16.8571 0.87176 16.8571H3.68892C4.11103 14.6639 4.98279 12.5533 6.23079 10.7089L4.2395 8.7176C4.07433 8.55242 3.98257 8.33219 3.98257 8.10278C3.98257 7.87337 4.07433 7.65313 4.2395 7.48796L7.4696 4.25786C7.80913 3.91833 8.35972 3.91833 8.69924 4.25786L10.6905 6.24914C12.5442 5.00115 14.6547 4.12939 16.8387 3.70727V0.87176C16.8387 0.394586 17.2333 0 17.7105 0H22.2712C22.7483 0 23.1429 0.394586 23.1429 0.87176V3.68892C25.3361 4.11103 27.4467 4.98279 29.2911 6.23079L31.2824 4.2395C31.6219 3.89998 32.1725 3.89998 32.512 4.2395L35.7421 7.4696C36.0817 7.80913 36.0817 8.35971 35.7421 8.69924L33.7509 10.6905C34.9989 12.535 35.8706 14.6456 36.2927 16.8387H39.1099C39.5871 16.8387 39.9816 17.2333 39.9816 17.7105V22.2712C39.9816 22.7483 39.5871 23.1429 39.1099 23.1429H36.2927C35.8706 25.3361 34.9989 27.4467 33.7509 29.2911L35.7421 31.2824C35.9073 31.4476 35.9991 31.6678 35.9991 31.8972C35.9991 32.1266 35.9073 32.3469 35.7421 32.512L32.512 35.7421C32.1817 36.0725 31.6128 36.0725 31.2824 35.7421L29.2911 33.7509C27.4375 34.9989 25.3269 35.8706 23.1429 36.2927V39.1099C23.1429 39.5871 22.7483 39.9816 22.2712 39.9816L22.2803 40ZM18.5914 38.2565H21.4086V35.5678C21.4086 35.1365 21.7298 34.7694 22.1519 34.7052C24.5836 34.3565 26.9053 33.393 28.869 31.9248C29.2177 31.6678 29.7041 31.7045 30.0069 32.0073L31.9064 33.9069L33.8977 31.9156L31.9982 30.0161C31.6862 29.7041 31.6586 29.2269 31.9156 28.8782C33.3838 26.9053 34.3473 24.5836 34.696 22.161C34.7603 21.7389 35.1273 21.4178 35.5586 21.4178H38.2473V18.6006H35.5586C35.1273 18.6006 34.7603 18.2794 34.696 17.8573C34.3473 15.4256 33.3838 13.1039 31.9156 11.1402C31.6586 10.7915 31.6953 10.3051 31.9982 10.0023L33.8977 8.10278L31.9064 6.11149L30.0069 8.01101C29.7041 8.31383 29.2177 8.35054 28.869 8.0936C26.8961 6.62537 24.5744 5.66185 22.1519 5.31315C21.7298 5.24891 21.4086 4.88185 21.4086 4.45056V1.74352H18.5914V4.43221C18.5914 4.8635 18.2702 5.23056 17.8481 5.29479C15.4256 5.6435 13.0947 6.60702 11.131 8.07525C10.7823 8.33219 10.2959 8.29548 9.99312 7.99266L8.0936 6.09314L6.10232 8.08442L8.00184 9.98394C8.30466 10.2868 8.34136 10.7731 8.08442 11.1218C6.6162 13.0947 5.65267 15.4164 5.30397 17.839C5.23973 18.2611 4.87268 18.5822 4.44139 18.5822H1.74352V21.3994H4.43221C4.8635 21.3994 5.23056 21.7206 5.29479 22.1427C5.6435 24.5744 6.60702 26.8961 8.07525 28.8598C8.33219 29.2085 8.29548 29.6949 7.99266 29.9977L6.09314 31.8972L8.08442 33.8885L9.98394 31.989C10.2868 31.6862 10.7731 31.6495 11.1218 31.9064C13.0947 33.3746 15.4164 34.3382 17.839 34.6869C18.2611 34.7511 18.5822 35.1181 18.5822 35.5494V38.2381L18.5914 38.2565Z" fill="white"/>
<path d="M19.9979 25.8679C16.7586 25.8679 14.125 23.2343 14.125 19.995C14.125 16.7557 16.7586 14.1221 19.9979 14.1221C23.2372 14.1221 25.8708 16.7557 25.8708 19.995C25.8708 23.2343 23.2372 25.8679 19.9979 25.8679ZM19.9979 14.9388C17.2083 14.9388 14.9325 17.2053 14.9325 20.0042C14.9325 22.803 17.1991 25.0695 19.9979 25.0695C22.7967 25.0695 25.0633 22.803 25.0633 20.0042C25.0633 17.2053 22.7967 14.9388 19.9979 14.9388Z" fill="white"/>
<path d="M19.9972 26.3361C16.5009 26.3361 13.6562 23.4914 13.6562 19.9952C13.6562 16.499 16.5009 13.6543 19.9972 13.6543C23.4934 13.6543 26.3381 16.499 26.3381 19.9952C26.3381 23.4914 23.4934 26.3361 19.9972 26.3361ZM19.9972 15.407C17.4645 15.407 15.3998 17.4717 15.3998 20.0044C15.3998 22.5371 17.4645 24.6018 19.9972 24.6018C22.5298 24.6018 24.5945 22.5371 24.5945 20.0044C24.5945 17.4717 22.5298 15.407 19.9972 15.407Z" fill="white"/>
</g>
<defs>
<clipPath id="clip0_14483_45370">
<rect width="40" height="40" fill="white"/>
</clipPath>
</defs>
</svg>
