<svg width="38" height="39" viewBox="0 0 38 39" fill="none" xmlns="http://www.w3.org/2000/svg">
<g clip-path="url(#clip0_14485_45221)">
<g clip-path="url(#clip1_14485_45221)">
<path d="M21.2178 19.47L17.6578 18.12C19.2878 16.63 20.3178 14.5 20.3178 12.13C20.3078 7.64 16.6678 4 12.1878 4C7.70781 4 4.06781 7.64 4.06781 12.12C4.06781 14.5 5.09781 16.63 6.72781 18.11L3.16781 19.46C1.27781 20.18 0.0078125 22.02 0.0078125 24.04V37.48C0.0078125 37.93 0.377813 38.3 0.827812 38.3H23.5678C24.0178 38.3 24.3878 37.93 24.3878 37.48V24.04C24.3878 22.02 23.1178 20.17 21.2278 19.46L21.2178 19.47ZM15.3878 17.76C13.4378 18.87 10.9478 18.87 8.99781 17.76C7.03781 16.64 5.70781 14.54 5.70781 12.12C5.70781 8.54 8.61781 5.64 12.1878 5.64C15.7578 5.64 18.6678 8.55 18.6678 12.12C18.6678 14.53 17.3378 16.64 15.3778 17.75L15.3878 17.76ZM8.35781 19.28C8.64781 19.43 8.94781 19.57 9.24781 19.69C9.26781 19.69 9.27781 19.7 9.29781 19.71C10.1978 20.05 11.1678 20.25 12.1878 20.25C13.2078 20.25 14.1778 20.05 15.0778 19.71C15.0978 19.71 15.1078 19.7 15.1278 19.69C15.4378 19.57 15.7378 19.44 16.0178 19.28H16.0878L20.6278 21C21.8878 21.48 22.7378 22.7 22.7378 24.05V36.67H1.63781V24.05C1.63781 22.7 2.48781 21.48 3.74781 21L8.28781 19.28H8.35781Z" fill="white"/>
</g>
<path d="M38 5.8101V5.79201H37.9818C37.7275 5.63828 37.3914 5.54785 37.0643 5.54785C37.0643 5.50264 37.0189 5.19518 37.0098 5.15901C37.3187 5.06858 37.6185 4.9058 37.8365 4.68877H37.8456V4.66164C37.8274 4.54408 37.782 4.38131 37.7456 4.28184V4.26375H37.7275C37.4368 4.18237 37.0916 4.18237 36.7827 4.26375C36.7646 4.22758 36.6465 3.93821 36.6374 3.90203C36.919 3.73022 37.1643 3.4951 37.3096 3.23286V3.20573C37.2642 3.10625 37.1824 2.96157 37.1188 2.87114L37.1007 2.8621C36.8009 2.8621 36.4739 2.94348 36.1832 3.10625C36.1559 3.07008 35.9652 2.82592 35.947 2.78975C36.1741 2.55463 36.3467 2.26526 36.4194 1.97589V1.9578V1.94876C36.3467 1.85833 36.2286 1.74077 36.1469 1.66842H36.1378H36.1196C35.8289 1.74077 35.5291 1.91258 35.302 2.13866C35.2657 2.11153 35.0204 1.92163 34.9841 1.8945C35.1385 1.62321 35.2294 1.29766 35.2294 1.00829V0.972118H35.2203C35.1294 0.890731 34.9841 0.809344 34.8842 0.76413H34.8751H34.8569C34.5935 0.908817 34.3573 1.15298 34.1847 1.42427C34.1393 1.40618 33.8395 1.27958 33.8032 1.26149C33.8395 1.10776 33.8668 0.944989 33.8668 0.782216C33.8668 0.619442 33.8486 0.465712 33.8032 0.321025V0.302939H33.785C33.6851 0.257724 33.5307 0.221552 33.4126 0.203466H33.3944H33.3853C33.1673 0.411454 32.9947 0.709872 32.9129 1.01733C32.8675 1.01733 32.5587 0.972117 32.5132 0.963075C32.5132 0.637528 32.4224 0.311982 32.268 0.0497362V0.0135644H32.2407C32.1317 -0.00452148 31.9591 -0.00452148 31.8501 0.0135644H31.8319V0.0316503C31.6775 0.284853 31.5958 0.619442 31.5867 0.944989C31.5413 0.944989 31.2233 0.990203 31.1779 0.999246C31.0871 0.682743 30.9145 0.384326 30.7055 0.176338H30.6964L30.6783 0.167295C30.5602 0.185381 30.4058 0.230595 30.3058 0.266767H30.2877V0.284853C30.2513 0.42954 30.2241 0.592313 30.2241 0.755087C30.2241 0.91786 30.2513 1.07159 30.2877 1.22532C30.2513 1.24341 29.9425 1.37001 29.9061 1.38809C29.7335 1.10776 29.4974 0.863602 29.2339 0.718915H29.2157H29.1976C29.0977 0.76413 28.9523 0.845516 28.8615 0.91786H28.8433V0.972118C28.8433 1.26149 28.9341 1.58704 29.0886 1.85833C29.0522 1.88546 28.8251 2.06631 28.7888 2.09344C28.5526 1.86737 28.2619 1.69555 27.9622 1.62321H27.944H27.9349C27.8441 1.68651 27.726 1.80407 27.6533 1.8945H27.6442V1.92163C27.7169 2.211 27.8895 2.50942 28.1166 2.74454C28.0893 2.78071 27.8895 3.03391 27.8622 3.07008C27.5806 2.91635 27.2445 2.81688 26.9447 2.82592H26.9266L26.9175 2.84401C26.8539 2.93444 26.7721 3.07008 26.7267 3.1786V3.19668V3.21477C26.8721 3.47702 27.1173 3.71213 27.3989 3.88395C27.3808 3.92012 27.2718 4.20045 27.2536 4.24567C26.9357 4.16428 26.5905 4.16428 26.2998 4.24567H26.2816V4.26375C26.2362 4.36323 26.1998 4.51696 26.1817 4.64356V4.66164V4.67069C26.3906 4.88772 26.6904 5.05049 26.9992 5.14092C26.9992 5.18613 26.9538 5.49359 26.9447 5.53881C26.6177 5.53881 26.2816 5.62924 26.0273 5.78297H26.0091V5.8101C26.0091 5.86436 26 5.9367 26 6.00904C26 6.08139 26 6.14469 26.0091 6.19895V6.21703H26.0273C26.2816 6.37076 26.6177 6.46119 26.9447 6.46119C26.9447 6.50641 26.9992 6.82291 26.9992 6.86812C26.6813 6.95855 26.3906 7.13037 26.1817 7.3474H26.1726V7.37453C26.1908 7.49209 26.2362 7.65486 26.2725 7.75433V7.77242H26.2907C26.5814 7.85381 26.9266 7.85381 27.2445 7.77242C27.2627 7.80859 27.3808 8.08892 27.3989 8.13414C27.1173 8.29691 26.8721 8.54107 26.7267 8.80332V8.8214V8.83949C26.7721 8.93896 26.8539 9.08365 26.9266 9.17408H26.9357L26.9538 9.18312C27.2536 9.18312 27.5806 9.10173 27.8713 8.93896C27.8986 8.97513 28.0893 9.22833 28.1166 9.25546C27.8895 9.48154 27.7169 9.77995 27.6442 10.0693V10.0874V10.0965C27.7169 10.1869 27.835 10.3044 27.9167 10.3677H27.9258H27.944C28.2347 10.2954 28.5254 10.1236 28.7706 9.89751C28.807 9.92464 29.0613 10.1145 29.0977 10.1417C28.9432 10.422 28.8524 10.7476 28.8524 11.0369V11.0731H28.8706C28.9614 11.1545 29.0977 11.2268 29.2067 11.2811H29.2248H29.243C29.5064 11.1364 29.7426 10.8922 29.9152 10.6119C29.9516 10.63 30.2332 10.7385 30.2695 10.7566C30.2332 10.9103 30.2059 11.0731 30.2059 11.2268C30.2059 11.3896 30.2241 11.5524 30.2695 11.6971V11.7151H30.2877C30.3876 11.7604 30.542 11.7965 30.6601 11.8237H30.6783L30.6874 11.8146C30.9054 11.6066 31.0689 11.3082 31.1597 11.0008C31.2051 11.0008 31.5231 11.055 31.5685 11.055C31.5685 11.3806 31.6593 11.7151 31.8138 11.9683L31.8319 11.9864C31.941 12.0045 32.1136 12.0045 32.2226 11.9864H32.2407V11.9683C32.3952 11.7151 32.4769 11.3806 32.486 11.055C32.5314 11.055 32.8312 11.0098 32.8675 11.0008C32.9584 11.3173 33.131 11.6066 33.3399 11.8237H33.349L33.3671 11.8327C33.4852 11.8146 33.6488 11.7694 33.7487 11.7332H33.7668V11.7151C33.8123 11.5705 33.8304 11.4077 33.8304 11.2449C33.8304 11.0821 33.8123 10.9194 33.7668 10.7656C33.8123 10.7476 34.0939 10.63 34.1393 10.6119C34.3119 10.8922 34.5481 11.1364 34.8115 11.2811H34.8206H34.8388C34.9387 11.2359 35.0931 11.1545 35.1749 11.0821H35.184C35.184 11.0821 35.184 11.0369 35.184 11.0279C35.184 10.7385 35.0931 10.422 34.9387 10.1417C34.975 10.1145 35.2112 9.93368 35.2475 9.90656C35.4837 10.1326 35.7835 10.3044 36.0742 10.3768H36.0924H36.1014C36.1923 10.3044 36.3104 10.1869 36.383 10.1055V10.0874V10.0784C36.3104 9.789 36.1378 9.49058 35.9107 9.25546C35.9379 9.21929 36.1287 8.96609 36.1559 8.92992C36.4466 9.08365 36.7737 9.17408 37.0734 9.17408H37.1007C37.1734 9.0746 37.2551 8.92992 37.3005 8.8214V8.79427C37.1552 8.54107 36.919 8.29691 36.6374 8.12509C36.6556 8.08892 36.7646 7.80859 36.7827 7.77242C37.1007 7.85381 37.4368 7.85381 37.7275 7.77242H37.7366V7.75433C37.782 7.65486 37.8183 7.49209 37.8365 7.37453V7.35644L37.8274 7.3474C37.6185 7.13037 37.3187 6.9676 37.0098 6.87717C37.0098 6.83195 37.0553 6.53353 37.0643 6.49736C37.3914 6.49736 37.7275 6.40693 37.9818 6.2532H37.9909V6.22607C37.9909 6.17182 38 6.09947 38 6.03617C38 5.97287 38 5.90053 37.9909 5.84627M31.9864 10.4853C29.5064 10.4853 27.4807 8.46873 27.4807 6C27.4807 3.53127 29.5155 1.46948 31.9955 1.46948C34.4754 1.46948 36.5011 3.48606 36.5011 5.95479C36.5011 8.42351 34.4754 10.4401 31.9955 10.4401" fill="white"/>
<path d="M31.9954 2C29.7869 2 28 3.79405 28 6C28 8.20595 29.7961 10 31.9954 10C34.1947 10 36 8.20595 36 6C36 3.79405 34.2039 2 31.9954 2ZM32.4994 2.64073C32.4994 2.64073 32.5911 2.62243 32.6369 2.63158C33.4433 2.8238 34.0298 3.16247 34.6071 3.76659C34.6438 3.81236 34.6712 3.84897 34.6712 3.88558C34.6712 3.88558 34.6712 3.89474 34.6712 3.90389C34.6621 3.95881 34.5979 3.98627 34.543 4.01373L32.8568 4.82838C32.7927 4.85584 32.7285 4.86499 32.6827 4.82838C32.6369 4.80092 32.6002 4.746 32.6002 4.67277L32.4628 2.80549C32.4628 2.71396 32.4628 2.65904 32.4994 2.63158M29.3746 3.77574C29.9519 3.17162 30.5384 2.83295 31.3448 2.64073C31.3906 2.63158 31.4456 2.62243 31.4822 2.64989C31.5189 2.67735 31.5281 2.73227 31.5189 2.8238L31.3814 4.68192C31.3814 4.75515 31.3448 4.81007 31.299 4.83753C31.2532 4.86499 31.189 4.86499 31.1249 4.83753L29.4387 4.02288C29.3837 3.99542 29.3196 3.96796 29.3104 3.91304C29.3104 3.87643 29.3196 3.83066 29.3746 3.77574ZM28.9714 7.22654C28.8981 7.27231 28.8431 7.29062 28.8064 7.28146C28.7606 7.26316 28.7423 7.21739 28.7331 7.16247C28.4948 6.36613 28.4948 5.68879 28.7331 4.89245C28.7514 4.81922 28.7789 4.78261 28.8156 4.77346C28.8706 4.75515 28.9255 4.79176 28.9714 4.82838L30.52 5.88101C30.575 5.91762 30.6117 5.97254 30.6117 6.02746C30.6117 6.08238 30.575 6.1373 30.52 6.18307L28.9714 7.22654ZM31.5097 9.41419C31.5097 9.41419 31.4181 9.43249 31.3723 9.41419C30.5659 9.22197 29.9794 8.8833 29.4021 8.27918C29.3562 8.23341 29.3379 8.1968 29.3379 8.16018C29.3379 8.16018 29.3379 8.15103 29.3379 8.14188C29.3379 8.08696 29.4112 8.0595 29.4662 8.03204L31.1523 7.21739C31.2165 7.18993 31.2806 7.18078 31.3356 7.21739C31.3814 7.24485 31.4181 7.29977 31.4181 7.373L31.5556 9.24027C31.5556 9.33181 31.5556 9.38673 31.5189 9.40503M31.9954 7.08009C31.3906 7.08009 30.9049 6.59497 30.9049 5.99085C30.9049 5.62471 31.0882 5.28604 31.3998 5.07551C31.5006 5.01144 31.638 5.0389 31.7022 5.13959C31.7663 5.24027 31.7388 5.37757 31.638 5.44165C31.4548 5.56064 31.3448 5.76201 31.3448 5.98169C31.3448 6.33867 31.638 6.63158 31.9954 6.63158C32.3528 6.63158 32.646 6.33867 32.646 5.98169C32.646 5.76201 32.5361 5.56064 32.3528 5.44165C32.252 5.37757 32.2245 5.24027 32.2887 5.13959C32.3528 5.0389 32.4903 5.01144 32.5911 5.07551C32.8935 5.27689 33.0859 5.61556 33.0859 5.99085C33.0859 6.59497 32.5911 7.08009 31.9954 7.08009ZM34.6163 8.25172C34.0389 8.85584 33.4525 9.19451 32.646 9.38673C32.5819 9.40503 32.5269 9.39588 32.4994 9.37757C32.4536 9.34096 32.4628 9.26774 32.4628 9.21281L32.6002 7.34554C32.6002 7.27231 32.6369 7.21739 32.6919 7.18993C32.7377 7.16247 32.8018 7.16247 32.866 7.18993L34.5521 8.00458C34.6346 8.04119 34.6712 8.0778 34.6804 8.12357C34.6804 8.16934 34.6529 8.2151 34.6163 8.25172ZM35.1844 4.75515C35.1844 4.75515 35.2486 4.81922 35.2577 4.87414C35.496 5.67048 35.496 6.34783 35.2577 7.14417C35.2394 7.21739 35.2119 7.254 35.1753 7.26316C35.1203 7.28146 35.0653 7.24485 35.0195 7.20824L33.4708 6.15561C33.4158 6.11899 33.3792 6.06407 33.3792 6C33.3792 5.93593 33.4158 5.89016 33.4708 5.84439L35.0195 4.79176C35.0928 4.746 35.1478 4.72769 35.1844 4.73684" fill="white"/>
</g>
<defs>
<clipPath id="clip0_14485_45221">
<rect width="38" height="38.31" fill="white"/>
</clipPath>
<clipPath id="clip1_14485_45221">
<rect width="24.38" height="34.31" fill="white" transform="translate(0 4)"/>
</clipPath>
</defs>
</svg>
