<svg width="33" height="33" viewBox="0 0 33 33" fill="none" xmlns="http://www.w3.org/2000/svg">
<g clip-path="url(#clip0_14483_45354)">
<path d="M16.5 0C7.39964 0 0 7.39964 0 16.5C0 25.6004 7.39964 33 16.5 33C25.6004 33 33 25.6004 33 16.5C33 7.39964 25.6004 0 16.5 0ZM29.877 10.0353C27.8083 10.3336 25.7396 10.5823 23.6609 10.7414C23.3029 8.55335 22.736 6.5443 21.9702 4.86347C21.4828 3.77938 20.9259 2.88427 20.3291 2.14828C24.5362 3.27215 28.0072 6.18626 29.877 10.0353ZM22.4973 16.5C22.4973 17.8825 22.4078 19.245 22.2586 20.5479C18.4295 20.3192 14.5904 20.3192 10.7613 20.5678C10.6022 19.255 10.5226 17.8924 10.5226 16.5C10.5226 15.1076 10.6121 13.745 10.7613 12.4322C12.7206 12.5515 14.6899 12.6311 16.6492 12.6311C18.6085 12.6311 20.3888 12.5615 22.2586 12.4421C22.4177 13.755 22.4973 15.1076 22.4973 16.4901V16.5ZM16.5 1.6311C18.0018 1.6311 19.5136 3.21248 20.6573 5.9575C21.2541 7.38969 21.7116 9.05063 22.0199 10.8409C18.34 11.0597 14.66 11.0497 10.9901 10.821C11.2984 9.04069 11.7559 7.38969 12.3526 5.9575C13.4864 3.21248 15.0081 1.6311 16.5099 1.6311H16.5ZM12.6808 2.14828C12.0841 2.88427 11.5271 3.77938 11.0398 4.86347C10.2839 6.53436 9.717 8.53345 9.35895 10.7215C7.29024 10.5524 5.22152 10.3137 3.1528 10.0054C5.0226 6.17631 8.49367 3.27215 12.6908 2.14828H12.6808ZM1.6311 16.5C1.6311 14.7595 1.94937 13.0986 2.49638 11.547C4.69439 11.8852 6.9123 12.1438 9.1302 12.3228C8.97107 13.6655 8.8915 15.0579 8.8915 16.5C8.8915 17.9421 8.98101 19.3246 9.1302 20.6772C6.9123 20.8562 4.70434 21.1148 2.49638 21.453C1.94937 19.9014 1.6311 18.2405 1.6311 16.5ZM3.1528 23.0045C5.21157 22.6962 7.28029 22.4575 9.35895 22.2884C9.72694 24.4765 10.2839 26.4656 11.0398 28.1465C11.5271 29.2306 12.0841 30.1257 12.6808 30.8617C8.48373 29.7477 5.0226 26.8336 3.14286 23.0045H3.1528ZM16.5099 31.3788C15.0081 31.3788 13.4964 29.7975 12.3526 27.0524C11.7658 25.6203 11.2984 23.9693 10.9901 22.189C14.67 21.9602 18.3499 21.9602 22.0199 22.1691C21.7116 23.9593 21.2441 25.6103 20.6573 27.0425C19.5235 29.7875 18.0018 31.3689 16.5 31.3689L16.5099 31.3788ZM20.3291 30.8617C20.9259 30.1257 21.4828 29.2306 21.9702 28.1465C22.726 26.4656 23.2929 24.4665 23.6609 22.2685C25.7396 22.4277 27.8083 22.6664 29.877 22.9747C28.0072 26.8237 24.5362 29.7477 20.3291 30.8617ZM23.8897 20.6474C24.0389 19.3146 24.1284 17.9222 24.1284 16.5C24.1284 15.0778 24.0389 13.6854 23.8897 12.3526C26.1175 12.1835 28.3354 11.915 30.5335 11.5868C31.0705 13.1284 31.3888 14.7794 31.3888 16.5C31.3888 18.2206 31.0805 19.8716 30.5335 21.4132C28.3255 21.085 26.1076 20.8165 23.8897 20.6474Z" fill="white"/>
</g>
<defs>
<clipPath id="clip0_14483_45354">
<rect width="33" height="33" fill="white"/>
</clipPath>
</defs>
</svg>
