<svg width="31" height="28" viewBox="0 0 31 28" fill="none" xmlns="http://www.w3.org/2000/svg">
<g clip-path="url(#clip0_14483_45450)">
<path d="M0.780336 11.5934H4.07509C4.50861 11.5934 4.85542 11.1891 4.85542 10.6837C4.85542 10.1783 4.50861 9.77393 4.07509 9.77393H0.780336C0.346816 9.77393 0 10.1783 0 10.6837C0 11.1891 0.346816 11.5934 0.780336 11.5934Z" fill="white"/>
<path d="M0.780336 8.27311H4.07509C4.50861 8.27311 4.85542 7.86878 4.85542 7.36336C4.85542 6.85795 4.50861 6.45361 4.07509 6.45361H0.780336C0.346816 6.45361 0 6.85795 0 7.36336C0 7.86878 0.346816 8.27311 0.780336 8.27311Z" fill="white"/>
<path d="M0.780336 14.9059H4.07509C4.50861 14.9059 4.85542 14.5016 4.85542 13.9962C4.85542 13.4908 4.50861 13.0864 4.07509 13.0864H0.780336C0.346816 13.0864 0 13.4908 0 13.9962C0 14.5016 0.346816 14.9059 0.780336 14.9059Z" fill="white"/>
<path d="M0.780336 4.95328H4.07509C4.50861 4.95328 4.85542 4.54895 4.85542 4.04354C4.85542 3.53812 4.50861 3.13379 4.07509 3.13379H0.780336C0.346816 3.13379 0 3.53812 0 4.04354C0 4.54895 0.346816 4.95328 0.780336 4.95328Z" fill="white"/>
<path d="M1.80377 1.81949H20.0516V5.31075C20.0516 5.81616 20.3984 6.22049 20.832 6.22049C21.2655 6.22049 21.6123 5.81616 21.6123 5.31075V0.909747C21.6123 0.404332 21.2655 0 20.832 0H1.80377C1.37025 0 1.02344 0.404332 1.02344 0.909747C1.02344 1.41516 1.37025 1.81949 1.80377 1.81949Z" fill="white"/>
<path d="M0.780336 21.5461H4.07509C4.50861 21.5461 4.85542 21.1417 4.85542 20.6363C4.85542 20.1309 4.50861 19.7266 4.07509 19.7266H0.780336C0.346816 19.7266 0 20.1309 0 20.6363C0 21.1417 0.346816 21.5461 0.780336 21.5461Z" fill="white"/>
<path d="M0.780336 18.2262H4.07509C4.50861 18.2262 4.85542 17.8219 4.85542 17.3165C4.85542 16.8111 4.50861 16.4067 4.07509 16.4067H0.780336C0.346816 16.4067 0 16.8111 0 17.3165C0 17.8219 0.346816 18.2262 0.780336 18.2262Z" fill="white"/>
<path d="M20.832 15.668C20.3984 15.668 20.0516 16.0723 20.0516 16.5777V26.1806H1.80377C1.37025 26.1806 1.02344 26.5849 1.02344 27.0904C1.02344 27.5958 1.37025 28.0001 1.80377 28.0001H20.832C21.2655 28.0001 21.6123 27.5958 21.6123 27.0904V16.5777C21.6123 16.0723 21.2655 15.668 20.832 15.668Z" fill="white"/>
<path d="M30.8651 5.22508L29.1043 2.2237C28.9909 2.02153 28.8109 1.88934 28.6041 1.84269C28.3974 1.79604 28.1906 1.84269 28.0172 1.98265L10.4163 16.0099C10.4163 16.0099 10.403 16.0254 10.3963 16.0254C10.3763 16.041 10.3563 16.0643 10.3296 16.0876C10.3096 16.111 10.2896 16.1265 10.2762 16.1498C10.2762 16.1498 10.2629 16.1654 10.2562 16.1732L6.48126 21.3828C6.2545 21.6938 6.23449 22.1448 6.43458 22.4792C6.58131 22.7358 6.82808 22.8757 7.08152 22.8757C7.16823 22.8757 7.24826 22.8602 7.33496 22.8291L12.8707 20.6208C12.8707 20.6208 12.884 20.613 12.8974 20.6053C12.9307 20.5897 12.9574 20.5742 12.9907 20.5586C13.0041 20.5508 13.0174 20.5431 13.0307 20.5275C13.0374 20.5275 13.0508 20.5197 13.0574 20.5119L30.6583 6.49251C31.0118 6.21259 31.1052 5.64497 30.8651 5.23286V5.22508ZM12.2638 18.9413L9.49589 20.0454L11.3834 17.4406L28.2573 3.99654L29.1377 5.49723L12.2638 18.9335V18.9413Z" fill="white"/>
<path d="M4.84875 23.9566C4.84875 23.4512 4.50194 23.0469 4.06842 23.0469H0.780336C0.346816 23.0469 0 23.4512 0 23.9566C0 24.462 0.346816 24.8664 0.780336 24.8664H4.07509C4.50861 24.8664 4.85542 24.462 4.85542 23.9566H4.84875Z" fill="white"/>
</g>
<defs>
<clipPath id="clip0_14483_45450">
<rect width="31" height="28" fill="white"/>
</clipPath>
</defs>
</svg>
