<svg width="30" height="25" viewBox="0 0 30 25" fill="none" xmlns="http://www.w3.org/2000/svg">
<g clip-path="url(#clip0_14483_45434)">
<path d="M18.2986 13.0929H25.5084C25.8309 13.0929 26.096 12.8254 26.096 12.5001C26.096 12.1747 25.8309 11.9072 25.5084 11.9072H18.2986C17.9761 11.9072 17.7109 12.1747 17.7109 12.5001C17.7109 12.8254 17.9761 13.0929 18.2986 13.0929Z" fill="white"/>
<path d="M18.2986 16.4908H23.172C23.4945 16.4908 23.7597 16.2233 23.7597 15.898C23.7597 15.5727 23.4945 15.3052 23.172 15.3052H18.2986C17.9761 15.3052 17.7109 15.5727 17.7109 15.898C17.7109 16.2233 17.9761 16.4908 18.2986 16.4908Z" fill="white"/>
<path d="M5.76812 11.459C5.71796 12.4061 6.04763 13.2881 6.62096 13.9532L5.57462 14.3509C4.72178 14.6762 4.14844 15.5148 4.14844 16.4402V19.2309C4.14844 19.5562 4.41361 19.8237 4.73611 19.8237H13.7805C14.103 19.8237 14.3682 19.5562 14.3682 19.2309V16.4402C14.3682 15.5221 13.7949 14.6834 12.942 14.3509L11.8885 13.946C12.3759 13.3749 12.7055 12.6519 12.7485 11.8422C12.856 9.90466 11.3797 8.23462 9.459 8.12617C7.53831 8.01773 5.88279 9.50703 5.77529 11.4446L5.76812 11.459ZM9.38733 9.31906C10.663 9.39135 11.6449 10.4975 11.5732 11.7844C11.5302 12.623 11.0428 13.3315 10.3548 13.7074C10.2115 13.787 10.061 13.8448 9.90333 13.8882C9.8675 13.9026 9.8245 13.9099 9.7815 13.9171C9.62383 13.9532 9.46616 13.9749 9.30133 13.9749C9.27983 13.9749 9.25116 13.9749 9.22966 13.9749C8.85699 13.9749 8.48432 13.8737 8.14748 13.693C7.38781 13.2737 6.88613 12.4423 6.9363 11.5169C7.00797 10.23 8.10448 9.24676 9.38016 9.31183L9.38733 9.31906ZM9.78867 15.1244C9.8675 15.11 9.94633 15.1027 10.018 15.0883C10.1828 15.0521 10.3405 15.0015 10.4982 14.9437C10.5555 14.922 10.6128 14.9003 10.663 14.8714C10.7132 14.8497 10.7633 14.8353 10.8063 14.8063L12.5192 15.4642C12.9205 15.616 13.1857 16.0137 13.1857 16.4402V18.638H5.32378V16.4402C5.32378 16.0064 5.59612 15.616 5.99029 15.4642L7.70314 14.8063C7.72464 14.8208 7.75331 14.828 7.78198 14.8425C7.93248 14.9148 8.09015 14.9726 8.25498 15.0232C8.31232 15.0377 8.36965 15.0594 8.43415 15.0738C8.59899 15.1172 8.77099 15.1389 8.94299 15.1534C8.98599 15.1534 9.02182 15.1678 9.06483 15.175C9.12933 15.175 9.19383 15.175 9.25833 15.175C9.31566 15.175 9.36583 15.1606 9.42316 15.1606C9.545 15.1606 9.66683 15.1461 9.78867 15.1244Z" fill="white"/>
<path d="M28.0363 2.96414H20.7477V0.592828C20.7477 0.267496 20.4826 0 20.1601 0H9.83994C9.51744 0 9.25227 0.267496 9.25227 0.592828V2.96414H1.96369C0.88151 2.96414 0 3.85338 0 4.94505V23.0191C0 24.1108 0.88151 25 1.96369 25H28.0363C29.1185 25 30 24.1108 30 23.0191V4.94505C30 3.85338 29.1185 2.96414 28.0363 2.96414ZM10.4276 4.38114V1.18566H19.5724V4.38114H10.4276ZM9.83994 5.5668H20.1601C20.4826 5.5668 20.7477 5.29931 20.7477 4.97397V4.1498H28.0363C28.4735 4.1498 28.8247 4.50405 28.8247 4.94505V23.0191C28.8247 23.4601 28.4735 23.8143 28.0363 23.8143H1.96369C1.52652 23.8143 1.17535 23.4601 1.17535 23.0191V4.94505C1.17535 4.50405 1.52652 4.1498 1.96369 4.1498H9.25227V4.97397C9.25227 5.29931 9.51744 5.5668 9.83994 5.5668Z" fill="white"/>
</g>
<defs>
<clipPath id="clip0_14483_45434">
<rect width="30" height="25" fill="white"/>
</clipPath>
</defs>
</svg>
