<svg width="28" height="33" viewBox="0 0 28 33" fill="none" xmlns="http://www.w3.org/2000/svg">
<g clip-path="url(#clip0_15005_45222)">
<g clip-path="url(#clip1_15005_45222)">
<path d="M27.3393 4.93652H24.1003C23.7396 4.93652 23.4414 5.23934 23.4414 5.60554C23.4414 5.97173 23.7396 6.27455 24.1003 6.27455H26.6804V31.6619H6.185V29.0422C6.185 28.676 5.88676 28.3731 5.52609 28.3731C5.16543 28.3731 4.86719 28.676 4.86719 29.0422V32.3309C4.86719 32.6971 5.16543 32.9999 5.52609 32.9999H27.3393C27.7 32.9999 27.9982 32.6971 27.9982 32.3309V5.60554C27.9982 5.23934 27.7 4.93652 27.3393 4.93652Z" fill="white"/>
<path d="M23.131 27.3944V0.669014C23.131 0.302817 22.8328 0 22.4721 0H0.658905C0.298241 0 0 0.302817 0 0.669014V27.3944C0 27.7606 0.298241 28.0634 0.658905 28.0634H22.4721C22.8328 28.0634 23.131 27.7606 23.131 27.3944ZM21.8132 1.33803V26.7254H1.31781V1.33803H21.8132Z" fill="white"/>
<path d="M4.24484 5.70424H14.4128C14.7735 5.70424 15.0717 5.40142 15.0717 5.03523C15.0717 4.66903 14.7735 4.36621 14.4128 4.36621H4.24484C3.88418 4.36621 3.58594 4.66903 3.58594 5.03523C3.58594 5.40142 3.88418 5.70424 4.24484 5.70424Z" fill="white"/>
<path d="M4.24484 10.2252H18.1373C18.498 10.2252 18.7962 9.92242 18.7962 9.55622C18.7962 9.19002 18.498 8.88721 18.1373 8.88721H4.24484C3.88418 8.88721 3.58594 9.19002 3.58594 9.55622C3.58594 9.92242 3.88418 10.2252 4.24484 10.2252Z" fill="white"/>
<path d="M4.24484 13.4015H18.1373C18.498 13.4015 18.7962 13.0987 18.7962 12.7325C18.7962 12.3663 18.498 12.0635 18.1373 12.0635H4.24484C3.88418 12.0635 3.58594 12.3663 3.58594 12.7325C3.58594 13.0987 3.88418 13.4015 4.24484 13.4015Z" fill="white"/>
<path d="M4.24484 16.5705H18.1373C18.498 16.5705 18.7962 16.2676 18.7962 15.9014C18.7962 15.5352 18.498 15.2324 18.1373 15.2324H4.24484C3.88418 15.2324 3.58594 15.5352 3.58594 15.9014C3.58594 16.2676 3.88418 16.5705 4.24484 16.5705Z" fill="white"/>
<path d="M4.24484 19.7467H18.1373C18.498 19.7467 18.7962 19.4439 18.7962 19.0777C18.7962 18.7115 18.498 18.4087 18.1373 18.4087H4.24484C3.88418 18.4087 3.58594 18.7115 3.58594 19.0777C3.58594 19.4439 3.88418 19.7467 4.24484 19.7467Z" fill="white"/>
<path d="M4.24484 22.9157H18.1373C18.498 22.9157 18.7962 22.6128 18.7962 22.2467C18.7962 21.8805 18.498 21.5776 18.1373 21.5776H4.24484C3.88418 21.5776 3.58594 21.8805 3.58594 22.2467C3.58594 22.6128 3.88418 22.9157 4.24484 22.9157Z" fill="white"/>
</g>
</g>
<defs>
<clipPath id="clip0_15005_45222">
<rect width="28" height="33" fill="white"/>
</clipPath>
<clipPath id="clip1_15005_45222">
<rect width="28" height="33" fill="white"/>
</clipPath>
</defs>
</svg>
