<svg width="27" height="35" viewBox="0 0 27 35" fill="none" xmlns="http://www.w3.org/2000/svg">
<g clip-path="url(#clip0_14483_45476)">
<path d="M26.1359 3.34116L23.0595 0.273865C22.886 0.100417 22.6578 0.00912885 22.4113 0.00912885C22.1648 0.00912885 21.9366 0.100417 21.7632 0.273865L19.3349 2.70214L16.9066 0.273865C16.7332 0.100417 16.505 0.00912885 16.2585 0.00912885C16.012 0.00912885 15.7838 0.100417 15.6195 0.273865L13.1912 2.70214L10.772 0.264737C10.5986 0.0912885 10.3704 0 10.1239 0C9.87741 0 9.64919 0.0912885 9.47574 0.264737L7.04747 2.69301L4.62833 0.264737C4.45488 0.0912885 4.22666 0 3.98931 0C3.75196 0 3.51461 0.0912885 3.34116 0.264737L0.264737 3.34116C0.0912885 3.51461 0 3.74283 0 3.98931V31.029C0 31.2754 0.0912885 31.5037 0.264737 31.668L3.34116 34.7444C3.69718 35.1004 4.2723 35.1004 4.62833 34.7444L7.0566 32.3161L9.48487 34.7444C9.65832 34.9178 9.88654 35.0091 10.133 35.0091C10.3795 35.0091 10.6077 34.9178 10.772 34.7444L13.2003 32.3161L15.6286 34.7444C15.9846 35.1004 16.5597 35.1004 16.9158 34.7444L19.344 32.3161L21.7723 34.7444C21.9457 34.9178 22.174 35.0091 22.4204 35.0091C22.6669 35.0091 22.8951 34.9178 23.0595 34.7444L26.1268 31.668C26.3002 31.4945 26.3915 31.2663 26.3915 31.0198V3.98018C26.3915 3.7337 26.3002 3.50548 26.1268 3.33203L26.1359 3.34116ZM24.584 30.6455L22.4204 32.8091L19.9922 30.3808C19.8187 30.2074 19.5905 30.1161 19.344 30.1161C19.0975 30.1161 18.8693 30.2074 18.6959 30.3808L16.2676 32.8091L13.8393 30.3808C13.6659 30.2074 13.4377 30.1161 13.1912 30.1161C12.9447 30.1161 12.7165 30.2074 12.5522 30.3808L10.1239 32.8091L7.69562 30.3808C7.52217 30.2074 7.29395 30.1161 7.04747 30.1161C6.80099 30.1161 6.57277 30.2074 6.40845 30.3808L3.98018 32.8091L1.81664 30.6455V4.36359L3.98018 2.20005L6.40845 4.62833C6.5819 4.80177 6.81012 4.89306 7.0566 4.89306C7.30308 4.89306 7.5313 4.80177 7.69562 4.62833L10.1239 2.20005L12.5522 4.62833C12.7256 4.80177 12.9538 4.89306 13.2003 4.89306C13.4468 4.89306 13.675 4.80177 13.8393 4.62833L16.2676 2.20005L18.6959 4.62833C18.8693 4.80177 19.0975 4.89306 19.344 4.89306C19.5905 4.89306 19.8187 4.80177 19.983 4.62833L22.4113 2.20005L24.5749 4.36359V30.6455H24.584Z" fill="white"/>
<path d="M20.459 8.68164H5.94413C5.44205 8.68164 5.03125 9.09244 5.03125 9.59453C5.03125 10.0966 5.44205 10.5074 5.94413 10.5074H20.459C20.9611 10.5074 21.3719 10.0966 21.3719 9.59453C21.3719 9.09244 20.9611 8.68164 20.459 8.68164Z" fill="white"/>
<path d="M20.4561 12.6343H17.7723C17.2702 12.6343 16.8594 13.0451 16.8594 13.5472C16.8594 14.0492 17.2702 14.46 17.7723 14.46H20.4561C20.9582 14.46 21.369 14.0492 21.369 13.5472C21.369 13.0451 20.9582 12.6343 20.4561 12.6343Z" fill="white"/>
<path d="M5.94413 14.46H15.5751C16.0772 14.46 16.488 14.0492 16.488 13.5472C16.488 13.0451 16.0772 12.6343 15.5751 12.6343H5.94413C5.44205 12.6343 5.03125 13.0451 5.03125 13.5472C5.03125 14.0492 5.44205 14.46 5.94413 14.46Z" fill="white"/>
<path d="M5.94413 18.4127H12.9551C13.4572 18.4127 13.868 18.0019 13.868 17.4998C13.868 16.9977 13.4572 16.5869 12.9551 16.5869H5.94413C5.44205 16.5869 5.03125 16.9977 5.03125 17.4998C5.03125 18.0019 5.44205 18.4127 5.94413 18.4127Z" fill="white"/>
<path d="M20.4574 16.5869H15.2723C14.7702 16.5869 14.3594 16.9977 14.3594 17.4998C14.3594 18.0019 14.7702 18.4127 15.2723 18.4127H20.4574C20.9595 18.4127 21.3703 18.0019 21.3703 17.4998C21.3703 16.9977 20.9595 16.5869 20.4574 16.5869Z" fill="white"/>
<path d="M5.94413 22.3658H18.4689C18.971 22.3658 19.3818 21.955 19.3818 21.4529C19.3818 20.9508 18.971 20.54 18.4689 20.54H5.94413C5.44205 20.54 5.03125 20.9508 5.03125 21.4529C5.03125 21.955 5.44205 22.3658 5.94413 22.3658Z" fill="white"/>
<path d="M20.459 24.502H5.94413C5.44205 24.502 5.03125 24.9128 5.03125 25.4148C5.03125 25.9169 5.44205 26.3277 5.94413 26.3277H20.459C20.9611 26.3277 21.3719 25.9169 21.3719 25.4148C21.3719 24.9128 20.9611 24.502 20.459 24.502Z" fill="white"/>
</g>
<defs>
<clipPath id="clip0_14483_45476">
<rect width="26.4006" height="35" fill="white"/>
</clipPath>
</defs>
</svg>
