<svg fill="none" height="24" viewBox="0 0 24 24" width="24" xmlns="http://www.w3.org/2000/svg"><path d="m7.51794 4.22363.04115.06924.15104.26444.31814-.16559c.0296-.01505.04616-.05218.05218-.09935.00753-.1405-.09734-.33669-.24788-.24286-.11642.05821-.18868.10236-.31513.17362m-.3337.06924-.0828-.14903c.22029-.1405.45815-.25942.68596-.38336.26846-.14903.64833.21125.61972.53189-.00401.0577-.02057.10889-.05369.16308l.54796.39942c-.10186.04717-.18215.09082-.30409.142l-.48273-.35074-.26444.1405.28201.47017c-.10889.06924-.17513.11039-.30208.18515l-.64632-1.14958zm7.26406 15.06453.4998 1.4296c.0978-.0362.2012-.0628.3-.1069l-.4852-1.4221c-.1325.0452-.1942.0643-.3141.0994m-2.0012 1.3503-.1159-.2896-.1199-.3136-.1029.3136-.0999.3076.4391-.0185zm.1982-.2896.3262.7914c-.1064.006-.2068.0165-.3016.0276l-.1009-.2549-.6548.0165-.0753.2685c-.1039-.0081-.2017-.0116-.3066-.0116l.2845-.8375.1998-.6362.0105-.0196.3322-.0165.0165.0411.269.6307zm1.6419-16.69626.3387.10739c.0913.02709.2143-.11893.2143-.24287 0-.06121-.0201-.11189-.1019-.13247-.1249-.04566-.2102-.07025-.3462-.10437l-.0708.23684-.0346.13548zm-.2067.79031c-.1215-.03663-.2113-.04968-.3443-.09032l.2464-.83547.1786-.59561c.259.06222.5044.14551.7502.2268.14.04215.2143.20021.2289.36931.0085.22631-.1039.47419-.3342.52537l.0888.6749c-.1074-.04265-.1867-.07577-.3066-.12394l-.0783-.58809-.2885-.08982-.1405.52787zm-4.59652 15.18645c-.01054-.0442-.02659-.0773-.07928-.0994l-.37886-.143-.08531.2429-.0306.0883-.00251.006.34724.126c.09233.0441.18466-.0412.21778-.1325.01154-.0246.02158-.0577.01154-.0883zm.28302 0v.0828c-.02258.2017-.16008.4059-.38037.4305l.04968.7035c-.10237-.0211-.21928-.0562-.32817-.1039l-.01104-.6613-.29757-.1285-.24187.5866c-.09735-.0316-.1962-.0647-.29104-.1109l.3056-.711.03713-.0883.24839-.5866.67793.2614c.15104.0532.21928.1892.23133.3252m4.322-.2143c-.4396.0959-.7788.1772-1.2139.2449l.0397.2544c.1606-.0276.3086-.0477.4792-.0662l.2198 1.2203.3241-.0607-.2624-1.2198c.1656-.0387.3201-.0828.4857-.1195l-.0717-.2529zm1.6524-14.27618.3272-.62974.8811-.41045c-.0928-.06624-.1937-.1109-.285-.17362l-.6082.27799-.1114-.66135c-.1279-.05771-.2042-.08631-.3357-.13649l.1757.95841-.3267.6202.2825.15505zm3.3084.38738c-.1395-.17262-.3714-.14753-.4371-.0286l-1.0257 1.03317c-.1505.15404-.1365.38436.0186.49626 1.549 1.71609 2.1979 3.84967 1.6885 6.49557-.009.1701.0994.3066.2344.3482l1.4196.413c.1886.0537.3096-.0622.3502-.2238.7291-3.254-.2699-6.45391-2.248-8.5343m1.6418 9.5178-1.4226-.4867c-.0742-.0291-.2669-.0291-.3678.2233-1.1481 2.7492-3.8187 4.6339-6.9112 4.6339-3.09262 0-5.81588-1.9293-6.91431-4.6761-.08179-.2102-.28101-.2102-.35678-.1811l-1.41256.4867c-.15305.0542-.24588.1902-.16459.3849 1.38546 3.5426 4.83783 6.0414 8.84824 6.0414 4.0103 0 7.4758-2.5154 8.8672-6.0545.0743-.1851-.0125-.3176-.1656-.3718zm-17.61708-.7602 1.41758-.413c.13247-.0411.24136-.1781.23082-.3482-.51032-2.6419.1375-4.77948 1.68554-6.49557.15606-.1119.17212-.34222.02359-.49627l-1.03019-1.03718c-.09986-.11541-.28201-.11541-.43807.04365-1.97458 2.0809-2.97215 5.26817-2.24053 8.52727.04064.1566.16459.2725.35126.2188m14.21548-6.59844c.004-.06272-.0332-.1415-.1225-.22831-1.1345-1.20277-2.2997-1.87315-3.8969-2.25049-.0894-.02459-.1952-.04767-.263.01656-.0722.05469-.0923.16559-.0773.33067l.262 3.69764c.008.14049.0717.25239.1656.3101.1028.05469.2248.04516.3522-.01656l3.33-1.60771c.1073-.05068.2283-.10788.2504-.21978 0-.00803.004-.01656 0-.03262m.6739 6.60694c.0993.0653.2142.141.3181.1074.0698-.0241.133-.0988.1701-.2403.4672-1.5792.4672-2.9274 0-4.48999-.0281-.09885-.0727-.1982-.157-.23584-.0808-.0286-.1862.00502-.3347.10738l-3.0545 2.07535c-.1179.0788-.1781.1867-.1781.2986s.0602.2223.1781.297l3.0585 2.0804zm-4.9658 4.2983c.0552.0437.149.0577.291.0186 1.5892-.3779 2.7534-1.0513 3.8895-2.242.0662-.0818.141-.1611.1204-.2489-.0211-.0888-.0954-.1646-.2494-.2378l-3.3304-1.6138c-.127-.0617-.2484-.0617-.3513-.008-.0968.0622-.1571.1666-.1666.3141l-.269 3.6846c-.0015.1204-.0165.2589.0663.3332m-1.0081-4.2702c1.3152 0 2.385-1.0673 2.385-2.3819 0-1.3147-1.0693-2.38149-2.385-2.38952-1.3137 0-2.38257 1.07482-2.38257 2.38952 0 1.3146 1.06937 2.3819 2.38257 2.3819zm-5.2383 1.8576c0 .0643.04265.1435.12244.2258 1.14761 1.2048 2.30626 1.8742 3.89796 2.249.1034.0306.2027.0472.273-.011.0722-.0517.0933-.1621.0813-.3392 0-.002-.2715-3.6967-.2715-3.6967-.0115-.1369-.0637-.2478-.1616-.302-.0993-.0577-.2233-.0577-.3558.0035l-3.32336 1.6167c-.11642.0552-.24036.1159-.25893.2243 0 .0075-.00401.0211-.00401.0296m-.04968-8.43544c.01505.11541.14151.1691.25391.2233l3.32437 1.61273c.1325.06623.2555.06623.3563.01204.0928-.06172.1546-.16559.1626-.3096l.268-3.6876c.015-.17964-.0096-.282-.0748-.3367-.0703-.06121-.1741-.04465-.2735-.02458-1.5952.38185-2.75436 1.05575-3.90097 2.25049-.09283.10738-.13448.19018-.11591.26093m-.66689 1.81896c-.10789-.06975-.2238-.14903-.31864-.10688-.07778.02459-.13298.10688-.17363.23483-.46265 1.58762-.46265 2.93142 0 4.49492.03162.1029.06574.2058.15958.2314.07577.0326.18717 0 .33219-.0999l3.05243-2.0799c.11341-.0747.18165-.1821.18165-.293 0-.1194-.06824-.2198-.18165-.3021l-3.05243-2.07937zm-.06674-4.61439.98754 1.09639c.13599.14753.28954.13097.48825-.02609 1.24446-.97597 2.84422-1.55452 4.54582-1.55452s3.3038.57554 4.5613 1.55452c.1967.14552.3458.17362.4883.02609l.987-1.09639c.1104-.12093.1104-.28903-.1044-.46816-1.6514-1.28908-3.6927-2.08391-5.9362-2.08391-2.24359 0-4.30146.79483-5.92428 2.08892-.21276.17362-.20373.34222-.09383.46315m18.03111 6.99986c0 .1405-.006.281-.0216.3929l-.004.0291-.0321.0171c-.5103.305-1.1702.4787-1.8316.4952-.0165.0828-.0868.6824-.0993.7652.6162.1747 1.2138.5129 1.6323.9439l.0166.0281v.0286c-.0331.2323-.1159.5469-.2093.7542l-.0105.0311-.0296.0045c-.5776.1661-1.2595.1606-1.8903.0055-.0301.0778-.2624.6323-.2855.7141.5515.3477 1.0402.8269 1.3137 1.3402l.0151.0296-.0081.0286c-.0863.2032-.2474.4998-.3929.6769l-.0155.0261h-.0367c-.5896.0045-1.2489-.1691-1.8235-.4877-.0527.0697-.4366.575-.4878.6413.4517.4701.7954 1.0617.9344 1.6453l.0095.0286-.018.0236c-.131.1786-.3724.4155-.5485.556l-.0206.0165-.0431-.0065c-.5676-.1505-1.1682-.4963-1.6344-.9454-.0687.0527-.5449.4246-.6147.4792.3026.555.4878 1.1983.4878 1.7784v.0792l-.0332.0221c-.1771.142-.4686.3091-.6774.3954l-.0206.0101-.0336-.0146c-.5123-.2965-1.0011-.7793-1.3353-1.3387-.0818.0361-.6623.285-.7411.3201.0783.3071.1269.6358.136.9519 0 .3251-.0572.6478-.136.9408l-.004.0306-.0311.0166c-.1937.0813-.5209.1606-.7487.2007l-.0347.0045-.02-.0236c-.4391-.419-.7773-1.0136-.9539-1.6348-.0783.002-.678.0858-.7648.1014-.0095.6538-.1887 1.3157-.4988 1.828l-.017.0266-.0342.005c-.2097.0316-.5439.0316-.7707 0l-.0276-.005-.0201-.0266c-.3021-.5128-.4817-1.1742-.4943-1.828-.0908-.0075-.7241-.0994-.8109-.1014-.1731.6167-.5128 1.2073-.94184 1.6318l-.02308.0221-.03463-.0055c-.23333-.0346-.54395-.124-.75069-.2098l-.02459-.0135-.01003-.0246c-.08782-.2925-.13298-.6187-.13298-.9434 0-.3246.04516-.6367.12645-.9438-.08078-.0356-.62875-.2574-.70753-.2925-.33671.566-.82496 1.0587-1.34231 1.3447l-.0276.0146-.03262-.009c-.21276-.0944-.49527-.2555-.67592-.3919l-.02258-.0231v-.0617c0-.5876.17864-1.2339.48524-1.7999-.06875-.0527-.57908-.4411-.64883-.4928-.46767.4511-1.0623.7908-1.63686.9388l-.03161.0086-.03112-.0211c-.17613-.1425-.40093-.3698-.54394-.5489l-.01857-.0322.00652-.0306c.15556-.581.49829-1.1716.9469-1.6318-.05069-.0692-.43807-.5705-.49277-.6483-.56954.3227-1.23442.5043-1.82353.4913h-.03212l-.02057-.0196c-.1375-.1821-.30259-.4762-.3904-.6799l-.01405-.0321.01405-.0256c.29656-.5209.7823-1.0031 1.33629-1.3378-.03613-.0828-.27298-.6417-.31212-.7195-.62926.157-1.31572.1606-1.891781 0l-.029104-.008-.015556-.0261c-.078782-.1942-.16459-.5214-.198712-.7527l-.007527-.0366.020574-.0286c.417998-.4261 1.008616-.7618 1.639876-.9509-.00703-.0908-.09936-.7236-.1104-.8109-.65534-.0085-1.318219-.1786-1.8325621-.4842l-.0260935-.0166-.002509-.0371c-.01505389-.1039-.01856646-.2444-.01856645-.3884s.00351261-.2735.01856655-.3889l.002509-.0331.0260935-.0166c.514343-.302 1.177722-.4797 1.832562-.4877.01556-.0873.09384-.703.10338-.7893-.62374-.1781-1.218872-.51732-1.641386-.94334l-.017563-.02057.00552-.03312c.0281-.23985.116417-.55397.206239-.75267l.00853-.02911.031613-.00802c.568037-.1686 1.257007-.16509 1.889777-.00803.03562-.07427.26494-.63275.30158-.71956-.558-.33519-1.04926-.81841-1.34081-1.33775l-.01405-.03362.01405-.0296c.09083-.20875.25642-.49125.38639-.66738l.02007-.02709h.03512c.59815-.00903 1.25851.17261 1.82555.49024.05319-.06624.44208-.58959.49276-.66035-.45061-.46766-.79133-1.05825-.93836-1.64133l-.00552-.02458.01154-.02459c.14402-.18215.38287-.41798.559-.55397l.0266-.01656.0271.00301c.5871.15004 1.17922.49878 1.63987.94787.06774-.05319.52789-.40895.59815-.46013-.31814-.55698-.49628-1.20227-.49628-1.77982v-.08782l.03011-.01756c.17261-.13749.46617-.30458.67441-.38888l.02258-.01656.03412.01656c.51435.29053.99908.77726 1.33679 1.33625.0813-.02961.68044-.29304.76274-.32717-.07878-.30658-.12846-.63074-.12344-.95138 0-.32866.04064-.644785.12846-.935819l.00401-.034121.03061-.010036c.1947-.080285.51685-.168097.74617-.20272l.03413-.003512.02609.020573c.42954.418988.76922 1.014605.94942 1.642335.0898-.00803.7196-.08832.8039-.10487.0135-.6463.1901-1.307649.5008-1.8214739l.012-.0260927.0331-.0095339c.2253-.02759797.558-.02759794.7773.0000001l.0291.0095339.0181.0260927c.3106.5138248.4917 1.1751738.4917 1.8164538.0939.02157.7101.10186.7979.10989.1832-.62823.5219-1.220838.9539-1.636815l.0201-.02258.0281.00853c.2343.025591.552.113904.7557.204225l.0246.009032.01.035125c.0893.289027.131.601633.131.926293-.0055.32365-.0522.6478-.131.9589.0788.03312.6769.28251.7607.31914.3337-.55899.8094-1.0412 1.3293-1.33625l.0301-.01656.0321.01656c.2043.08581.4928.25139.6699.39189l.0256.01455v.08129c0 .5896-.1821 1.23439-.4907 1.78585.0677.05118.5615.43805.6357.49626.4662-.45462 1.0583-.80034 1.6419-.94285l.0261-.01556.0271.02911c.1741.12845.412.37483.5465.55096l.0236.02759-.0091.02911c-.149.58357-.5003 1.17768-.9504 1.63832.0532.07225.425.5635.4833.63425.5815-.31412 1.2369-.49074 1.832-.4797h.0276l.0191.02458c.1455.18667.3116.47118.3904.66988l.0206.03613-.0206.03011c-.2946.51382-.7813.99353-1.3378 1.33273.0351.08279.2594.64128.3036.72357.6242-.16107 1.3112-.16509 1.8817 0l.0331.00401.0126.03312c.0793.19871.1726.52085.2032.75669l.0045.0286-.0246.02108c-.4165.43354-1.0131.77276-1.6378.95086.0125.0868.0903.6985.1058.7853.6579.012 1.3148.1867 1.8251.4918l.0321.0165.004.0331c.0156.1119.0216.2449.0216.3889m-6.7221 5.6616.6247.6734-1.0502-.3096c-.0868.0688-.145.0908-.2208.1571l.9108 1.2273c.0792-.0592.16-.136.2323-.1957l-.554-.7391 1.0603.3191c.0718-.0627.1756-.1344.2479-.2243l-1.0568-1.1169c-.0572.0597-.1209.1415-.1942.2087zm-.7261 1.7944c0-.0883-.0226-.1701-.0652-.2479-.1255-.2313-.4225-.3071-.6549-.1746-.1626.0868-.2454.2529-.2454.423.0036.0778.0241.1656.0708.2398.012.0246.0286.0497.0522.0743.144.1726.4009.2133.5971.0994.0547-.0296.0984-.0628.1325-.0994.0728-.0883.1134-.2067.1134-.3141m.1711-.3733c.0632.1084.0954.2408.1004.3733 0 .1054-.0226.2102-.0658.3086-.0702.1375-.1736.2649-.3186.3482-.3518.2068-.8104.0828-1.0237-.2785-.007-.023-.0175-.0441-.0311-.0697-.0426-.0984-.0637-.2032-.0732-.3086.0095-.267.1395-.5128.3793-.6503.3588-.2022.8215-.0823 1.0327.2775m1.5797-2.0102.1766.283.1626.281.2208-.281.0572-.0717-.6167-.2113zm-.1731-.3452 1.5038.4963c-.0361.0441-.0637.0863-.0953.1324-.0276.0332-.0577.0663-.0783.1109l-.2644-.0943-.4095.5128.1495.2338c-.0612.0698-.1284.1466-.2072.2208l-.5951-.984-.2203-.3638.2178-.2644zm1.6649-.2203-1.1034-.6076-.1405.2529 1.3227.7406.5103-.9153-.2273-.1204-.3613.6498zm-8.7272 3.1888-.1089.9203-.4421-1.0081c-.1034-.02-.1676-.0466-.273-.0622l-.34524 1.4848c.10734.0296.20924.0406.31914.0587l.1872-.9112.4476 1.0141c.1013.0165.2153.0496.3342.0461l.1656-1.5344c-.0863-.0055-.1902.008-.284-.0081m-.0502-16.66214.1325 1.23087.3226-.03311-.1259-1.22084.4887-.03211-.0171-.27398c-.5489.03312-.7722.05219-1.3132.13348l.0367.26092.4762-.06523zm1.4963.67139c.1646.00853.3167.02459.4707.04967l-.0808-.31712-.1003-.32265-.1531.32265-.136.26745zm-.2504.51382c-.1254-.0015-.1831-.0015-.3076-.0015l.3759-.78027.3392-.70651.3372.03663.1756.66988.2459.9022c-.1139-.02158-.2027-.03814-.3086-.04265l-.0873-.28602c-.2223-.03311-.4245-.04315-.6293-.05218l-.1415.26042zm-3.12917-.37533c.02107.26795.25792.46465.51534.44006.25391-.02459.44413-.2263.44413-.48271.008-.01205 0-.0286 0-.04516-.0211-.26896-.25394-.45813-.5209-.43154-.25642.01757-.44811.22029-.43857.4767zm-.27549.02659v-.06924c-.00753-.38888.29054-.70802.68044-.74113.41599-.04115.78482.26443.81842.67941v.06222c0 .38838-.2925.71956-.69197.75669-.40194.03412-.77176-.26795-.80689-.68795zm3.15886 9.55947c.7853 0 1.4296-.6448 1.4296-1.4301 0-.6533-.4541-1.2193-1.0789-1.3764-.0085-.0627-.0246-.3603-.0246-.3603h-.7206s-.0165.3227-.0235.3889c-.5982.1817-1.0016.7276-1.0016 1.3478 0 .7853.6448 1.4301 1.4201 1.4301m-.0271.7085c-1.1838 0-2.14823-.9684-2.14823-2.1466s.96443-2.15367 2.14823-2.15367c1.1837 0 2.1467.96747 2.1467 2.15367s-.9605 2.1466-2.1467 2.1466zm-4.2312 4.6831c.20524.1124.40445.2278.62775.3342l.13448-.2223c-.3086-.161-.60165-.3437-.86158-.5253l-.85607 1.2569c.32516.2148.62072.3939.95492.5866l.13649-.2223-.68997-.4084.23233-.3247.45764.275.13348-.2148c-.14603-.0828-.29907-.1736-.46015-.2729l.19018-.262zm-1.71163-1.8631-.70352.6097.35878-1.0417c-.06372-.0903-.09383-.1521-.15957-.2353l-1.26102.856c.05671.0838.12646.1616.18617.2494l.75822-.5259-.35578 1.0502c.06072.0698.12344.1762.21026.2444l1.16668-.998c-.06474-.0688-.14201-.132-.19972-.2093m-.83248-1.2093-1.29966.7572c.04717.0908.09835.1957.15556.2845l1.29966-.7587c-.06323-.1159-.10036-.1756-.15556-.283zm1.60324 2.3614-.80087.9484-.24789-.2148.82697-.9223c-.13097-.1209-.23033-.2288-.35829-.3427l.18467-.1866c.31563.3005.59262.5293.93986.8068l-.16007.2068c-.12695-.0994-.25642-.1957-.38438-.2951" fill="#054a97"/></svg>