<svg width="19" height="19" viewBox="0 0 19 19" fill="none" xmlns="http://www.w3.org/2000/svg">
<path d="M6.17202 13.162L2.70202 9.69202C2.51504 9.50504 2.26145 9.4 1.99702 9.4C1.73259 9.4 1.479 9.50504 1.29202 9.69202C1.10504 9.879 1 10.1326 1 10.397C1 10.528 1.02579 10.6576 1.07589 10.7786C1.126 10.8995 1.19944 11.0094 1.29202 11.102L5.47202 15.282C5.86202 15.672 6.49202 15.672 6.88202 15.282L17.462 4.70202C17.649 4.51504 17.754 4.26145 17.754 3.99702C17.754 3.73259 17.649 3.479 17.462 3.29202C17.275 3.10504 17.0214 3 16.757 3C16.4926 3 16.239 3.10504 16.052 3.29202L6.17202 13.162Z" fill="black" stroke="black"/>
</svg>
