<svg fill="none" height="27" viewBox="0 0 24 27" width="24" xmlns="http://www.w3.org/2000/svg"><path d="m23.3571 25.3125h-1.0714v-24.04688c0-.698989-.5756-1.26562-1.2857-1.26562h-18c-.71009 0-1.28571.566631-1.28571 1.26562v24.04688h-1.071433c-.355018 0-.642857.2833-.642857.6328v1.0547h24v-1.0547c0-.3495-.2878-.6328-.6429-.6328zm-16.49996-21.30469c0-.34947.28784-.63281.64286-.63281h2.14286c.35502 0 .64284.28334.64284.63281v2.10938c0 .34947-.28782.63281-.64284.63281h-2.14286c-.35502 0-.64286-.28334-.64286-.63281zm0 5.0625c0-.34947.28784-.63281.64286-.63281h2.14286c.35502 0 .64284.28334.64284.63281v2.10939c0 .3495-.28782.6328-.64284.6328h-2.14286c-.35502 0-.64286-.2833-.64286-.6328zm2.78572 7.80469h-2.14286c-.35502 0-.64286-.2833-.64286-.6328v-2.1094c0-.3495.28784-.6328.64286-.6328h2.14286c.35502 0 .64284.2833.64284.6328v2.1094c0 .3495-.28782.6328-.64284.6328zm4.07144 8.4375h-3.4286v-4.4297c0-.3495.2879-.6328.6429-.6328h2.1428c.355 0 .6429.2833.6429.6328zm3.4286-9.0703c0 .3495-.2879.6328-.6429.6328h-2.1429c-.355 0-.6428-.2833-.6428-.6328v-2.1094c0-.3495.2878-.6328.6428-.6328h2.1429c.355 0 .6429.2833.6429.6328zm0-5.0625c0 .3495-.2879.6328-.6429.6328h-2.1429c-.355 0-.6428-.2833-.6428-.6328v-2.10939c0-.34947.2878-.63281.6428-.63281h2.1429c.355 0 .6429.28334.6429.63281zm0-5.06251c0 .34947-.2879.63281-.6429.63281h-2.1429c-.355 0-.6428-.28334-.6428-.63281v-2.10938c0-.34947.2878-.63281.6428-.63281h2.1429c.355 0 .6429.28334.6429.63281z" fill="#054a97"/></svg>