<svg fill="none" height="26" viewBox="0 0 24 26" width="24" xmlns="http://www.w3.org/2000/svg"><path d="m0 11.5408c.0057841-.0085.011985-.0169.0178212-.0254-.0010943.0085-.0023449.0169-.0033871.0254zm23.9999.8129c0-2.3081-.404-4.42759-1.5007-6.41638-2.1358-3.84691-5.9182-5.93729147-10.3485-5.93729147-7.29164-.01452023-11.37412 5.51521147-12.1328788 11.51537147 2.2109288-3.21391 6.1005588-6.36243 11.4834788-6.55062 0 0 5.7146 0 5.1807 5.50182h-9.16356c.33189-1.95979.96683-3.09204 1.78937-4.13729-3.91067 1.82907-6.34948 5.03729-6.29174 9.87139.04325 3.7452 2.61191 7.5922 6.2918 9.0149 4.34363 1.6694 10.04533.3774 12.51303-1.1178v-5.4728c-4.2137 2.9614-14.11481 3.1936-14.18693-3.5421h16.36603z" fill="#054a97"/></svg>