<svg fill="none" height="24" viewBox="0 0 24 24" width="24" xmlns="http://www.w3.org/2000/svg"><path d="m22.5 7.5v-3.87891c0-.19702-.0389-.39212-.1143-.57413-.0755-.18201-.186-.34737-.3254-.48665l-2.1211-2.121091c-.2812-.281175-.6626-.43915892-1.0603-.439219h-11.3789c-.39782 0-.77936.158035-1.06066.43934-.2813.281304-.43934.66284-.43934 1.06066v21c0 .3978.15804.7794.43934 1.0607s.66284.4393 1.06066.4393h15c.3978 0 .7794-.158 1.0607-.4393s.4393-.6629.4393-1.0607v-13.5c0-.39782-.158-.77936-.4393-1.06066s-.6629-.43934-1.0607-.43934zm-9 12.75c0 .1989-.079.3897-.2197.5303-.1406.1407-.3314.2197-.5303.2197h-1.5c-.1989 0-.3897-.079-.5303-.2197-.1407-.1406-.2197-.3314-.2197-.5303v-1.5c0-.1989.079-.3897.2197-.5303.1406-.1407.3314-.2197.5303-.2197h1.5c.1989 0 .3897.079.5303.2197.1407.1406.2197.3314.2197.5303zm0-6c0 .1989-.079.3897-.2197.5303-.1406.1407-.3314.2197-.5303.2197h-1.5c-.1989 0-.3897-.079-.5303-.2197-.1407-.1406-.2197-.3314-.2197-.5303v-1.5c0-.1989.079-.3897.2197-.5303.1406-.1407.3314-.2197.5303-.2197h1.5c.1989 0 .3897.079.5303.2197.1407.1406.2197.3314.2197.5303zm6 6c0 .1989-.079.3897-.2197.5303-.1406.1407-.3314.2197-.5303.2197h-1.5c-.1989 0-.3897-.079-.5303-.2197-.1407-.1406-.2197-.3314-.2197-.5303v-1.5c0-.1989.079-.3897.2197-.5303.1406-.1407.3314-.2197.5303-.2197h1.5c.1989 0 .3897.079.5303.2197.1407.1406.2197.3314.2197.5303zm0-6c0 .1989-.079.3897-.2197.5303-.1406.1407-.3314.2197-.5303.2197h-1.5c-.1989 0-.3897-.079-.5303-.2197-.1407-.1406-.2197-.3314-.2197-.5303v-1.5c0-.1989.079-.3897.2197-.5303.1406-.1407.3314-.2197.5303-.2197h1.5c.1989 0 .3897.079.5303.2197.1407.1406.2197.3314.2197.5303zm0-5.25h-10.5v-6h7.5v2.25c0 .19891.079.38968.2197.53033.1406.14065.3314.21967.5303.21967h2.25zm-16.5-3h-1.5c-.39782 0-.779356.15804-1.06066.43934-.281305.2813-.43934.66284-.43934 1.06066v15c0 .3978.158035.7794.43934 1.0607.281304.2813.66284.4393 1.06066.4393h1.5c.39782 0 .77936-.158 1.06066-.4393s.43934-.6629.43934-1.0607v-15c0-.39782-.15804-.77936-.43934-1.06066s-.66284-.43934-1.06066-.43934z" fill="#054a97"/></svg>