<svg width="79" height="77" viewBox="0 0 79 77" fill="none" xmlns="http://www.w3.org/2000/svg">
<path d="M78.8426 30.3986C78.9016 30.0587 78.8528 29.6872 78.6574 29.324C77.2197 26.6799 76.1441 24.3422 75.4308 22.1578C74.7174 19.9724 74.3663 17.9412 74.3746 15.9082C74.3838 13.8742 74.7561 11.8393 75.4907 9.64746C76.2271 7.45561 77.3266 5.10772 78.7901 2.44777C78.9892 2.0837 79.0417 1.71127 78.9846 1.37135C78.9284 1.03142 78.7625 0.723078 78.5265 0.484388C78.2897 0.245699 77.9828 0.0785232 77.6454 0.0218693C77.3091 -0.0357134 76.9404 0.0172255 76.5791 0.218765C73.9396 1.6927 71.6088 2.79977 69.4319 3.54091C67.2596 4.28206 65.2385 4.65727 63.2201 4.66749C61.2036 4.67771 59.1871 4.32292 57.0194 3.60314C54.8499 2.88336 52.5311 1.7995 49.9053 0.352505C49.5477 0.154681 49.1791 0.105457 48.8408 0.165826C48.5017 0.227124 48.1948 0.397085 47.9542 0.636704C47.7165 0.877251 47.5478 1.18838 47.487 1.52831C47.4261 1.86916 47.475 2.24066 47.6731 2.60287C47.8851 2.99388 48.0851 3.37652 48.2833 3.7536C49.4141 5.92967 50.2869 7.90141 50.8942 9.75984C51.6076 11.9424 51.9624 13.9708 51.9532 16.002C51.9467 18.0322 51.8656 19.0855 50.4288 21.8829C50.1643 22.3983 49.615 23.21 48.8445 24.2465C48.1026 25.2496 47.1552 26.4607 46.0538 27.8306C35.6514 40.2777 1.98799 76.4554 2.52991 76.9951C3.02759 77.4919 33.3685 48.8984 47.8814 36.1141C51.0896 33.4198 53.8545 31.1695 55.6655 29.8581C56.3558 29.3602 56.9033 28.998 57.2903 28.7956C60.0644 27.3495 61.1114 27.2668 63.127 27.2594C65.1408 27.252 67.1555 27.6077 69.3195 28.3275C71.1332 28.9302 73.0567 29.7921 75.1709 30.9029C75.5828 31.1193 75.9976 31.3403 76.4224 31.5753C76.7819 31.7731 77.1496 31.8233 77.4869 31.7611C77.8261 31.6998 78.1348 31.5307 78.3735 31.2893C78.6122 31.0487 78.7827 30.7385 78.8426 30.3977V30.3986Z" fill="#EB6100"/>
<path d="M69.921 4.85231C67.5902 5.64546 65.4262 6.03647 63.3 6.04761C61.1766 6.05876 59.0126 5.68912 56.6919 4.91825C55.2487 4.43808 53.7298 3.80468 52.0312 2.96973L59.1554 10.1471C61.3388 12.3473 64.8963 12.3306 67.1036 10.1081L74.0066 3.1499C72.5375 3.8604 71.1984 4.41765 69.9219 4.85324L69.921 4.85231Z" fill="#F28F03"/>
<path d="M56.7895 27.734C59.7037 26.2164 60.9267 26.0604 63.2142 26.0529C65.3376 26.0436 67.4961 26.4151 69.814 27.1851C71.1678 27.6355 72.6222 28.2364 74.2157 29.0129L67.0445 21.7853C64.8565 19.5814 61.2907 19.5981 59.0807 21.8252L34.3672 46.7298C39.1053 42.4036 43.6056 38.3283 47.1207 35.2327L47.1318 35.2225L47.1447 35.2123C50.763 32.1725 53.3352 30.106 55.0025 28.8986C55.7711 28.3432 56.3554 27.9634 56.7886 27.7358L56.7895 27.734Z" fill="#DE4316"/>
<path d="M58.1959 51.392C58.2217 51.2313 58.2014 51.0557 58.1074 50.8858C57.4291 49.6375 56.9222 48.5342 56.5849 47.5042C56.2503 46.4733 56.0817 45.5157 56.0872 44.5545C56.0936 43.596 56.2678 42.6357 56.6153 41.602C56.9627 40.5673 57.4798 39.4584 58.1691 38.2046C58.265 38.0328 58.289 37.8572 58.2631 37.6956C58.2364 37.535 58.1581 37.3892 58.0475 37.2777C57.936 37.1644 57.7904 37.0854 57.6318 37.0585C57.4724 37.0316 57.2973 37.0567 57.1286 37.1514C55.8835 37.848 54.784 38.3699 53.7573 38.7182C52.7306 39.0693 51.7786 39.2457 50.8256 39.2513C49.8726 39.255 48.9215 39.0869 47.8985 38.7488C46.8764 38.408 45.7824 37.8981 44.5438 37.2145C44.3724 37.1217 44.2009 37.0975 44.0415 37.1263C43.8821 37.156 43.7355 37.2368 43.6231 37.3492C43.5116 37.4634 43.4305 37.6102 43.4019 37.7709C43.3733 37.9315 43.3964 38.1061 43.4904 38.277C43.589 38.4619 43.6848 38.643 43.7779 38.8204C44.3115 39.8476 44.7244 40.7782 45.0101 41.6549C45.3465 42.683 45.5152 43.6415 45.5115 44.6C45.506 45.5575 45.4682 46.0553 44.7899 47.3751C44.6645 47.6175 44.4065 48.0011 44.0433 48.4905C43.6904 48.9642 43.2434 49.5354 42.7263 50.1818C37.8168 56.0543 21.9335 73.1248 22.1906 73.3792C22.4238 73.6133 36.7385 60.1222 43.5862 54.09C45.1004 52.8194 46.4064 51.757 47.2598 51.1393C47.5842 50.9044 47.8432 50.7325 48.0257 50.6378C49.3363 49.9552 49.8312 49.9171 50.7804 49.9125C51.7306 49.9097 52.6808 50.0778 53.7029 50.4168C54.5573 50.7019 55.466 51.1078 56.4651 51.6325C56.6568 51.7337 56.8521 51.8387 57.054 51.9492C57.2217 52.0421 57.3968 52.0662 57.5563 52.0365C57.7157 52.0077 57.8622 51.9269 57.9747 51.8145C58.0862 51.7003 58.1655 51.5536 58.1968 51.3929L58.1959 51.392Z" fill="#F7AC00"/>
<path d="M53.9881 39.3376C52.8886 39.7119 51.8665 39.8958 50.8638 39.9023C49.861 39.906 48.8408 39.7323 47.744 39.3701C47.063 39.1416 46.3459 38.8435 45.5469 38.4497L48.9062 41.8369C49.9375 42.8752 51.6167 42.8659 52.6563 41.8174L55.9152 38.5352C55.2203 38.8704 54.589 39.1333 53.9881 39.3376Z" fill="#FBD600"/>
<path d="M47.7903 50.1347C49.1635 49.4186 49.7414 49.3462 50.8243 49.3406C51.8252 49.3378 52.8418 49.5115 53.9376 49.8765C54.5763 50.0892 55.261 50.3724 56.0149 50.7384L52.6298 47.3289C51.5985 46.2878 49.9165 46.2971 48.8723 47.3466L37.2109 59.0981C39.4468 57.0567 41.5702 55.1332 43.2292 53.6723L43.2338 53.6676L43.2393 53.663C44.9471 52.229 46.1609 51.2538 46.947 50.6845C47.3102 50.4226 47.5857 50.2424 47.7894 50.1356L47.7903 50.1347Z" fill="#F28F03"/>
<path d="M47.208 31.3366C47.2467 31.1258 47.2145 30.8963 47.0947 30.6725C46.2053 29.0351 45.5408 27.5891 45.0984 26.2396C44.656 24.8882 44.4385 23.6307 44.445 22.3732C44.4514 21.1147 44.6818 19.8563 45.1371 18.5003C45.5924 17.1443 46.2707 15.6917 47.1758 14.0469C47.3002 13.8222 47.3315 13.5918 47.2974 13.381C47.2605 13.1702 47.1573 12.9798 47.0135 12.8321C46.8661 12.6854 46.6772 12.5813 46.4679 12.5451C46.2587 12.5098 46.0302 12.5423 45.8071 12.6668C44.1749 13.5788 42.7326 14.2642 41.3879 14.7212C40.0433 15.18 38.7917 15.4122 37.5447 15.4187C36.2978 15.4243 35.049 15.2051 33.7089 14.7602C32.367 14.3153 30.933 13.6448 29.3081 12.7494C29.0879 12.6268 28.8584 12.5962 28.6492 12.6343C28.44 12.6724 28.2501 12.7773 28.1017 12.9259C27.9561 13.0745 27.851 13.2668 27.8132 13.4776C27.7764 13.6884 27.8059 13.9187 27.9285 14.1426C28.0593 14.385 28.1828 14.6218 28.3054 14.8549C29.0058 16.2016 29.545 17.4211 29.9219 18.5699C30.3625 19.9194 30.5818 21.1751 30.5763 22.4308C30.5717 23.6874 30.521 24.3384 29.6344 26.0696C29.4703 26.3882 29.1293 26.8906 28.6538 27.5315C28.1957 28.1519 27.6086 28.9005 26.9294 29.7475C20.4927 37.4478 -0.331466 59.8261 0.00400692 60.1604C0.309988 60.4669 19.0808 42.7807 28.0566 34.8714C30.0408 33.2062 31.7523 31.814 32.873 31.0032C33.2979 30.6948 33.6379 30.4701 33.8776 30.3456C35.5936 29.4512 36.2425 29.4001 37.4876 29.3964C38.7327 29.3899 39.9806 29.6119 41.317 30.0558C42.4404 30.4292 43.6284 30.9623 44.939 31.6496C45.1933 31.7833 45.4486 31.9208 45.7122 32.0656C45.9352 32.1882 46.162 32.218 46.3703 32.1799C46.5804 32.1427 46.773 32.0378 46.9186 31.8883C47.0679 31.7397 47.1721 31.5483 47.208 31.3375V31.3366Z" fill="#00A6B9"/>
<path d="M41.691 15.5338C40.2505 16.0242 38.9114 16.2666 37.5962 16.2731C36.281 16.2806 34.9438 16.0512 33.5088 15.5756C32.6148 15.2775 31.6738 14.8865 30.625 14.3701L35.0304 18.8096C36.3824 20.1711 38.5823 20.16 39.9464 18.7863L44.2181 14.4816C43.3094 14.9209 42.4818 15.2654 41.6901 15.5357L41.691 15.5338Z" fill="#71C8DA"/>
<path d="M33.5718 29.6891C35.3745 28.7492 36.1312 28.6545 37.5468 28.648C38.8601 28.6433 40.1965 28.8718 41.6287 29.3492C42.4674 29.6278 43.366 30.0002 44.3539 30.4795L39.9163 26.0085C38.5643 24.645 36.3588 24.6562 34.9911 26.0335L19.7031 41.4406C22.6339 38.7639 25.4172 36.2424 27.5923 34.3264L27.5987 34.3208L27.6061 34.3134C29.8466 32.4326 31.4364 31.1547 32.4677 30.4089C32.9423 30.0652 33.3045 29.8293 33.5727 29.69L33.5718 29.6891Z" fill="#006472"/>
<path d="M37.991 58.5994C38.0103 58.4936 37.9946 58.3775 37.9338 58.2651C37.4868 57.4413 37.1504 56.7131 36.9302 56.0324C36.7071 55.3516 36.5965 54.7191 36.5993 54.0848C36.603 53.4504 36.7191 52.817 36.9477 52.1344C37.1772 51.4508 37.5191 50.719 37.9744 49.8914C38.037 49.7772 38.0527 49.662 38.0361 49.5562C38.0177 49.4494 37.9652 49.3528 37.8914 49.2794C37.8195 49.2042 37.7237 49.1522 37.6186 49.1354C37.5136 49.1169 37.3993 49.1345 37.285 49.1958C36.462 49.6555 35.7367 50.0001 35.0602 50.2314C34.3819 50.4626 33.7524 50.5797 33.1229 50.5824C32.4944 50.5852 31.8667 50.4747 31.1921 50.2509C30.5156 50.0261 29.7949 49.689 28.9765 49.2385C28.8631 49.1763 28.7489 49.1614 28.6429 49.18C28.5378 49.1995 28.441 49.2525 28.3673 49.3268C28.2936 49.402 28.241 49.4986 28.2208 49.6045C28.2014 49.7103 28.2171 49.8274 28.2779 49.9397C28.3461 50.0623 28.4079 50.1812 28.4687 50.2992C28.8217 50.9772 29.0935 51.592 29.2816 52.1706C29.5055 52.8505 29.6152 53.4829 29.6124 54.1145C29.6097 54.7479 29.5848 55.0767 29.1378 55.9469C29.0548 56.1085 28.8816 56.3611 28.6429 56.6843C28.4106 56.9964 28.1166 57.3744 27.7738 57.7998C24.5333 61.6782 14.0452 72.9496 14.2129 73.1186C14.3687 73.2728 23.8218 64.3642 28.3443 60.3817C29.3433 59.5412 30.2032 58.8409 30.7691 58.4323C30.9829 58.2772 31.1543 58.1638 31.275 58.1016C32.1395 57.6502 32.4649 57.6252 33.0925 57.6224C33.721 57.6196 34.3487 57.7311 35.0224 57.9549C35.5883 58.1425 36.1873 58.4109 36.8463 58.7573C36.9744 58.8242 37.1025 58.8938 37.2343 58.9672C37.3477 59.0285 37.461 59.0443 37.567 59.0248C37.6721 59.0062 37.7698 58.9533 37.8426 58.8771C37.9163 58.8028 37.9698 58.7062 37.9882 58.5994H37.991Z" fill="#0066B2"/>
<path d="M35.2128 50.7784C34.4884 51.0245 33.8128 51.1462 33.1502 51.1508C32.4885 51.1536 31.8147 51.0375 31.0922 50.7988C30.6424 50.6493 30.1687 50.4515 29.6406 50.1914L31.859 52.4278C32.5401 53.1142 33.6479 53.1077 34.3354 52.4158L36.4874 50.2481C36.0294 50.4682 35.6128 50.6419 35.2137 50.7793L35.2128 50.7784Z" fill="#0097D6"/>
<path d="M31.1257 57.6788C32.0344 57.2051 32.4141 57.1577 33.1265 57.154C33.7873 57.1512 34.461 57.2673 35.1827 57.5069C35.6057 57.6472 36.0582 57.8357 36.555 58.0763L34.3209 55.824C33.6399 55.1368 32.5284 55.1433 31.839 55.8361L24.1406 63.5958C25.6162 62.2482 27.018 60.9786 28.1138 60.0136L28.1175 60.0108L28.1202 60.0071C29.2483 59.0598 30.0483 58.4162 30.569 58.04C30.8077 57.8673 30.9893 57.7484 31.1257 57.6788Z" fill="#004087"/>
</svg>
