<svg width="34" height="34" viewBox="0 0 34 34" fill="none" xmlns="http://www.w3.org/2000/svg">
<path d="M10.6504 28.0165L10.7087 27.9184L10.9227 27.5438L11.3734 27.7784C11.4153 27.7997 11.4388 27.8523 11.4473 27.9191C11.458 28.1182 11.3094 28.3961 11.0961 28.2632C10.9312 28.1807 10.8288 28.1182 10.6497 28.0172M10.177 27.9191L10.0597 28.1303C10.3717 28.3293 10.7087 28.4978 11.0314 28.6734C11.4118 28.8845 11.9499 28.3741 11.9094 27.9199C11.9037 27.8381 11.8802 27.7656 11.8333 27.6888L12.6096 27.123C12.4653 27.0562 12.3516 26.9943 12.1788 26.9218L11.4949 27.4187L11.1203 27.2197L11.5198 26.5536C11.3656 26.4555 11.2717 26.3972 11.0919 26.2913L10.1763 27.9199L10.177 27.9191ZM20.4677 6.57775L21.1757 4.55251C21.3143 4.60369 21.4608 4.64137 21.6008 4.70393L20.9134 6.7185C20.7257 6.65452 20.6383 6.62751 20.4684 6.57775M17.6334 4.66483L17.4692 5.07499L17.2993 5.51928L17.1536 5.07499L17.0121 4.63924L17.6341 4.66554L17.6334 4.66483ZM17.9142 5.07499L18.3763 3.95397C18.2256 3.94544 18.0834 3.93051 17.949 3.91487L17.8061 4.27599L16.8784 4.25253L16.7718 3.87222C16.6247 3.88359 16.486 3.88857 16.3375 3.88857L16.7405 5.07499L17.0235 5.97636L17.0384 6.00408L17.509 6.02754L17.5324 5.96925L17.9135 5.0757L17.9142 5.07499ZM20.2402 28.7281L20.72 28.576C20.8494 28.5376 21.0236 28.7444 21.0236 28.92C21.0236 29.0068 20.9951 29.0785 20.8793 29.1077C20.7023 29.1724 20.5814 29.2072 20.3888 29.2556L20.2885 28.92L20.2395 28.7281H20.2402ZM19.9473 27.6085C19.7753 27.6604 19.648 27.6789 19.4596 27.7364L19.8087 28.92L20.0618 29.7638C20.4286 29.6757 20.7762 29.5577 21.1245 29.4425C21.3229 29.3828 21.4281 29.1589 21.4487 28.9193C21.4608 28.5987 21.3015 28.2476 20.9752 28.175L21.1011 27.2189C20.9489 27.2794 20.8366 27.3263 20.6667 27.3945L20.5558 28.2277L20.1471 28.3549L19.948 27.6071L19.9473 27.6085ZM13.4356 6.09436C13.4207 6.15692 13.398 6.20384 13.3233 6.23511L12.7866 6.43771L12.6658 6.09365L12.6224 5.96854L12.6188 5.96001L13.1108 5.78159C13.2416 5.71903 13.3724 5.83988 13.4193 5.96925C13.4356 6.00409 13.4499 6.051 13.4356 6.09436ZM13.8366 6.09436V5.97707C13.8046 5.69131 13.6098 5.40199 13.2977 5.36716L13.3681 4.37053C13.2231 4.40039 13.0575 4.45015 12.9032 4.51768L12.8876 5.45459L12.466 5.63657L12.1234 4.80558C11.9854 4.85036 11.8454 4.89728 11.711 4.96268L12.144 5.96996L12.1966 6.09507L12.5485 6.92607L13.5089 6.55571C13.7228 6.48036 13.8195 6.28772 13.8366 6.09507M19.9594 6.39861C19.3367 6.26284 18.8561 6.14768 18.2398 6.05171L18.2959 5.69131C18.5234 5.7304 18.7331 5.75884 18.9748 5.78514L19.2862 4.05633L19.7454 4.14235L19.3736 5.87044C19.6082 5.92518 19.8272 5.98773 20.0618 6.03963L19.9601 6.3979L19.9594 6.39861ZM22.3003 26.6232L22.7638 27.5154L24.0121 28.0969C23.8806 28.1907 23.7377 28.254 23.6083 28.3428L22.7468 27.949L22.5889 28.8859C22.4077 28.9677 22.2996 29.0082 22.1134 29.0793L22.3622 27.7215L21.8994 26.8429L22.2996 26.6232H22.3003ZM26.9872 26.0745C26.7895 26.319 26.4611 26.2835 26.368 26.115L24.9149 24.6513C24.7017 24.4331 24.7216 24.1068 24.9412 23.9483C27.1357 21.5171 28.0549 18.4946 27.3334 14.7462C27.3206 14.5052 27.4741 14.3119 27.6653 14.2529L29.6764 13.6678C29.9437 13.5918 30.115 13.756 30.1726 13.9849C31.2055 18.5948 29.7902 23.128 26.9879 26.0752M29.3139 12.5916L27.2985 13.2811C27.1933 13.3224 26.9203 13.3224 26.7775 12.9648C25.151 9.07002 21.3677 6.40003 16.9865 6.40003C12.6053 6.40003 8.74739 9.13328 7.19127 13.0245C7.0754 13.3224 6.79318 13.3224 6.68583 13.2811L4.6847 12.5916C4.46789 12.5148 4.33637 12.3222 4.45153 12.0464C6.41428 7.02772 11.3051 3.48765 16.9865 3.48765C22.6679 3.48765 27.5772 7.05118 29.5485 12.0649C29.6537 12.3272 29.5307 12.5148 29.3139 12.5916ZM4.35628 13.6686L6.36451 14.2536C6.55219 14.3119 6.70645 14.506 6.69152 14.7469C5.96855 18.4896 6.8863 21.5179 9.07937 23.949C9.30045 24.1075 9.3232 24.4338 9.11278 24.652L7.65334 26.1214C7.51188 26.2849 7.25383 26.2849 7.03274 26.0595C4.23543 23.1116 2.8222 18.5962 3.85866 13.9792C3.91624 13.7574 4.09183 13.5932 4.35628 13.6693M24.4948 23.0171C24.5005 23.1059 24.4479 23.2175 24.3214 23.3405C22.7141 25.0444 21.0634 25.9941 18.8007 26.5287C18.6741 26.5635 18.5241 26.5962 18.4282 26.5052C18.3258 26.4278 18.2974 26.2707 18.3187 26.0368L18.6898 20.7985C18.7011 20.5994 18.7914 20.4409 18.9244 20.3592C19.0701 20.2817 19.2428 20.2952 19.4234 20.3826L24.1408 22.6602C24.2929 22.732 24.4642 22.813 24.4955 22.9716C24.4955 22.9829 24.5012 22.995 24.4955 23.0178M25.4502 13.6579C25.591 13.5655 25.7538 13.4581 25.9009 13.5058C25.9998 13.5399 26.0893 13.6458 26.1419 13.8463C26.8038 16.0833 26.8038 17.9934 26.1419 20.207C26.1021 20.3471 26.0388 20.4878 25.9194 20.5411C25.805 20.5817 25.6557 20.534 25.4453 20.389L21.1181 17.4489C20.9511 17.3373 20.8658 17.1845 20.8658 17.0259C20.8658 16.8674 20.9511 16.711 21.1181 16.6051L25.4509 13.6579H25.4502ZM18.4154 7.56868C18.4936 7.50684 18.6265 7.48694 18.8277 7.54238C21.079 8.07766 22.7283 9.03163 24.3377 10.7185C24.4315 10.8344 24.5375 10.9467 24.5083 11.0711C24.4785 11.1969 24.3733 11.3042 24.155 11.408L19.4369 13.6942C19.257 13.7816 19.085 13.7816 18.9393 13.7055C18.8021 13.6174 18.7168 13.4695 18.7033 13.2605L18.3222 8.04069C18.3201 7.87009 18.2988 7.67389 18.4161 7.56868M16.9879 13.6181C18.8511 13.6181 20.3667 15.1301 20.3667 16.9925C20.3667 18.855 18.8518 20.3663 16.9879 20.3776C15.1268 20.3776 13.6127 18.855 13.6127 16.9925C13.6127 15.1301 15.1275 13.6181 16.9879 13.6181ZM9.56703 10.9865C9.56703 10.8955 9.62746 10.7832 9.74049 10.6666C11.3663 8.95983 13.0077 8.01155 15.2626 7.48054C15.409 7.43718 15.5498 7.41372 15.6493 7.49618C15.7517 7.5694 15.7816 7.72578 15.7645 7.97672C15.7645 7.97956 15.3799 13.2136 15.3799 13.2136C15.3636 13.4077 15.2896 13.5648 15.151 13.6415C15.0102 13.7233 14.8347 13.7233 14.647 13.6366L9.93882 11.3462C9.7739 11.268 9.59831 11.182 9.57201 11.0284C9.57201 11.0178 9.56632 10.9986 9.56632 10.9865M9.49594 22.9367C9.51727 22.7732 9.69641 22.6972 9.85565 22.6204L14.5652 20.3357C14.7529 20.2419 14.9271 20.2419 15.07 20.3186C15.2015 20.4061 15.2889 20.5532 15.3003 20.7572L15.6799 25.9813C15.7012 26.2358 15.6664 26.3808 15.574 26.4583C15.4745 26.5451 15.3273 26.5216 15.1865 26.4932C12.9267 25.9522 11.2845 24.9975 9.66016 23.305C9.52864 23.1528 9.46964 23.0355 9.49594 22.9353M8.55118 20.3584C8.39834 20.4573 8.23413 20.5696 8.09977 20.5099C7.98959 20.475 7.91139 20.3584 7.85381 20.1772C7.19838 17.928 7.19838 16.0243 7.85381 13.8093C7.8986 13.6636 7.94694 13.5179 8.07987 13.4816C8.18721 13.4354 8.34503 13.4816 8.55047 13.6231L12.8748 16.5696C13.0354 16.6755 13.1321 16.8276 13.1321 16.9847C13.1321 17.1539 13.0354 17.2961 12.8748 17.4127L8.55047 20.3584H8.55118ZM8.45664 26.8955L9.85565 25.3423C10.0483 25.1333 10.2658 25.1567 10.5473 25.3792C12.3103 26.7619 14.5766 27.5815 16.9872 27.5815C19.3978 27.5815 21.6676 26.7661 23.4491 25.3792C23.7278 25.1731 23.9389 25.1333 24.1408 25.3423L25.5391 26.8955C25.6955 27.0668 25.6955 27.305 25.3912 27.5587C23.0517 29.3849 20.1599 30.5109 16.9815 30.5109C13.8032 30.5109 10.8878 29.3849 8.58886 27.5516C8.28745 27.3057 8.30024 27.0668 8.45593 26.8955M34 16.979C34 16.78 33.9915 16.5809 33.9694 16.4224L33.9637 16.3812L33.9183 16.357C33.1953 15.9248 32.2605 15.6789 31.3235 15.6554C31.3001 15.5381 31.2006 14.6886 31.1828 14.5714C32.0557 14.324 32.9024 13.8449 33.4953 13.2342L33.5187 13.1944V13.1539C33.4718 12.8248 33.3545 12.3791 33.2223 12.0855L33.2074 12.0414L33.1654 12.035C32.3472 11.7997 31.3811 11.8075 30.4875 12.0272C30.4449 11.917 30.1157 11.1315 30.083 11.0156C30.8643 10.523 31.5567 9.84414 31.9441 9.11693L31.9655 9.07499L31.9541 9.03447C31.8318 8.74658 31.6036 8.32646 31.3975 8.07553L31.3754 8.03856H31.3235C30.4883 8.03216 29.5542 8.27812 28.7402 8.72952C28.6656 8.63071 28.1217 7.91487 28.0492 7.82104C28.689 7.15496 29.176 6.31686 29.3729 5.49014L29.3864 5.44962L29.3608 5.4162C29.1753 5.16314 28.8333 4.82761 28.5838 4.62857L28.5547 4.60512L28.4935 4.61436C27.6895 4.82761 26.8386 5.3174 26.1782 5.95361C26.0808 5.87897 25.4062 5.35223 25.3074 5.27475C25.736 4.48853 25.9983 3.57722 25.9983 2.75546V2.64315L25.9514 2.61187C25.7005 2.41069 25.2874 2.17398 24.9917 2.05171L24.9626 2.03749L24.9149 2.05811C24.1891 2.47823 23.4967 3.16207 23.0233 3.95468C22.9074 3.9035 22.0849 3.55091 21.9733 3.50115C22.0842 3.06611 22.1532 2.60049 22.166 2.15265C22.166 1.69202 22.0849 1.23494 21.9733 0.819794L21.9676 0.776432L21.9236 0.752975C21.6492 0.637814 21.1857 0.525497 20.8629 0.468632L20.8139 0.462234L20.7854 0.495644C20.1634 1.08921 19.6843 1.93158 19.4341 2.81162C19.3232 2.80877 18.4737 2.69006 18.3507 2.66803C18.3372 1.74178 18.0834 0.804157 17.6441 0.0783691L17.6199 0.0406952L17.5715 0.0335846C17.2744 -0.0112 16.801 -0.0112 16.4796 0.0335846L16.4405 0.0406952L16.4121 0.0783691C15.9842 0.804867 15.7297 1.74178 15.7119 2.66803C15.5832 2.67869 14.6861 2.80877 14.5631 2.81162C14.3178 1.93797 13.8366 1.1013 13.2288 0.499908L13.1961 0.468632L13.147 0.476452C12.8165 0.525501 12.3764 0.652031 12.0835 0.77359L12.0487 0.792782L12.0345 0.827614C11.9101 1.24204 11.8461 1.7041 11.8461 2.16403C11.8461 2.62395 11.9101 3.06611 12.0253 3.50115C11.9108 3.55162 11.1345 3.86582 11.0229 3.91558C10.5459 3.11373 9.85423 2.41567 9.12131 2.01048L9.08221 1.98987L9.036 2.00266C8.73459 2.1363 8.33436 2.36449 8.07845 2.55784L8.04646 2.59054V2.67798C8.04646 3.5104 8.29953 4.42598 8.73388 5.22783C8.63649 5.30247 7.91352 5.85267 7.81471 5.92589C7.15217 5.28683 6.30978 4.80558 5.49582 4.59587L5.45103 4.58379L5.40696 4.61365C5.15744 4.81553 4.83896 5.13755 4.63636 5.39132L4.61006 5.43682L4.6193 5.48018C4.83968 6.30336 5.32521 7.14004 5.96073 7.79189C5.88894 7.88999 5.34014 8.60014 5.26265 8.71032C4.4558 8.25324 3.51388 7.99591 2.67931 8.01439H2.63381L2.60467 8.04212C2.40989 8.30016 2.17601 8.71672 2.0516 9.00533L2.0317 9.05083L2.0516 9.08708C2.47173 9.82495 3.15986 10.5081 3.94468 10.9822C3.89349 11.0995 3.55796 11.8914 3.50251 12.0016C2.61106 11.7791 1.63858 11.7741 0.822489 12.0016L0.781258 12.013L0.759221 12.0499C0.647612 12.325 0.526052 12.7885 0.477712 13.1162L0.467049 13.1681L0.496195 13.2086C1.08836 13.8122 1.92506 14.2877 2.81935 14.5557C2.8094 14.6844 2.6786 15.5808 2.66296 15.7045C1.73455 15.7165 0.795475 15.9575 0.0668228 16.3904L0.029857 16.4139L0.0263026 16.4665C0.00497616 16.6136 0 16.8127 0 17.0167C0 17.2207 0.00497616 17.4041 0.0263026 17.5676L0.029857 17.6145L0.0668228 17.638C0.795475 18.0659 1.73526 18.3176 2.66296 18.3289C2.685 18.4526 2.79589 19.3249 2.8094 19.4471C1.92578 19.6995 1.08267 20.18 0.48411 20.7835L0.459229 20.8127L0.467049 20.8596C0.506858 21.1994 0.631973 21.6444 0.759221 21.9259L0.771306 21.9671L0.816091 21.9785C1.62081 22.2173 2.59685 22.2124 3.49327 21.9899C3.54374 22.0951 3.86861 22.8863 3.92051 23.0092C3.13001 23.4841 2.43406 24.1687 2.02103 24.9044L2.00113 24.952L2.02103 24.994C2.1497 25.2897 2.38429 25.6899 2.56841 25.9394L2.59685 25.9778H2.64661C3.49398 25.9906 4.4295 25.7332 5.23279 25.2833C5.30815 25.3771 5.85908 26.1185 5.93088 26.2188C5.29251 26.8813 4.80982 27.718 4.60153 28.544L4.59371 28.5788L4.61006 28.6136C4.81408 28.8717 5.15246 29.2058 5.40198 29.3984L5.43966 29.4219L5.47805 29.4176C6.30978 29.2051 7.14862 28.711 7.8012 28.0748C7.89717 28.1502 8.54905 28.6542 8.64857 28.7267C8.19788 29.5157 7.94551 30.4299 7.94551 31.2481V31.3725L7.98817 31.3974C8.23271 31.5921 8.64857 31.8289 8.94359 31.9483L8.97558 31.9717L9.02392 31.9483C9.75257 31.5367 10.4393 30.8472 10.9177 30.0553C11.0329 30.0972 11.8817 30.4704 11.9982 30.5187C11.8866 30.9531 11.8163 31.4123 11.8234 31.8665C11.8234 32.3321 11.8809 32.78 12.0054 33.1923L12.011 33.2406L12.0544 33.2548C12.3302 33.3686 12.7866 33.493 13.1115 33.542L13.1598 33.547L13.1968 33.5179C13.8053 32.9243 14.2866 32.0805 14.5418 31.1912C14.669 31.2026 15.5612 31.3163 15.6806 31.3398C15.6998 32.2554 15.95 33.1923 16.3901 33.9202L16.4071 33.9572L16.454 33.9707C16.7732 34.0098 17.2445 34.0098 17.5552 33.9707L17.5964 33.9572L17.622 33.9202C18.0621 33.1923 18.3187 32.2554 18.3187 31.3469C18.4516 31.3163 19.3246 31.2026 19.449 31.1912C19.7085 32.0812 20.1883 32.9207 20.8004 33.51L20.8288 33.542L20.8686 33.5299C21.2006 33.4937 21.6506 33.3686 21.9392 33.2406L21.974 33.2278L21.9883 33.1781C22.1148 32.7686 22.1738 32.3258 22.1738 31.8658C22.166 31.4073 22.0999 30.9481 21.9883 30.5074C22.0999 30.4605 22.9472 30.1072 23.0659 30.0553C23.5387 30.8472 24.2126 31.5303 24.9491 31.9483L24.9917 31.9717L25.0372 31.9483C25.3265 31.8267 25.7353 31.5921 25.9862 31.3931L26.0225 31.3725V31.2573C26.0225 30.4221 25.7644 29.5086 25.3273 28.7274C25.4232 28.6549 26.1227 28.1068 26.2279 28.0243C26.8884 28.6684 27.7272 29.1582 28.5539 29.36L28.5909 29.3821L28.6293 29.3409C28.876 29.1589 29.2129 28.8098 29.4034 28.5603L29.4369 28.5212L29.4241 28.48C29.2129 27.6533 28.7153 26.8116 28.0777 26.1591C28.153 26.0567 28.6798 25.3608 28.7622 25.2605C29.5861 25.7055 30.5146 25.9557 31.3577 25.9401H31.3968L31.4238 25.9053C31.6299 25.6408 31.8652 25.2378 31.9768 24.9563L32.006 24.9051L31.9768 24.8624C31.5595 24.1345 30.87 23.4549 30.0816 22.9744C30.1314 22.8571 30.4492 22.0659 30.5117 21.9494C31.396 22.1775 32.3692 22.1832 33.1775 21.9494L33.2244 21.9437L33.2422 21.8967C33.3545 21.6152 33.4867 21.1589 33.5301 20.8248L33.5365 20.7843L33.5017 20.7544C32.9116 20.1402 32.0664 19.6597 31.1814 19.4073C31.1991 19.2843 31.3093 18.4178 31.3314 18.2948C32.2633 18.2778 33.1939 18.0304 33.9168 17.5982L33.9623 17.5747L33.968 17.5278C33.99 17.3693 33.9986 17.1809 33.9986 16.9769M24.4756 8.95628L25.3607 8.00231L23.8728 8.44091C23.7498 8.34352 23.6674 8.31224 23.56 8.21841L24.8503 6.47965C24.9626 6.56353 25.077 6.67229 25.1794 6.75688L24.3946 7.80398L25.8967 7.35187C25.9983 7.44073 26.1455 7.54238 26.2478 7.66962L24.7507 9.252C24.6697 9.1674 24.5794 9.05153 24.4756 8.95628ZM23.447 6.41425C23.447 6.53936 23.415 6.65523 23.3546 6.76542C23.1768 7.09312 22.756 7.20046 22.4269 7.01279C22.1965 6.88981 22.0792 6.65452 22.0792 6.41354C22.0842 6.30336 22.1134 6.17896 22.1795 6.07375C22.1965 6.03892 22.22 6.00337 22.2534 5.96854C22.4574 5.72401 22.8214 5.66643 23.0994 5.82779C23.1768 5.86973 23.2387 5.91665 23.287 5.96854C23.3901 6.09365 23.4477 6.26142 23.4477 6.41354M23.6901 6.94242C23.7797 6.78887 23.8252 6.60121 23.8323 6.41354C23.8323 6.26426 23.8003 6.11569 23.7391 5.97636C23.6396 5.78159 23.4932 5.60103 23.2877 5.48303C22.7894 5.19015 22.1397 5.36573 21.8375 5.87755C21.8276 5.91025 21.8127 5.94011 21.7935 5.97636C21.733 6.11569 21.7032 6.26426 21.6897 6.41354C21.7032 6.79172 21.8873 7.14004 22.2271 7.33481C22.7354 7.62129 23.3908 7.45139 23.6901 6.94171M25.928 9.78941L26.1782 9.38848L26.4085 8.9904L26.7213 9.38848L26.8023 9.49014L25.9287 9.78941H25.928ZM25.6827 10.2785L27.8132 9.57544C27.762 9.51288 27.7229 9.45317 27.6781 9.38777C27.639 9.34085 27.5964 9.29394 27.5672 9.23067L27.1926 9.36431L26.6125 8.63782L26.8244 8.30656C26.7376 8.20775 26.6424 8.09899 26.5308 7.99378L25.6877 9.38777L25.3756 9.90314L25.6841 10.2778L25.6827 10.2785ZM28.0414 10.5905L26.4782 11.4514L26.2791 11.0931L28.153 10.0439L28.876 11.3405L28.5539 11.5111L28.0421 10.5905H28.0414ZM15.6778 6.07304L15.5235 4.76932L14.8972 6.19744C14.7508 6.22587 14.6598 6.26355 14.5105 6.28559L14.0214 4.18215C14.1735 4.14021 14.3178 4.12457 14.4735 4.09898L14.7387 5.3899L15.3728 3.95326C15.5164 3.9298 15.6778 3.88288 15.8462 3.88786L16.0808 6.06166C15.9586 6.06948 15.8114 6.05029 15.6785 6.07304M15.6074 29.6778L15.7951 27.9341L16.2522 27.981L16.0737 29.7105L16.7661 29.756L16.742 30.1441C15.9642 30.0972 15.6479 30.0702 14.8816 29.955L14.9335 29.5854L15.6081 29.6778H15.6074ZM17.7272 28.7267C17.9604 28.7146 18.1758 28.6918 18.394 28.6563L18.2796 29.1056L18.1374 29.5626L17.9206 29.1056L17.7279 28.7267H17.7272ZM17.3725 27.9988C17.1948 28.0009 17.113 28.0009 16.9367 28.0009L17.4692 29.1063L17.9497 30.1072L18.4274 30.0553L18.6763 29.1063L19.0246 27.8281C18.8632 27.8587 18.7374 27.8822 18.5874 27.8886L18.4637 28.2938C18.1488 28.3407 17.8623 28.3549 17.5723 28.3677L17.3718 27.9988H17.3725ZM12.9395 28.5305C12.9693 28.1509 13.3048 27.8722 13.6695 27.9071C14.0292 27.9419 14.2987 28.2277 14.2987 28.5909C14.31 28.608 14.2987 28.6314 14.2987 28.6549C14.2688 29.0359 13.9389 29.3039 13.5608 29.2662C13.1975 29.2413 12.9259 28.9541 12.9395 28.5909V28.5305ZM12.5492 28.4928V28.5909C12.5385 29.1418 12.9608 29.5939 13.5131 29.6408C14.1025 29.6991 14.6249 29.2662 14.6726 28.6783V28.5902C14.6726 28.04 14.2581 27.5708 13.6923 27.5182C13.1229 27.4699 12.5989 27.8978 12.5492 28.4928ZM17.0242 14.9502C18.1367 14.9502 19.0495 15.8637 19.0495 16.9762C19.0495 17.9017 18.4061 18.7036 17.5211 18.9261C17.509 19.0149 17.4862 19.4365 17.4862 19.4365H16.4654C16.4654 19.4365 16.442 18.9794 16.432 18.8856C15.5846 18.6282 15.0131 17.8548 15.0131 16.9762C15.0131 15.8637 15.9266 14.9502 17.0249 14.9502M16.9865 13.9465C15.3095 13.9465 13.9432 15.3185 13.9432 16.9876C13.9432 18.6567 15.3095 20.0386 16.9865 20.0386C18.6635 20.0386 20.0276 18.668 20.0276 16.9876C20.0276 15.3071 18.667 13.9465 16.9865 13.9465ZM10.9923 7.31206C11.2831 7.15283 11.5653 6.98934 11.8817 6.83863L12.0722 7.15354C11.635 7.38173 11.2198 7.64048 10.8516 7.89781L9.63883 6.11711C10.0995 5.81286 10.5182 5.55909 10.9916 5.28612L11.185 5.60103L10.2075 6.17967L10.5367 6.63959L11.185 6.25004L11.3741 6.55429C11.1672 6.67158 10.9504 6.80025 10.7222 6.94099L10.9916 7.31206H10.9923ZM8.56753 9.95148L7.57088 9.08779L8.07916 10.5635C7.98888 10.6915 7.94622 10.7789 7.8531 10.8969L6.06666 9.6842C6.14699 9.56549 6.2458 9.4553 6.33039 9.3309L7.40453 10.0759L6.90052 8.58805C6.98654 8.48925 7.0754 8.33854 7.19838 8.24187L8.85118 9.65576C8.75947 9.75315 8.65 9.84272 8.56824 9.95219M7.38889 11.6654L5.54771 10.5927C5.61454 10.464 5.68705 10.3154 5.76809 10.1896L7.60927 11.2644C7.5197 11.4286 7.46709 11.5132 7.38889 11.6654ZM9.66016 8.32006L8.52559 6.97654L8.17442 7.28079L9.34595 8.58734C9.16041 8.75866 9.01965 8.9115 8.83838 9.07286L9.09998 9.3373C9.54713 8.9115 9.93953 8.58734 10.4315 8.19424L10.2047 7.90137C10.0248 8.04212 9.84143 8.1786 9.66016 8.31935" fill="#E3BE1B"/>
</svg>
