<svg fill="none" height="15" viewBox="0 0 24 15" width="24" xmlns="http://www.w3.org/2000/svg" xmlns:xlink="http://www.w3.org/1999/xlink"><mask id="a" height="15" maskUnits="userSpaceOnUse" width="24" x="0" y="0"><path d="m24 0h-24v15h24z" fill="#fff"/></mask><g fill="#054a97" mask="url(#a)"><path d="m17.1094 7.49725 6.7837 6.76175c.0691-.1549.1049-.322.1051-.4909v-12.54173c-.0004-.16857-.0361-.335274-.1051-.489798z"/><path d="m15.0231 9.57564c-.3629.35786-.7953.64126-1.2719.83346s-.9878.2894-1.5034.2858c-.0862 0-.1693 0-.2513-.0062-.082-.0061-.165.0062-.2523.0062-.5156.0039-1.0269-.0932-1.5035-.2854-.47666-.1923-.90908-.47577-1.27175-.83386l-1.4686-1.46529-6.7816 6.76785c.168571.0793.35327.1203.54034.1202h21.47701c.1875.0005.3726-.0406.5414-.1202l-6.79-6.76785z"/><path d="m.105126.736572c-.0695834.154333-.10538997.321168-.10512453.489798v12.54173c-.00026544.1687.03554113.3355.10512453.4898l6.783704-6.76065z"/><path d="m11.7432 9.83605c.0778 0 .1514 0 .2239-.00616h.0284.0263c.0725 0 .1471.00616.2249.00616.393.00474.783-.06691 1.1474-.21075.3644-.14385.6959-.35703.9751-.62714l.0158-.01643 8.8925-8.861585c-.1688-.0796209-.3539-.12070331-.5414-.12013927h-21.48226c-.18519.00059707-.36793.04127687-.53509.11911327l8.90197 8.879041c.27932.27033.61098.48364.97548.6275.3646.14385.7538.21538 1.147.21039z"/></g></svg>