<svg fill="none" height="24" viewBox="0 0 24 24" width="24" xmlns="http://www.w3.org/2000/svg"><path d="m21.4205 22.957c-2.606 2.6075-9.2809.1575-14.90771-5.4722-5.626788-5.6297-8.07664-12.30018-5.47063-14.90638l1.71652-1.710405c.58759-.568667 1.37692-.8807371 2.19449-.86761746.81757.01311956 1.59648.35035546 2.16552.93758246l2.65849 2.65868c.58722.56909.92442 1.34805.93752 2.16568.0131.81764-.2989 1.60702-.86756 2.19466l-.37479.36856c-.31275.31372-.49712.73292-.51699 1.17548-.01988.44255.12618.87656.40955 1.21706.57342.6947 1.19179 1.3868 1.86139 2.0565.6697.6697 1.3618 1.2881 2.0564 1.8616.3404.2834.7744.4294 1.217.4096.4425-.0199.8617-.2043 1.1754-.5171l.3685-.3748c.5876-.5686 1.3769-.8807 2.1945-.8676s1.5965.3504 2.1655.9376l2.6585 2.6574c.5872.5691.9244 1.3481.9375 2.1657s-.2989 1.607-.8675 2.1947z" fill="#054a97"/></svg>