<svg fill="none" height="21" viewBox="0 0 24 21" width="24" xmlns="http://www.w3.org/2000/svg"><path clip-rule="evenodd" d="m2.3995 4.6521c-.31521 0-.62734.05521-.91854.16249s-.555776.26451-.778607.46272c-.22283.19821-.399549.43352-.520061.69246-.1205123.25895-.18245532.53648-.18229012.81671v1.76319c-.00064686.45929.16545312.9065.47360112 1.27513.308149.3686.741887.639 1.236737.7709l8.91006 2.377c.8995.2399 1.8584.2399 2.7579 0l8.9101-2.377c.4951-.1317.9291-.402 1.2375-.77063.3084-.36865.4747-.81597.4741-1.2754v-1.76319c0-.56577-.2528-1.10838-.7028-1.50844-.45-.40007-1.0603-.62482-1.6967-.62482zm11.4001 3.65831c0-.42449-.1896-.83158-.5273-1.13174-.3376-.30015-.7955-.46877-1.2729-.46877-.4775 0-.9354.16862-1.273.46877-.3376.30016-.5273.70725-.5273 1.13174v1.82919c0 .4244.1897.8315.5273 1.1317.3376.3001.7955.4688 1.273.4688.4774 0 .9353-.1687 1.2729-.4688.3377-.3002.5273-.7073.5273-1.1317z" fill="#054a97" fill-rule="evenodd"/><path clip-rule="evenodd" d="m.09375 11.6828v4.2487c0 1.3438.600474 2.6327 1.66933 3.5829 1.06885.9503 2.51852 1.4841 4.0301 1.4841h12.39992c1.5116 0 2.9613-.5338 4.0301-1.4841 1.0689-.9502 1.6693-2.2391 1.6693-3.5829v-4.2487c-.3382.195-.7063.3456-1.0928.4473l-8.9101 2.377c-1.2371.3298-2.5558.3298-3.7929 0l-8.9101-2.377c-.386551-.1017-.754616-.2523-1.09285-.4473zm.072941-2.33002 11.821409 1.77992 11.8214-1.77992c-.1336.29584-.3401.56129-.6043.77682-.2642.2156-.5794.3757-.9224.4687l-8.9113 2.3759c-.8995.2398-1.8584.2398-2.7579 0l-8.91012-2.3759c-.34484-.0918-.66202-.2515-.928049-.4671-.266024-.21556-.474076-.48162-.60874-.77842z" fill="#054a97" fill-rule="evenodd"/><path d="m15.9996 4.65719v-.10063c0-.94306-.4213-1.84752-1.1713-2.51447-.7499-.66695-1.7671-1.04179-2.8279-1.04209-1.061 0-2.07848.37471-2.8287 1.04169-.75023.66699-1.1717 1.57161-1.1717 2.51487v.10175" stroke="#054a97" stroke-width="1.5"/></svg>