<svg width="24" height="24" viewBox="0 0 24 24" fill="none" xmlns="http://www.w3.org/2000/svg">
<path d="M8.5 15H11.9919M11.9919 15H15.5M11.9919 15V11.5M11.9919 15L12 18.5M20.3756 9.88445L21.9732 18.8844C22.0237 19.2009 22.0026 19.5242 21.9114 19.8321C21.8202 20.1401 21.6609 20.4254 21.4445 20.6685C21.2282 20.9116 20.9598 21.1068 20.6579 21.2407C20.3559 21.3747 20.0275 21.4442 19.695 21.4444H4.30728C3.97465 21.4445 3.64594 21.3752 3.3437 21.2414C3.04145 21.1076 2.77281 20.9125 2.5562 20.6693C2.33959 20.4262 2.18013 20.1408 2.08876 19.8327C1.99738 19.5246 1.97625 19.2011 2.02681 18.8844L3.62441 9.88445C3.70821 9.35955 3.98439 8.88091 4.40294 8.53523C4.82148 8.18954 5.35471 7.99967 5.90604 8H18.0963C18.6474 7.99994 19.1804 8.18993 19.5987 8.53559C20.017 8.88125 20.2918 9.35973 20.3756 9.88445Z" stroke="black" stroke-linecap="round" stroke-linejoin="round"/>
<path d="M16 6C16 3.71429 14.2091 2 12 2C9.79086 2 8 3.79086 8 6" stroke="black" stroke-linecap="round"/>
</svg>
