<svg width="24" height="24" viewBox="0 0 24 24" fill="none" xmlns="http://www.w3.org/2000/svg">
<path d="M19.7656 19.8824C19.7656 19.8824 19.7656 22.1176 17.5303 22.1176H5.23621C3.00092 22.1176 3.00092 19.8824 3.00092 19.8824V4.23529C3.00092 4.23529 3.00092 2 5.23621 2L17.5303 2C19.7656 2 19.7656 4.23529 19.7656 4.23529V8.70588" stroke="black" stroke-linecap="round"/>
<path d="M21.0265 14.0573L18.4141 16.669M21.0265 14.0573L13.141 6.22214L12.8206 6.5486M21.0265 14.0573L21.4582 14.4961C21.7859 14.8222 21.9791 15.2596 21.9992 15.7215C22.0194 16.1834 21.8651 16.636 21.567 16.9894L21.4616 17.1043C21.2902 17.2759 21.0866 17.4121 20.8625 17.505C20.6384 17.5979 20.3982 17.6457 20.1556 17.6457C19.913 17.6457 19.6727 17.5979 19.4486 17.505C19.2245 17.4121 19.0209 17.2759 18.8495 17.1043L14.7135 12.9691L10.5776 8.83385L10.898 8.50739M12.8206 6.5486L10.898 8.50739M12.8206 6.5486L9.70686 5.35156L10.898 8.50739" stroke="black" stroke-linecap="round" stroke-linejoin="round"/>
<path d="M6.35449 18.7637H14.178" stroke="black" stroke-linecap="round"/>
<path d="M6.35449 15.4121H11.9427" stroke="black" stroke-linecap="round"/>
<path d="M6.35449 12.0586H9.70743" stroke="black" stroke-linecap="round"/>
<path d="M6.35449 8.70508H8.58979" stroke="black" stroke-linecap="round"/>
</svg>
