<svg width="24" height="24" viewBox="0 0 24 24" fill="none" xmlns="http://www.w3.org/2000/svg">
<path d="M8.025 14.075V4.0125C8.025 3.47875 7.81297 2.96686 7.43555 2.58945C7.05813 2.21203 6.54625 2 6.0125 2C5.47875 2 4.96686 2.21203 4.58945 2.58945C4.21203 2.96686 4 3.47875 4 4.0125V14.075" stroke="black" stroke-linecap="round" stroke-linejoin="round"/>
<path d="M8.025 7.1014C9.55978 6.21514 11.3441 5.86008 13.1013 6.09127C14.8584 6.32246 16.4902 7.12699 17.7435 8.38008C18.9968 9.63317 19.8016 11.2648 20.0331 13.0219C20.2646 14.779 19.9098 16.5634 19.0238 18.0983C18.1378 19.6333 16.7701 20.833 15.1328 21.5114C13.4955 22.1898 11.6801 22.3089 9.9681 21.8504C8.25615 21.3919 6.74333 20.3813 5.66427 18.9754C4.58521 17.5694 4.00021 15.8467 4 14.0745" stroke="black" stroke-linecap="round" stroke-linejoin="round"/>
<path d="M8.02519 9.57545C9.05557 8.65385 10.371 8.11376 11.7517 8.04542C13.1324 7.97708 14.4948 8.38463 15.6111 9.19997C16.7275 10.0153 17.5302 11.1891 17.8852 12.5251C18.2402 13.8611 18.126 15.2786 17.5616 16.5405C16.9972 17.8024 16.0168 18.8325 14.7843 19.4585C13.5518 20.0845 12.1417 20.2686 10.7898 19.98C9.43785 19.6914 8.22589 18.9476 7.35642 17.8729C6.48694 16.7981 6.01262 15.4576 6.0127 14.0752V4.0127" stroke="black" stroke-linecap="round" stroke-linejoin="round"/>
<path d="M12.0504 18.0998C14.2733 18.0998 16.0754 16.2977 16.0754 14.0748C16.0754 11.8519 14.2733 10.0498 12.0504 10.0498C9.82744 10.0498 8.02539 11.8519 8.02539 14.0748C8.02539 16.2977 9.82744 18.0998 12.0504 18.0998Z" stroke="black" stroke-linecap="round" stroke-linejoin="round"/>
</svg>
