<svg width="24" height="24" viewBox="0 0 24 24" fill="none" xmlns="http://www.w3.org/2000/svg">
<path d="M10.7727 12.4167H12.4091V17.8333M3 8.66667H21M16.0909 5.33333V2M7.90909 5.33333V2M4.63636 22H19.3636C19.7976 22 20.2138 21.8244 20.5207 21.5118C20.8276 21.1993 21 20.7754 21 20.3333V5.33333C21 4.89131 20.8276 4.46738 20.5207 4.15482C20.2138 3.84226 19.7976 3.66667 19.3636 3.66667H4.63636C4.20237 3.66667 3.78616 3.84226 3.47928 4.15482C3.1724 4.46738 3 4.89131 3 5.33333V20.3333C3 20.7754 3.1724 21.1993 3.47928 21.5118C3.78616 21.8244 4.20237 22 4.63636 22Z" stroke="black" stroke-linecap="round" stroke-linejoin="round"/>
</svg>
