<svg width="24" height="24" viewBox="0 0 24 24" fill="none" xmlns="http://www.w3.org/2000/svg">
<path d="M15.9544 5.58008C16.2714 5.58008 16.5852 5.64251 16.878 5.7638C17.1708 5.88509 17.4369 6.06286 17.661 6.28698C17.8851 6.5111 18.0629 6.77716 18.1842 7.06998C18.3055 7.3628 18.3679 7.67664 18.3679 7.99359C18.3679 8.31054 18.3055 8.62438 18.1842 8.9172C18.0629 9.21003 17.8851 9.47609 17.661 9.7002C17.4369 9.92432 17.1708 10.1021 16.878 10.2234C16.5852 10.3447 16.2714 10.4071 15.9544 10.4071C15.3143 10.4071 14.7004 10.1528 14.2478 9.7002C13.7952 9.24758 13.5409 8.6337 13.5409 7.99359C13.5409 7.35349 13.7952 6.7396 14.2478 6.28698C14.7004 5.83436 15.3143 5.58008 15.9544 5.58008ZM9.84955 10.3958L13.7544 14.3001C13.7896 14.3354 13.8314 14.3634 13.8774 14.3825C13.9234 14.4016 13.9727 14.4115 14.0225 14.4115C14.0723 14.4115 14.1217 14.4016 14.1677 14.3825C14.2137 14.3634 14.2555 14.3354 14.2906 14.3001L15.0382 13.5525C15.0734 13.5171 15.1152 13.489 15.1612 13.4699C15.2073 13.4507 15.2567 13.4409 15.3066 13.4409C15.3565 13.4409 15.4059 13.4507 15.4519 13.4699C15.498 13.489 15.5398 13.5171 15.575 13.5525L19.795 17.7725C19.848 17.8256 19.8841 17.8932 19.8986 17.9668C19.9132 18.0404 19.9057 18.1167 19.8769 18.186C19.8482 18.2553 19.7995 18.3146 19.7371 18.3562C19.6747 18.3979 19.6013 18.4201 19.5263 18.4201H4.47387C4.40468 18.42 4.33683 18.401 4.27764 18.3652C4.21846 18.3294 4.1702 18.278 4.13808 18.2168C4.10597 18.1555 4.09122 18.0866 4.09543 18.0175C4.09964 17.9485 4.12265 17.8819 4.16198 17.8249L9.27009 10.4476C9.30173 10.4021 9.34297 10.364 9.39091 10.3361C9.43885 10.3082 9.49233 10.2912 9.54758 10.2862C9.60282 10.2812 9.65849 10.2883 9.71066 10.3072C9.76284 10.326 9.81024 10.3566 9.84955 10.3958Z" stroke="black" stroke-linecap="round" stroke-linejoin="round"/>
<path d="M19.8378 2H4.16216C3.58872 2 3.03877 2.2278 2.63328 2.63328C2.2278 3.03877 2 3.58872 2 4.16216V19.8378C2 20.4113 2.2278 20.9612 2.63328 21.3667C3.03877 21.7722 3.58872 22 4.16216 22H19.8378C20.4113 22 20.9612 21.7722 21.3667 21.3667C21.7722 20.9612 22 20.4113 22 19.8378V4.16216C22 3.58872 21.7722 3.03877 21.3667 2.63328C20.9612 2.2278 20.4113 2 19.8378 2Z" stroke="black" stroke-linecap="round" stroke-linejoin="round"/>
</svg>
