<svg width="24" height="24" viewBox="0 0 24 24" fill="none" xmlns="http://www.w3.org/2000/svg">
<path d="M17.2508 9.92009C17.3258 9.94509 17.355 10.0276 17.3775 10.1093C17.7666 11.4192 17.7666 12.5392 17.3775 13.8592C17.3458 13.9726 17.3 14.0351 17.24 14.0592C17.1525 14.0859 17.0583 14.0234 16.9783 13.9651L14.4274 12.2342C14.3291 12.1692 14.2716 12.0792 14.2716 11.9842C14.2716 11.8909 14.3274 11.8017 14.4274 11.7342L16.9775 10.0051C17.0941 9.92176 17.1833 9.89593 17.2508 9.92009ZM16.3158 15.6934C15.3708 16.6892 14.4024 17.2492 13.0716 17.5684C12.9588 17.5956 12.8791 17.5886 12.8324 17.5475C12.7624 17.4892 12.7716 17.3725 12.7783 17.2717L12.9991 14.1976C13.0133 14.0776 13.0599 13.9876 13.1449 13.9367C13.2258 13.8926 13.3308 13.8967 13.4341 13.9467L16.2091 15.2892C16.3375 15.3526 16.4066 15.4159 16.42 15.4859C16.4341 15.5626 16.3783 15.63 16.3158 15.6942V15.6934ZM12.0016 13.7542C11.5241 13.754 11.0662 13.5644 10.7284 13.2269C10.3906 12.8894 10.2006 12.4317 10.1999 11.9542C10.1999 11.3476 10.5024 10.7851 11.0099 10.4501C11.0497 10.4238 11.0944 10.4057 11.1412 10.3966C11.1881 10.3876 11.2362 10.3879 11.283 10.3975C11.3297 10.4071 11.3741 10.4258 11.4136 10.4526C11.4531 10.4793 11.487 10.5136 11.5132 10.5534C11.5395 10.5933 11.5577 10.6379 11.5667 10.6847C11.5757 10.7316 11.5754 10.7797 11.5658 10.8265C11.5562 10.8732 11.5375 10.9176 11.5108 10.9571C11.484 10.9966 11.4497 11.0305 11.4099 11.0568C11.2178 11.1842 11.0717 11.3701 10.9932 11.5869C10.9148 11.8037 10.9082 12.04 10.9743 12.2609C11.0404 12.4818 11.1758 12.6755 11.3605 12.8136C11.5452 12.9516 11.7693 13.0267 11.9999 13.0276C12.2308 13.0271 12.4554 12.9523 12.6405 12.8143C12.8256 12.6763 12.9613 12.4823 13.0275 12.2612C13.0938 12.04 13.0871 11.8034 13.0085 11.5863C12.9298 11.3692 12.7833 11.1833 12.5908 11.0559C12.515 11.0007 12.4635 10.9184 12.4469 10.8261C12.4303 10.7339 12.45 10.6388 12.5017 10.5607C12.5534 10.4825 12.6333 10.4273 12.7247 10.4066C12.8161 10.3858 12.912 10.4011 12.9924 10.4493C13.3156 10.6627 13.5614 10.9746 13.6933 11.3387C13.8253 11.7029 13.8364 12.0998 13.725 12.4708C13.6136 12.8417 13.3856 13.1669 13.0749 13.398C12.7642 13.6292 12.3872 13.7541 11.9999 13.7542H12.0016ZM11.2099 17.5925C11.1491 17.6425 11.0649 17.6259 10.9807 17.6059C9.65573 17.2892 8.68322 16.7292 7.73488 15.7309C7.6671 15.6587 7.63321 15.5948 7.63321 15.5392C7.63321 15.5284 7.63321 15.5225 7.63488 15.5109C7.64738 15.4242 7.75488 15.3726 7.84321 15.3292L10.6182 13.9834C10.7266 13.9334 10.8307 13.9301 10.9124 13.9784C10.9924 14.0259 11.0432 14.1167 11.0516 14.2326L11.2766 17.3125C11.2849 17.4584 11.2641 17.5475 11.2099 17.5925ZM7.02821 13.9842C6.90737 14.0676 6.81987 14.0967 6.7507 14.0726C6.6757 14.0459 6.6507 13.9642 6.6257 13.8809C6.23403 12.5734 6.23403 11.4517 6.62154 10.1309C6.65487 10.0184 6.70237 9.95593 6.7632 9.93343C6.8507 9.90259 6.94404 9.96676 7.02737 10.0251L9.57656 11.7584C9.6724 11.8217 9.72906 11.9101 9.72906 12.0067C9.72906 12.1001 9.6724 12.1884 9.57906 12.2567L7.02821 13.9842ZM7.68655 8.29094C8.63489 7.29428 9.60656 6.73262 10.9316 6.41595C11.0141 6.39679 11.1007 6.38096 11.1591 6.43262C11.2149 6.47679 11.2357 6.56762 11.2249 6.71512L10.9999 9.78593C10.9932 9.90426 10.9449 9.99759 10.8616 10.0434C10.7807 10.0918 10.6749 10.0893 10.5699 10.0376L7.79905 8.69427C7.70905 8.64927 7.60321 8.6026 7.58488 8.51094C7.57654 8.44844 7.60654 8.37427 7.68655 8.29094ZM12.8341 6.40762C12.8983 6.35679 12.9816 6.37262 13.0649 6.39012C14.3899 6.71095 15.3616 7.27095 16.3108 8.26761C16.3791 8.33927 16.4138 8.40483 16.415 8.46427L16.4133 8.48761C16.3925 8.57844 16.2916 8.62594 16.2008 8.6701L13.4274 10.0118C13.3183 10.0643 13.2158 10.0693 13.1358 10.0201C13.0549 9.97259 13.0041 9.88176 12.9941 9.76176L12.7716 6.69095C12.7616 6.54429 12.7816 6.45345 12.8341 6.40762ZM12.0041 5.34763C8.37072 5.34763 5.41403 8.30594 5.41403 11.9401C5.41403 15.575 8.37072 18.5317 12.0041 18.5317C15.6391 18.5317 18.5975 15.575 18.5975 11.9401C18.5975 8.30594 15.6391 5.34763 12.0041 5.34763ZM12.0041 19.4342C7.87488 19.4342 4.51235 16.0725 4.51235 11.9392C4.51235 7.80761 7.87488 4.44764 12.0041 4.44764C16.1375 4.44764 19.4983 7.80761 19.4983 11.9392C19.4983 16.0725 16.1375 19.4342 12.0041 19.4342ZM21.9817 11.6884L21.98 11.6609L21.9583 11.6484C21.535 11.3917 20.9783 11.2459 20.4333 11.2343C20.4032 11.0164 20.3746 10.7983 20.3475 10.5801C20.8667 10.4334 21.3658 10.1509 21.7142 9.78843L21.7333 9.77176L21.7283 9.74509C21.6956 9.53052 21.6398 9.32012 21.5617 9.1176L21.5508 9.0926L21.5242 9.08593C21.0458 8.94927 20.4733 8.9526 19.9466 9.08593C19.8656 8.88461 19.7834 8.68377 19.7 8.48344C20.1625 8.20011 20.5692 7.80011 20.8133 7.36678L20.8267 7.34595L20.8167 7.31845C20.7268 7.1211 20.618 6.93299 20.4917 6.75679L20.4783 6.73679H20.4492C19.9575 6.72595 19.4075 6.87595 18.9216 7.13678C18.8783 7.07845 18.5633 6.66762 18.52 6.61095C18.8983 6.22096 19.1866 5.72596 19.31 5.2443L19.3166 5.21596L19.2983 5.19596C19.1639 5.02551 19.0113 4.87016 18.8433 4.73263L18.8225 4.7168L18.7958 4.7218C18.3108 4.8443 17.8208 5.1343 17.4291 5.5093L16.9008 5.09513C17.1616 4.6343 17.315 4.10181 17.315 3.61181L17.3116 3.54514L17.2908 3.52848C17.1168 3.3983 16.928 3.28921 16.7283 3.20348L16.7033 3.19515L16.6825 3.20515C16.2475 3.44681 15.8491 3.85098 15.5699 4.31347C15.3583 4.2267 15.1472 4.13864 14.9366 4.04931C15.0016 3.78848 15.0424 3.52014 15.0424 3.25098C15.0453 2.98825 15.0094 2.72654 14.9358 2.47432L14.9299 2.44932L14.9024 2.43849C14.7027 2.35814 14.4944 2.30082 14.2816 2.26765L14.2533 2.26515L14.2358 2.28349C13.8774 2.63182 13.5949 3.12848 13.4458 3.64848C13.2238 3.61796 13.0016 3.58962 12.7791 3.56348C12.7724 3.02431 12.6266 2.47182 12.3699 2.04266L12.3566 2.01766H12.3299C12.1139 1.99411 11.8959 1.99411 11.6799 2.01766H11.6516L11.6391 2.04266C11.3841 2.46765 11.2407 3.02015 11.2307 3.56264C11.1557 3.57264 10.6332 3.63598 10.5574 3.64848C10.4074 3.12515 10.1241 2.62682 9.7674 2.28015L9.7474 2.25932L9.71823 2.26432C9.52656 2.29265 9.25989 2.36432 9.09322 2.43099L9.06822 2.44182L9.05989 2.46682C8.99077 2.72331 8.95602 2.98784 8.95656 3.25348C8.95656 3.51681 8.99822 3.78681 9.05989 4.04514C8.99489 4.07347 8.49072 4.2893 8.42322 4.3168C8.14238 3.85431 7.74238 3.44681 7.30904 3.20265L7.28571 3.18848L7.25904 3.19765C7.09237 3.27098 6.8507 3.41015 6.69904 3.52514L6.6757 3.53931V3.61098C6.6757 4.09681 6.8257 4.63097 7.08404 5.09513C7.02821 5.1418 6.6507 5.4368 6.5932 5.48263C6.20403 5.10763 5.71153 4.8168 5.22486 4.6918L5.20069 4.68597L5.18236 4.7043C5.03236 4.81597 4.83235 5.01263 4.71819 5.16013L4.70152 5.1818L4.70735 5.20846C4.82902 5.69179 5.11902 6.18346 5.49403 6.57845C5.45236 6.63595 5.12402 7.06428 5.07736 7.12345C4.60735 6.86095 4.05818 6.70429 3.55651 6.71179L3.53151 6.71345L3.51484 6.73595C3.38671 6.91145 3.2775 7.09999 3.18901 7.29845L3.17817 7.32178L3.19234 7.34595C3.43234 7.77761 3.84068 8.18177 4.30485 8.46427C4.27985 8.53094 4.08901 8.9951 4.05985 9.0626C3.52484 8.92927 2.95567 8.92927 2.47983 9.0676L2.454 9.07427L2.44483 9.09677C2.37483 9.26343 2.30233 9.52676 2.274 9.7251L2.27067 9.75176L2.289 9.77259C2.6365 10.1301 3.13484 10.4126 3.65568 10.5559L3.56818 11.2151C3.02734 11.2259 2.46983 11.3684 2.04483 11.6242L2.0215 11.6367L2.01816 11.6651C1.99395 11.8811 1.99395 12.0991 2.01816 12.3151L2.0215 12.3409L2.04483 12.3534C2.46983 12.6084 3.02234 12.7534 3.56734 12.7617C3.57734 12.8367 3.65068 13.3651 3.65901 13.4376C3.13817 13.5909 2.64234 13.8759 2.29567 14.2326L2.2765 14.2551L2.27983 14.2801C2.30983 14.4751 2.3815 14.7434 2.449 14.9051L2.45983 14.9301L2.484 14.9384C2.96651 15.0751 3.53651 15.0692 4.06568 14.9384C4.09235 15.0051 4.29735 15.4725 4.32568 15.54C3.86318 15.8175 3.45651 16.2192 3.21151 16.6525L3.19984 16.6775L3.20817 16.7025C3.27984 16.8734 3.42151 17.1142 3.53484 17.2634L3.55234 17.2859L3.57568 17.2875C4.07401 17.2942 4.62402 17.1459 5.10069 16.8825C5.14486 16.9392 5.46736 17.3575 5.50903 17.4159C5.13569 17.7992 4.84402 18.2909 4.72069 18.78L4.71402 18.805L4.73069 18.8275C4.84485 18.9734 5.04152 19.1692 5.18902 19.2884L5.20986 19.3067L5.23486 19.2984C5.7182 19.1775 6.20987 18.89 6.60237 18.5125L7.14154 18.9259C6.88487 19.3975 6.73404 19.9342 6.73404 20.4242V20.4792L6.75904 20.4958C6.90404 20.6075 7.14237 20.7433 7.31821 20.8208L7.34321 20.8308L7.36821 20.8183C7.80405 20.5767 8.20488 20.1683 8.48655 19.7L9.07822 19.9392C9.01115 20.1963 8.97671 20.4609 8.97572 20.7267C8.97572 21.0017 9.01156 21.2708 9.08072 21.5125L9.08739 21.5375L9.11406 21.5492C9.27906 21.6192 9.54323 21.6908 9.73906 21.7225L9.7674 21.7267L9.78573 21.705C10.1457 21.355 10.4274 20.8567 10.5682 20.3408C10.6432 20.3533 11.1716 20.4275 11.2449 20.4358C11.2557 20.9792 11.4016 21.5333 11.6566 21.955L11.6674 21.9783L11.6966 21.9825C11.8841 22.0058 12.1633 22.0058 12.3466 21.9825L12.3716 21.9783L12.3866 21.955C12.6391 21.5333 12.7849 20.9783 12.7983 20.4325C12.8716 20.4217 13.3649 20.3533 13.4399 20.3408C13.5849 20.8658 13.8683 21.3575 14.2283 21.7092L14.2474 21.7258L14.2724 21.725C14.4683 21.6933 14.7349 21.6242 14.9008 21.5567L14.9241 21.545L14.9333 21.52C15.0024 21.2767 15.0349 21.0092 15.0349 20.7342C15.0349 20.4692 14.9974 20.1975 14.9333 19.9367C15.0008 19.9117 15.4791 19.7034 15.5466 19.6742C15.8299 20.1383 16.23 20.5458 16.6616 20.7908L16.6833 20.8008L16.7083 20.7925C16.8808 20.7208 17.125 20.5808 17.2733 20.4642L17.295 20.4508V20.3783C17.295 19.8983 17.145 19.3642 16.8925 18.895L17.4008 18.4984C17.7958 18.8734 18.2875 19.1609 18.77 19.2859L18.7966 19.2934L18.8158 19.2759C18.9633 19.1592 19.1633 18.9609 19.2783 18.8175L19.2966 18.7925L19.2866 18.7709C19.1675 18.2892 18.88 17.7959 18.5033 17.4025C18.5475 17.3442 18.8658 16.9259 18.9091 16.8667C19.3875 17.1292 19.9383 17.2792 20.4325 17.27H20.4592L20.4758 17.2492C20.6085 17.0753 20.7177 16.8848 20.8008 16.6825L20.8125 16.6609L20.7992 16.6375C20.5633 16.2125 20.1592 15.8075 19.6958 15.5159L19.94 14.9217C20.465 15.0567 21.035 15.0609 21.515 14.9217L21.5375 14.9134L21.5483 14.8901C21.6192 14.7209 21.69 14.4592 21.72 14.2651L21.7233 14.2376L21.7033 14.2167C21.3558 13.8567 20.86 13.5776 20.3442 13.4292C20.3558 13.3567 20.425 12.8626 20.4325 12.7876C20.9792 12.7792 21.5358 12.6334 21.96 12.3792L21.9817 12.3642L21.9833 12.3351C21.9958 12.2451 22 12.1267 22 12.0109C22 11.8942 21.9958 11.7792 21.9833 11.6884" fill="black"/>
</svg>
