<svg width="24" height="24" viewBox="0 0 24 24" fill="none" xmlns="http://www.w3.org/2000/svg">
<path d="M5.52941 2V6.70588M5.52941 2H4.35294C2 2 2 4.35294 2 4.35294V6.11765C2 6.11765 2 6.70588 2.58823 6.70588H5.52941M5.52941 2L17.2941 2C17.2941 2 19.6471 2 19.6471 4.35294V17.2941M19.6471 17.2941H21.4118C21.4118 17.2941 22 17.2941 22 17.8824V19.6471C22 19.6471 22 22 19.6471 22H10.2353C10.2353 22 8.80123 22 7.88235 22M19.6471 17.2941H14.9412H11.4118C11.4118 17.2941 10.2353 17.2941 10.2353 18.4706V19.6471C10.2353 19.6471 10.2353 22 7.88235 22M5.52941 6.70588V19.6471C5.52941 19.6471 5.52941 22 7.88235 22" stroke="black"/>
<path d="M9 9L15 9" stroke="black" stroke-linecap="round"/>
<path d="M9 6H16" stroke="black" stroke-linecap="round"/>
<path d="M9 12L14 12" stroke="black" stroke-linecap="round"/>
<path d="M9 15L13 15" stroke="black" stroke-linecap="round"/>
</svg>
