<svg width="24" height="24" viewBox="0 0 24 24" fill="none" xmlns="http://www.w3.org/2000/svg">
<path d="M16.2006 8.33608C16.2606 8.35608 16.284 8.42207 16.302 8.48741C16.6133 9.5354 16.6133 10.4314 16.302 11.4874C16.2766 11.5781 16.24 11.628 16.192 11.6474C16.122 11.6687 16.0466 11.6187 15.9826 11.5721L13.9419 10.1874C13.8633 10.1354 13.8173 10.0634 13.8173 9.9874C13.8173 9.91273 13.8619 9.8414 13.9419 9.7874L15.982 8.40407C16.0753 8.33741 16.1466 8.31674 16.2006 8.33608ZM15.4526 12.9547C14.6966 13.7514 13.9219 14.1994 12.8573 14.4547C12.7671 14.4765 12.7033 14.4709 12.6659 14.438C12.6099 14.3914 12.6173 14.298 12.6226 14.2174L12.7993 11.758C12.8106 11.662 12.8479 11.5901 12.9159 11.5494C12.9806 11.5141 13.0646 11.5174 13.1473 11.5574L15.3673 12.6314C15.47 12.682 15.5253 12.7327 15.536 12.7887C15.5473 12.85 15.5026 12.904 15.4526 12.9554V12.9547ZM12.0013 11.4034C11.6193 11.4032 11.253 11.2515 10.9827 10.9815C10.7125 10.7115 10.5605 10.3454 10.5599 9.9634C10.5599 9.47807 10.8019 9.02807 11.2079 8.76007C11.2398 8.73906 11.2755 8.72453 11.313 8.71732C11.3505 8.7101 11.389 8.71033 11.4264 8.71801C11.4638 8.72569 11.4993 8.74065 11.5309 8.76205C11.5625 8.78345 11.5896 8.81087 11.6106 8.84274C11.6316 8.87461 11.6461 8.9103 11.6534 8.94778C11.6606 8.98526 11.6603 9.0238 11.6527 9.06119C11.645 9.09858 11.63 9.13409 11.6086 9.1657C11.5872 9.19731 11.5598 9.22439 11.5279 9.2454C11.3742 9.34736 11.2573 9.49605 11.1946 9.6695C11.1318 9.84296 11.1265 10.032 11.1794 10.2087C11.2323 10.3854 11.3406 10.5404 11.4884 10.6509C11.6361 10.7613 11.8155 10.8213 11.9999 10.8221C12.1846 10.8217 12.3643 10.7619 12.5124 10.6514C12.6604 10.541 12.769 10.3859 12.822 10.2089C12.8751 10.032 12.8697 9.8427 12.8068 9.66904C12.7438 9.49539 12.6267 9.34662 12.4726 9.24473C12.412 9.20055 12.3708 9.13471 12.3575 9.06091C12.3443 8.98712 12.36 8.91105 12.4014 8.84853C12.4428 8.78601 12.5067 8.74185 12.5798 8.72525C12.6529 8.70866 12.7296 8.72089 12.7939 8.75941C13.0525 8.93017 13.2491 9.1797 13.3547 9.471C13.4602 9.7623 13.4691 10.0799 13.38 10.3766C13.2909 10.6734 13.1085 10.9335 12.8599 11.1184C12.6113 11.3034 12.3098 11.4033 11.9999 11.4034H12.0013ZM11.3679 14.474C11.3193 14.514 11.2519 14.5007 11.1846 14.4847C10.1246 14.2314 9.34658 13.7834 8.5879 12.9847C8.53368 12.9269 8.50657 12.8758 8.50657 12.8314C8.50657 12.8227 8.50657 12.818 8.5079 12.8087C8.5179 12.7394 8.6039 12.698 8.67457 12.6634L10.8946 11.5867C10.9813 11.5467 11.0646 11.5441 11.1299 11.5827C11.1939 11.6207 11.2346 11.6934 11.2413 11.786L11.4213 14.25C11.4279 14.3667 11.4113 14.438 11.3679 14.474ZM8.02257 11.5874C7.9259 11.654 7.8559 11.6774 7.80056 11.6581C7.74056 11.6367 7.72056 11.5714 7.70056 11.5047C7.38723 10.4587 7.38723 9.5614 7.69723 8.50474C7.7239 8.41474 7.7619 8.36474 7.81056 8.34674C7.88056 8.32208 7.95523 8.37341 8.0219 8.42007L10.0612 9.80673C10.1379 9.8574 10.1833 9.92806 10.1833 10.0054C10.1833 10.0801 10.1379 10.1507 10.0632 10.2054L8.02257 11.5874ZM8.54924 7.03275C9.30791 6.23543 10.0853 5.7861 11.1453 5.53276C11.2113 5.51743 11.2806 5.50476 11.3273 5.5461C11.3719 5.58143 11.3886 5.6541 11.3799 5.7721L11.1999 8.22874C11.1946 8.32341 11.1559 8.39808 11.0893 8.43474C11.0246 8.47341 10.9399 8.47141 10.8559 8.43008L8.63924 7.35542C8.56724 7.31942 8.48257 7.28208 8.4679 7.20875C8.46124 7.15875 8.48524 7.09942 8.54924 7.03275ZM12.6673 5.5261C12.7186 5.48543 12.7853 5.4981 12.8519 5.5121C13.9119 5.76876 14.6893 6.21676 15.4486 7.01409C15.5033 7.07142 15.5311 7.12386 15.532 7.17142L15.5306 7.19008C15.514 7.26275 15.4333 7.30075 15.3606 7.33608L13.1419 8.40941C13.0546 8.45141 12.9726 8.45541 12.9086 8.41607C12.8439 8.37807 12.8033 8.30541 12.7953 8.20941L12.6173 5.75276C12.6093 5.63543 12.6253 5.56276 12.6673 5.5261ZM12.0033 4.6781C9.09657 4.6781 6.73122 7.04475 6.73122 9.95206C6.73122 12.86 9.09657 15.2254 12.0033 15.2254C14.9113 15.2254 17.278 12.86 17.278 9.95206C17.278 7.04475 14.9113 4.6781 12.0033 4.6781ZM12.0033 15.9473C8.6999 15.9473 6.00988 13.258 6.00988 9.9514C6.00988 6.64609 8.6999 3.95811 12.0033 3.95811C15.31 3.95811 17.9986 6.64609 17.9986 9.9514C17.9986 13.258 15.31 15.9473 12.0033 15.9473ZM19.9853 9.75073L19.984 9.72873L19.9667 9.71873C19.628 9.5134 19.1827 9.39673 18.7467 9.3874C18.7226 9.21312 18.6997 9.03867 18.678 8.86407C19.0933 8.74674 19.4927 8.52074 19.7713 8.23074L19.7867 8.21741L19.7827 8.19608C19.7565 8.02441 19.7118 7.8561 19.6493 7.69408L19.6407 7.67408L19.6193 7.66875C19.2367 7.55942 18.7787 7.56208 18.3573 7.66875C18.2925 7.50769 18.2267 7.34702 18.16 7.18675C18.53 6.96009 18.8553 6.64009 19.0507 6.29343L19.0613 6.27676L19.0533 6.25476C18.9815 6.09688 18.8944 5.94639 18.7933 5.80543L18.7827 5.78943H18.7593C18.366 5.78076 17.926 5.90076 17.5373 6.10943C17.5026 6.06276 17.2506 5.7341 17.216 5.68876C17.5186 5.37677 17.7493 4.98077 17.848 4.59544L17.8533 4.57277L17.8386 4.55677C17.7311 4.42041 17.609 4.29613 17.4746 4.18611L17.458 4.17344L17.4366 4.17744C17.0486 4.27544 16.6566 4.50744 16.3433 4.80744L15.9206 4.47611C16.1293 4.10744 16.252 3.68145 16.252 3.28945L16.2493 3.23612L16.2326 3.22278C16.0934 3.11864 15.9424 3.03137 15.7826 2.96278L15.7626 2.95612L15.746 2.96412C15.398 3.15745 15.0793 3.48078 14.856 3.85078C14.6866 3.78136 14.5177 3.71091 14.3493 3.63945C14.4013 3.43078 14.434 3.21612 14.434 3.00078C14.4363 2.7906 14.4075 2.58123 14.3486 2.37946L14.344 2.35946L14.322 2.35079C14.1621 2.28651 13.9955 2.24066 13.8253 2.21412L13.8026 2.21212L13.7886 2.22679C13.5019 2.50545 13.2759 2.90278 13.1566 3.31878C12.9791 3.29437 12.8013 3.2717 12.6233 3.25078C12.6179 2.81945 12.5013 2.37746 12.2959 2.03412L12.2853 2.01412H12.2639C12.0911 1.99529 11.9168 1.99529 11.7439 2.01412H11.7213L11.7113 2.03412C11.5073 2.37412 11.3926 2.81612 11.3846 3.25012C11.3246 3.25812 10.9066 3.30878 10.8459 3.31878C10.7259 2.90012 10.4993 2.50145 10.2139 2.22412L10.1979 2.20746L10.1746 2.21146C10.0212 2.23412 9.80791 2.29146 9.67458 2.34479L9.65458 2.35346L9.64791 2.37346C9.59262 2.57865 9.56482 2.79027 9.56525 3.00278C9.56525 3.21345 9.59858 3.42945 9.64791 3.63611C9.59591 3.65878 9.19258 3.83144 9.13857 3.85344C8.91391 3.48345 8.5939 3.15745 8.24723 2.96212L8.22857 2.95078L8.20723 2.95812C8.0739 3.01678 7.88056 3.12812 7.75923 3.22012L7.74056 3.23145V3.28878C7.74056 3.67745 7.86056 4.10478 8.06723 4.47611C8.02257 4.51344 7.72056 4.74944 7.67456 4.7861C7.36323 4.48611 6.96922 4.25344 6.57989 4.15344L6.56055 4.14877L6.54589 4.16344C6.42588 4.25277 6.26588 4.41011 6.17455 4.52811L6.16122 4.54544L6.16588 4.56677C6.26322 4.95344 6.49522 5.34677 6.79522 5.66276C6.76189 5.70876 6.49922 6.05143 6.46189 6.09876C6.08588 5.88876 5.64654 5.76343 5.24521 5.76943L5.22521 5.77076L5.21187 5.78876C5.10937 5.92916 5.022 6.07999 4.95121 6.23876L4.94254 6.25743L4.95387 6.27676C5.14587 6.62209 5.47254 6.94542 5.84388 7.17142C5.82388 7.22475 5.67121 7.59608 5.64788 7.65008C5.21987 7.54342 4.76454 7.54341 4.38387 7.65408L4.3632 7.65941L4.35587 7.67741C4.29987 7.81075 4.24187 8.02141 4.2192 8.18008L4.21653 8.20141L4.2312 8.21808C4.5092 8.50407 4.90787 8.73007 5.32454 8.84474L5.25454 9.37207C4.82187 9.38073 4.37587 9.49473 4.03586 9.6994L4.0172 9.7094L4.01453 9.73206C3.99516 9.90485 3.99516 10.0793 4.01453 10.2521L4.0172 10.2727L4.03586 10.2827C4.37587 10.4867 4.81787 10.6027 5.25387 10.6094C5.26188 10.6694 5.32054 11.0921 5.32721 11.1501C4.91054 11.2727 4.51387 11.5007 4.23653 11.786L4.2212 11.804L4.22387 11.824C4.24787 11.98 4.3052 12.1947 4.3592 12.324L4.36787 12.344L4.3872 12.3507C4.7732 12.46 5.22921 12.4554 5.65255 12.3507C5.67388 12.404 5.83788 12.778 5.86055 12.832C5.49054 13.054 5.16521 13.3754 4.96921 13.722L4.95987 13.742L4.96654 13.762C5.02387 13.8987 5.13721 14.0914 5.22787 14.2107L5.24187 14.2287L5.26054 14.23C5.65921 14.2354 6.09922 14.1167 6.48055 13.906C6.51589 13.9514 6.77389 14.286 6.80722 14.3327C6.50855 14.6394 6.27522 15.0327 6.17655 15.424L6.17122 15.444L6.18455 15.462C6.27588 15.5787 6.43322 15.7354 6.55122 15.8307L6.56789 15.8454L6.58789 15.8387C6.97456 15.742 7.36789 15.512 7.6819 15.21L8.11323 15.5407C7.9079 15.918 7.78723 16.3473 7.78723 16.7393V16.7833L7.80723 16.7967C7.92323 16.886 8.1139 16.9947 8.25457 17.0567L8.27457 17.0647L8.29457 17.0547C8.64324 16.8613 8.96391 16.5347 9.18924 16.16L9.66258 16.3513C9.60892 16.5571 9.58137 16.7687 9.58058 16.9813C9.58058 17.2013 9.60925 17.4167 9.66458 17.61L9.66991 17.63L9.69125 17.6393C9.82325 17.6953 10.0346 17.7527 10.1913 17.778L10.2139 17.7813L10.2286 17.764C10.5166 17.484 10.7419 17.0853 10.8546 16.6727C10.9146 16.6827 11.3373 16.742 11.3959 16.7487C11.4046 17.1833 11.5213 17.6267 11.7253 17.964L11.7339 17.9827L11.7573 17.986C11.9073 18.0047 12.1306 18.0047 12.2773 17.986L12.2973 17.9827L12.3093 17.964C12.5113 17.6267 12.6279 17.1827 12.6386 16.746C12.6973 16.7373 13.0919 16.6827 13.1519 16.6727C13.2679 17.0927 13.4946 17.486 13.7826 17.7673L13.7979 17.7807L13.8179 17.78C13.9746 17.7547 14.188 17.6993 14.3206 17.6453L14.3393 17.636L14.3466 17.616C14.402 17.4213 14.428 17.2073 14.428 16.9873C14.428 16.7753 14.398 16.558 14.3466 16.3493C14.4006 16.3293 14.7833 16.1627 14.8373 16.1393C15.064 16.5107 15.384 16.8367 15.7293 17.0327L15.7466 17.0407L15.7666 17.034C15.9046 16.9767 16.1 16.8647 16.2186 16.7713L16.236 16.7607V16.7027C16.236 16.3187 16.116 15.8914 15.914 15.516L16.3206 15.1987C16.6366 15.4987 17.03 15.7287 17.416 15.8287L17.4373 15.8347L17.4526 15.8207C17.5706 15.7274 17.7306 15.5687 17.8226 15.454L17.8373 15.434L17.8293 15.4167C17.734 15.0314 17.504 14.6367 17.2026 14.322C17.238 14.2754 17.4926 13.9407 17.5273 13.8934C17.91 14.1034 18.3507 14.2234 18.746 14.216H18.7673L18.7807 14.1994C18.8868 14.0603 18.9742 13.9079 19.0407 13.746L19.05 13.7287L19.0393 13.71C18.8507 13.37 18.5273 13.046 18.1567 12.8127L18.352 12.3374C18.772 12.4454 19.228 12.4487 19.612 12.3374L19.63 12.3307L19.6387 12.312C19.6953 12.1767 19.752 11.9674 19.776 11.812L19.7787 11.79L19.7627 11.7734C19.4847 11.4854 19.088 11.2621 18.6753 11.1434C18.6847 11.0854 18.74 10.6901 18.746 10.6301C19.1833 10.6234 19.6287 10.5067 19.968 10.3034L19.9853 10.2914L19.9867 10.2681C19.9967 10.1961 20 10.1014 20 10.0087C20 9.9154 19.9967 9.8234 19.9867 9.75073" fill="black"/>
<path d="M7 22V19H7.48739V20.3784H7.52023L8.56988 19H9.16499L8.12453 20.3462L9.17419 22H8.58827L7.7856 20.7139L7.48739 21.1064V22H7Z" fill="black"/>
<path d="M10.4636 20.2817V20.7183H9.25235V20.2817H10.4636Z" fill="black"/>
<path d="M11.3303 22H10.8101L11.7573 19H12.3589L13.3074 22H12.7872L12.0686 19.6152H12.0476L11.3303 22ZM11.3474 20.8237H12.7662V21.2603H11.3474V20.8237Z" fill="black"/>
<path d="M13.6618 22V19H14.6707C14.8774 19 15.0508 19.043 15.191 19.1289C15.332 19.2148 15.4384 19.333 15.5102 19.4834C15.5829 19.6328 15.6192 19.8027 15.6192 19.9932C15.6192 20.1855 15.5829 20.3564 15.5102 20.5059C15.4375 20.6553 15.3302 20.7729 15.1883 20.8589C15.0465 20.9438 14.8717 20.9863 14.6642 20.9863H13.9955V20.5396H14.5985C14.7193 20.5396 14.8183 20.5161 14.8954 20.4692C14.9725 20.4224 15.0294 20.3579 15.0662 20.2759C15.1038 20.1938 15.1227 20.0996 15.1227 19.9932C15.1227 19.8867 15.1038 19.793 15.0662 19.7119C15.0294 19.6309 14.972 19.5679 14.8941 19.5229C14.817 19.4771 14.7176 19.4541 14.5959 19.4541H14.1492V22H13.6618Z" fill="black"/>
<path d="M16.0426 22V19H17.0515C17.2582 19 17.4316 19.043 17.5717 19.1289C17.7127 19.2148 17.8191 19.333 17.891 19.4834C17.9637 19.6328 18 19.8027 18 19.9932C18 20.1855 17.9637 20.3564 17.891 20.5059C17.8183 20.6553 17.711 20.7729 17.5691 20.8589C17.4272 20.9438 17.2525 20.9863 17.0449 20.9863H16.3763V20.5396H16.9792C17.1001 20.5396 17.1991 20.5161 17.2761 20.4692C17.3532 20.4224 17.4101 20.3579 17.4469 20.2759C17.4846 20.1938 17.5034 20.0996 17.5034 19.9932C17.5034 19.8867 17.4846 19.793 17.4469 19.7119C17.4101 19.6309 17.3528 19.5679 17.2748 19.5229C17.1978 19.4771 17.0984 19.4541 16.9766 19.4541H16.53V22H16.0426Z" fill="black"/>
</svg>
