<svg width="24" height="24" viewBox="0 0 24 24" fill="none" xmlns="http://www.w3.org/2000/svg">
<path d="M10.4975 22H21.8274M16.1624 3.58525L20.4112 7.8351M16.1624 3.58525L3.41624 16.4134L3.94733 16.9346M16.1624 3.58525L16.8762 2.88305C17.4067 2.34984 18.1183 2.03565 18.8697 2.00285C19.6211 1.97005 20.3574 2.22104 20.9323 2.70599L21.1193 2.87738C21.3985 3.15628 21.62 3.48749 21.7711 3.85207C21.9222 4.21665 22 4.60745 22 5.00212C22 5.39679 21.9222 5.78759 21.7711 6.15217C21.62 6.51675 21.3985 6.84796 21.1193 7.12685L14.3921 13.8552L7.66497 20.5835L7.13388 20.0622M3.94733 16.9346L7.13388 20.0622M3.94733 16.9346L2 22L7.13388 20.0622" stroke="black" stroke-linecap="round" stroke-linejoin="round"/>
</svg>
