<svg width="24" height="24" viewBox="0 0 24 24" fill="none" xmlns="http://www.w3.org/2000/svg">
<path d="M12.212 14.9309C13.8306 14.9309 15.1428 13.6187 15.1428 12.0001C15.1428 10.3815 13.8306 9.06934 12.212 9.06934C10.5934 9.06934 9.28125 10.3815 9.28125 12.0001C9.28125 13.6187 10.5934 14.9309 12.212 14.9309Z" stroke="black"/>
<path d="M13.9348 2.37896C13.5763 2.23047 13.1211 2.23047 12.2106 2.23047C11.3001 2.23047 10.8448 2.23047 10.4863 2.37896C10.2491 2.47715 10.0336 2.62113 9.85202 2.80267C9.67049 2.98421 9.52651 3.19975 9.42831 3.43696C9.33844 3.65482 9.30229 3.90979 9.28861 4.28005C9.28225 4.54765 9.20812 4.80927 9.07314 5.04044C8.93817 5.2716 8.74677 5.46475 8.51685 5.60182C8.28317 5.7325 8.02017 5.80177 7.75244 5.80313C7.48471 5.8045 7.22101 5.73792 6.98601 5.60963C6.65777 5.43574 6.42038 5.34 6.18494 5.30874C5.67139 5.24121 5.15204 5.38036 4.74105 5.6956C4.4343 5.93299 4.2057 6.32669 3.75045 7.11507C3.29521 7.90344 3.06661 8.29714 3.01679 8.68302C2.98322 8.93746 3.0001 9.19603 3.06648 9.44394C3.13286 9.69185 3.24743 9.92426 3.40365 10.1279C3.54823 10.3155 3.75045 10.4727 4.06405 10.6701C4.52613 10.9602 4.82311 11.4545 4.82311 11.9997C4.82311 12.5448 4.52613 13.0391 4.06405 13.3283C3.75045 13.5266 3.54726 13.6839 3.40365 13.8714C3.24743 14.0751 3.13286 14.3075 3.06648 14.5554C3.0001 14.8033 2.98322 15.0619 3.01679 15.3163C3.06759 15.7012 3.29521 16.0959 3.74948 16.8843C4.2057 17.6726 4.43332 18.0663 4.74105 18.3037C4.94468 18.4599 5.17708 18.5745 5.425 18.6409C5.67291 18.7073 5.93147 18.7242 6.18592 18.6906C6.42038 18.6593 6.65777 18.5636 6.98601 18.3897C7.22101 18.2614 7.48471 18.1948 7.75244 18.1962C8.02017 18.1976 8.28317 18.2668 8.51685 18.3975C8.9887 18.671 9.26907 19.1742 9.28861 19.7193C9.30229 20.0905 9.33746 20.3445 9.42831 20.5624C9.52651 20.7996 9.67049 21.0151 9.85202 21.1967C10.0336 21.3782 10.2491 21.5222 10.4863 21.6204C10.8448 21.7689 11.3001 21.7689 12.2106 21.7689C13.1211 21.7689 13.5763 21.7689 13.9348 21.6204C14.1721 21.5222 14.3876 21.3782 14.5691 21.1967C14.7507 21.0151 14.8947 20.7996 14.9928 20.5624C15.0827 20.3445 15.1189 20.0905 15.1325 19.7193C15.1521 19.1742 15.4325 18.6701 15.9043 18.3975C16.138 18.2668 16.401 18.1976 16.6687 18.1962C16.9364 18.1948 17.2001 18.2614 17.4351 18.3897C17.7634 18.5636 18.0008 18.6593 18.2352 18.6906C18.4897 18.7242 18.7482 18.7073 18.9962 18.6409C19.2441 18.5745 19.4765 18.4599 19.6801 18.3037C19.9878 18.0673 20.2155 17.6726 20.6707 16.8843C21.1259 16.0959 21.3545 15.7022 21.4044 15.3163C21.4379 15.0619 21.4211 14.8033 21.3547 14.5554C21.2883 14.3075 21.1737 14.0751 21.0175 13.8714C20.8729 13.6839 20.6707 13.5266 20.3571 13.3293C20.1284 13.1899 19.9389 12.9949 19.8061 12.7624C19.6733 12.5298 19.6018 12.2674 19.598 11.9997C19.598 11.4545 19.895 10.9602 20.3571 10.6711C20.6707 10.4727 20.8739 10.3155 21.0175 10.1279C21.1737 9.92426 21.2883 9.69185 21.3547 9.44394C21.4211 9.19603 21.4379 8.93746 21.4044 8.68302C21.3536 8.29812 21.1259 7.90344 20.6717 7.11507C20.2155 6.32669 19.9878 5.93299 19.6801 5.6956C19.4765 5.53938 19.2441 5.42481 18.9962 5.35843C18.7482 5.29206 18.4897 5.27517 18.2352 5.30874C18.0008 5.34 17.7634 5.43574 17.4342 5.60963C17.1993 5.73775 16.9358 5.80423 16.6682 5.80286C16.4007 5.8015 16.1379 5.73233 15.9043 5.60182C15.6744 5.46475 15.483 5.2716 15.348 5.04044C15.213 4.80927 15.1389 4.54765 15.1325 4.28005C15.1189 3.90882 15.0837 3.65482 14.9928 3.43696C14.8947 3.19975 14.7507 2.98421 14.5691 2.80267C14.3876 2.62113 14.1721 2.47715 13.9348 2.37896Z" stroke="black"/>
</svg>
