<svg width="24" height="24" viewBox="0 0 24 24" fill="none" xmlns="http://www.w3.org/2000/svg">
<path d="M19.6254 15.96C19.6629 15.9725 19.6775 16.0138 19.6887 16.0546C19.8833 16.7096 19.8833 17.2696 19.6887 17.9296C19.6729 17.9863 19.65 18.0175 19.62 18.0296C19.5762 18.0429 19.5291 18.0117 19.4891 17.9825L18.2137 17.1171C18.1646 17.0846 18.1358 17.0396 18.1358 16.9921C18.1358 16.9455 18.1637 16.9009 18.2137 16.8671L19.4887 16.0025C19.5471 15.9609 19.5916 15.948 19.6254 15.96ZM19.1579 18.8467C18.6854 19.3446 18.2012 19.6246 17.5358 19.7842C17.4794 19.7978 17.4395 19.7943 17.4162 19.7738C17.3812 19.7446 17.3858 19.6863 17.3891 19.6359L17.4995 18.0988C17.5066 18.0388 17.53 17.9938 17.5725 17.9684C17.6129 17.9463 17.6654 17.9484 17.717 17.9734L19.1046 18.6446C19.1687 18.6763 19.2033 18.7079 19.21 18.7429C19.2171 18.7813 19.1891 18.815 19.1579 18.8471V18.8467ZM17.0008 17.8771C16.7621 17.877 16.5331 17.7822 16.3642 17.6134C16.1953 17.4447 16.1003 17.2159 16.1 16.9771C16.1 16.6738 16.2512 16.3925 16.505 16.225C16.5249 16.2119 16.5472 16.2028 16.5706 16.1983C16.594 16.1938 16.6181 16.194 16.6415 16.1988C16.6649 16.2036 16.6871 16.2129 16.7068 16.2263C16.7266 16.2397 16.7435 16.2568 16.7566 16.2767C16.7698 16.2966 16.7788 16.3189 16.7833 16.3424C16.7879 16.3658 16.7877 16.3899 16.7829 16.4132C16.7781 16.4366 16.7688 16.4588 16.7554 16.4786C16.742 16.4983 16.7249 16.5152 16.705 16.5284C16.6089 16.5921 16.5358 16.685 16.4966 16.7934C16.4574 16.9018 16.4541 17.02 16.4871 17.1304C16.5202 17.2409 16.5879 17.3378 16.6802 17.4068C16.7726 17.4758 16.8847 17.5133 17 17.5138C17.1154 17.5136 17.2277 17.4762 17.3202 17.4072C17.4128 17.3381 17.4806 17.2412 17.5138 17.1306C17.5469 17.02 17.5436 16.9017 17.5042 16.7932C17.4649 16.6846 17.3917 16.5916 17.2954 16.528C17.2575 16.5003 17.2318 16.4592 17.2235 16.4131C17.2152 16.3669 17.225 16.3194 17.2508 16.2803C17.2767 16.2413 17.3167 16.2137 17.3624 16.2033C17.4081 16.1929 17.456 16.2006 17.4962 16.2246C17.6578 16.3314 17.7807 16.4873 17.8467 16.6694C17.9126 16.8514 17.9182 17.0499 17.8625 17.2354C17.8068 17.4208 17.6928 17.5834 17.5375 17.699C17.3821 17.8146 17.1936 17.8771 17 17.8771H17.0008ZM16.605 19.7963C16.5745 19.8213 16.5325 19.8129 16.4904 19.8029C15.8279 19.6446 15.3416 19.3646 14.8674 18.8654C14.8336 18.8293 14.8166 18.7974 14.8166 18.7696C14.8166 18.7642 14.8166 18.7613 14.8174 18.7554C14.8237 18.7121 14.8774 18.6863 14.9216 18.6646L16.3091 17.9917C16.3633 17.9667 16.4154 17.965 16.4562 17.9892C16.4962 18.0129 16.5216 18.0584 16.5258 18.1163L16.6383 19.6563C16.6425 19.7292 16.632 19.7738 16.605 19.7963ZM14.5141 17.9921C14.4537 18.0338 14.4099 18.0484 14.3754 18.0363C14.3379 18.0229 14.3254 17.9821 14.3129 17.9404C14.117 17.2867 14.117 16.7259 14.3108 16.0655C14.3274 16.0092 14.3512 15.978 14.3816 15.9667C14.4254 15.9513 14.472 15.9834 14.5137 16.0125L15.7883 16.8792C15.8362 16.9109 15.8645 16.955 15.8645 17.0034C15.8645 17.05 15.8362 17.0942 15.7895 17.1284L14.5141 17.9921ZM14.8433 15.1455C15.3174 14.6471 15.8033 14.3663 16.4658 14.208C16.507 14.1984 16.5504 14.1905 16.5795 14.2163C16.6075 14.2384 16.6179 14.2838 16.6125 14.3576L16.5 15.893C16.4966 15.9521 16.4725 15.9988 16.4308 16.0217C16.3904 16.0459 16.3375 16.0446 16.285 16.0188L14.8995 15.3471C14.8545 15.3246 14.8016 15.3013 14.7924 15.2555C14.7883 15.2242 14.8033 15.1871 14.8433 15.1455ZM17.417 14.2038C17.4491 14.1784 17.4908 14.1863 17.5325 14.1951C18.195 14.3555 18.6808 14.6355 19.1554 15.1338C19.1896 15.1696 19.2069 15.2024 19.2075 15.2321L19.2066 15.2438C19.1962 15.2892 19.1458 15.313 19.1004 15.3351L17.7137 16.0059C17.6591 16.0321 17.6079 16.0346 17.5679 16.01C17.5275 15.9863 17.502 15.9409 17.497 15.8809L17.3858 14.3455C17.3808 14.2721 17.3908 14.2267 17.417 14.2038ZM17.002 13.6738C15.1854 13.6738 13.707 15.153 13.707 16.97C13.707 18.7875 15.1854 20.2658 17.002 20.2658C18.8196 20.2658 20.2987 18.7875 20.2987 16.97C20.2987 15.153 18.8196 13.6738 17.002 13.6738ZM17.002 20.7171C14.9374 20.7171 13.2562 19.0363 13.2562 16.9696C13.2562 14.9038 14.9374 13.2238 17.002 13.2238C19.0687 13.2238 20.7492 14.9038 20.7492 16.9696C20.7492 19.0363 19.0687 20.7171 17.002 20.7171ZM21.9908 16.8442L21.99 16.8305L21.9792 16.8242C21.7675 16.6959 21.4892 16.623 21.2167 16.6171C21.2016 16.5082 21.1873 16.3992 21.1737 16.29C21.4333 16.2167 21.6829 16.0755 21.8571 15.8942L21.8667 15.8859L21.8642 15.8725C21.8478 15.7653 21.8199 15.6601 21.7808 15.5588L21.7754 15.5463L21.7621 15.543C21.5229 15.4746 21.2367 15.4763 20.9733 15.543C20.9328 15.4423 20.8917 15.3419 20.85 15.2417C21.0812 15.1001 21.2846 14.9001 21.4067 14.6834L21.4133 14.673L21.4083 14.6592C21.3634 14.5606 21.309 14.4665 21.2458 14.3784L21.2392 14.3684H21.2246C20.9787 14.363 20.7037 14.438 20.4608 14.5684C20.4392 14.5392 20.2817 14.3338 20.26 14.3055C20.4492 14.1105 20.5933 13.863 20.655 13.6221L20.6583 13.608L20.6492 13.598C20.5819 13.5128 20.5056 13.4351 20.4217 13.3663L20.4112 13.3584L20.3979 13.3609C20.1554 13.4222 19.9104 13.5671 19.7146 13.7546L19.4504 13.5476C19.5808 13.3172 19.6575 13.0509 19.6575 12.8059L19.6558 12.7726L19.6454 12.7642C19.5584 12.6992 19.464 12.6446 19.3641 12.6017L19.3516 12.5976L19.3412 12.6026C19.1237 12.7234 18.9246 12.9255 18.785 13.1567C18.6792 13.1133 18.5736 13.0693 18.4683 13.0247C18.5008 12.8942 18.5212 12.7601 18.5212 12.6255C18.5227 12.4941 18.5047 12.3633 18.4679 12.2372L18.465 12.2247L18.4512 12.2192C18.3513 12.1791 18.2472 12.1504 18.1408 12.1338L18.1266 12.1326L18.1179 12.1417C17.9387 12.3159 17.7975 12.5642 17.7229 12.8242C17.6119 12.809 17.5008 12.7948 17.3895 12.7817C17.3862 12.5122 17.3133 12.2359 17.185 12.0213L17.1783 12.0088H17.165C17.0569 11.9971 16.948 11.9971 16.84 12.0088H16.8258L16.8195 12.0213C16.692 12.2338 16.6204 12.5101 16.6154 12.7813C16.5779 12.7863 16.3166 12.818 16.2787 12.8242C16.2037 12.5626 16.062 12.3134 15.8837 12.1401L15.8737 12.1297L15.8591 12.1322C15.7633 12.1463 15.6299 12.1822 15.5466 12.2155L15.5341 12.2209L15.5299 12.2334C15.4954 12.3617 15.478 12.4939 15.4783 12.6267C15.4783 12.7584 15.4991 12.8934 15.5299 13.0226C15.4974 13.0367 15.2454 13.1447 15.2116 13.1584C15.0712 12.9272 14.8712 12.7234 14.6545 12.6013L14.6429 12.5942L14.6295 12.5988C14.5462 12.6355 14.4254 12.7051 14.3495 12.7626L14.3379 12.7697V12.8055C14.3379 13.0484 14.4129 13.3155 14.542 13.5476C14.5141 13.5709 14.3254 13.7184 14.2966 13.7413C14.102 13.5538 13.8558 13.4084 13.6124 13.3459L13.6003 13.343L13.5912 13.3522C13.5162 13.408 13.4162 13.5063 13.3591 13.5801L13.3508 13.5909L13.3537 13.6042C13.4145 13.8459 13.5595 14.0917 13.747 14.2892C13.7262 14.318 13.562 14.5321 13.5387 14.5617C13.3037 14.4305 13.0291 14.3521 12.7783 14.3559L12.7658 14.3567L12.7574 14.368C12.6934 14.4557 12.6387 14.55 12.5945 14.6492L12.5891 14.6609L12.5962 14.673C12.7162 14.8888 12.9203 15.0909 13.1524 15.2321C13.1399 15.2655 13.0445 15.4976 13.0299 15.5313C12.7624 15.4646 12.4778 15.4646 12.2399 15.5338L12.227 15.5371L12.2224 15.5484C12.1874 15.6317 12.1512 15.7634 12.137 15.8625L12.1353 15.8759L12.1445 15.8863C12.3183 16.065 12.5674 16.2063 12.8278 16.278L12.7841 16.6075C12.5137 16.613 12.2349 16.6842 12.0224 16.8121L12.0107 16.8184L12.0091 16.8325C11.997 16.9405 11.997 17.0495 12.0091 17.1575L12.0107 17.1705L12.0224 17.1767C12.2349 17.3042 12.5112 17.3767 12.7837 17.3809C12.7887 17.4184 12.8253 17.6825 12.8295 17.7188C12.5691 17.7954 12.3212 17.9379 12.1478 18.1163L12.1382 18.1275L12.1399 18.14C12.1549 18.2375 12.1908 18.3717 12.2245 18.4525L12.2299 18.465L12.242 18.4692C12.4833 18.5375 12.7683 18.5346 13.0328 18.4692C13.0462 18.5025 13.1487 18.7363 13.1628 18.77C12.9316 18.9088 12.7283 19.1096 12.6058 19.3263L12.5999 19.3388L12.6041 19.3513C12.6399 19.4367 12.7108 19.5571 12.7674 19.6317L12.7762 19.6429L12.7878 19.6438C13.037 19.6471 13.312 19.5729 13.5503 19.4413C13.5724 19.4696 13.7337 19.6788 13.7545 19.7079C13.5678 19.8996 13.422 20.1454 13.3603 20.39L13.357 20.4025L13.3653 20.4138C13.4224 20.4867 13.5208 20.5846 13.5945 20.6442L13.6049 20.6533L13.6174 20.6492C13.8591 20.5888 14.1049 20.445 14.3012 20.2563L14.5708 20.4629C14.4424 20.6988 14.367 20.9671 14.367 21.2121V21.2396L14.3795 21.2479C14.452 21.3038 14.5712 21.3717 14.6591 21.4104L14.6716 21.4154L14.6841 21.4092C14.902 21.2883 15.1024 21.0842 15.2433 20.85L15.5391 20.9696C15.5056 21.0982 15.4884 21.2305 15.4879 21.3633C15.4879 21.5008 15.5058 21.6354 15.5404 21.7563L15.5437 21.7688L15.557 21.7746C15.6395 21.8096 15.7716 21.8454 15.8695 21.8613L15.8837 21.8633L15.8929 21.8525C16.0729 21.6775 16.2137 21.4283 16.2841 21.1704C16.3216 21.1767 16.5858 21.2138 16.6225 21.2179C16.6279 21.4896 16.7008 21.7667 16.8283 21.9775L16.8337 21.9892L16.8483 21.9913C16.942 22.0029 17.0816 22.0029 17.1733 21.9913L17.1858 21.9892L17.1933 21.9775C17.3195 21.7667 17.3925 21.4892 17.3991 21.2163C17.4358 21.2108 17.6825 21.1767 17.72 21.1704C17.7925 21.4329 17.9341 21.6788 18.1141 21.8546L18.1237 21.8629L18.1362 21.8625C18.2341 21.8467 18.3675 21.8121 18.4504 21.7783L18.4621 21.7725L18.4666 21.76C18.5012 21.6383 18.5175 21.5046 18.5175 21.3671C18.5175 21.2346 18.4987 21.0988 18.4666 20.9683C18.5004 20.9558 18.7396 20.8517 18.7733 20.8371C18.915 21.0692 19.115 21.2729 19.3308 21.3954L19.3416 21.4004L19.3541 21.3963C19.4404 21.3604 19.5625 21.2904 19.6366 21.2321L19.6475 21.2254V21.1892C19.6475 20.9492 19.5725 20.6821 19.4462 20.4475L19.7004 20.2492C19.8979 20.4367 20.1437 20.5804 20.385 20.6429L20.3983 20.6467L20.4079 20.6379C20.4817 20.5796 20.5817 20.4804 20.6392 20.4088L20.6483 20.3963L20.6433 20.3854C20.5837 20.1446 20.44 19.8979 20.2517 19.7013C20.2737 19.6721 20.4329 19.4629 20.4546 19.4334C20.6937 19.5646 20.9692 19.6396 21.2162 19.635H21.2296L21.2379 19.6246C21.3042 19.5377 21.3589 19.4424 21.4004 19.3413L21.4062 19.3304L21.3996 19.3188C21.2817 19.1063 21.0796 18.9038 20.8479 18.7579L20.97 18.4609C21.2325 18.5284 21.5175 18.5304 21.7575 18.4609L21.7687 18.4567L21.7742 18.445C21.8096 18.3604 21.845 18.2296 21.86 18.1325L21.8617 18.1188L21.8517 18.1084C21.6779 17.9284 21.43 17.7888 21.1721 17.7146C21.1779 17.6784 21.2125 17.4313 21.2162 17.3938C21.4896 17.3896 21.7679 17.3167 21.98 17.1896L21.9908 17.1821L21.9917 17.1675C21.9979 17.1225 22 17.0634 22 17.0055C22 16.9471 21.9979 16.8896 21.9917 16.8442" fill="black"/>
<path d="M2 22V19.7778C2 18.599 2.46357 17.4686 3.28873 16.6351C4.11389 15.8016 5.23305 15.3333 6.4 15.3333H11M4.2 6.44444C4.2 7.62318 4.66357 8.75365 5.48873 9.58714C6.31389 10.4206 7.43305 10.8889 8.6 10.8889C9.76695 10.8889 10.8861 10.4206 11.7113 9.58714C12.5364 8.75365 13 7.62318 13 6.44444C13 5.2657 12.5364 4.13524 11.7113 3.30175C10.8861 2.46825 9.76695 2 8.6 2C7.43305 2 6.31389 2.46825 5.48873 3.30175C4.66357 4.13524 4.2 5.2657 4.2 6.44444Z" stroke="black" stroke-linecap="round" stroke-linejoin="round"/>
</svg>
