<svg width="24" height="24" viewBox="0 0 24 24" fill="none" xmlns="http://www.w3.org/2000/svg">
<path d="M2.66667 8.66667H21.3333M2.66667 15.3333H21.3333M2 12C2 13.3132 2.25866 14.6136 2.7612 15.8268C3.26375 17.0401 4.00035 18.1425 4.92893 19.0711C5.85752 19.9997 6.95991 20.7363 8.17317 21.2388C9.38642 21.7413 10.6868 22 12 22C13.3132 22 14.6136 21.7413 15.8268 21.2388C17.0401 20.7363 18.1425 19.9997 19.0711 19.0711C19.9997 18.1425 20.7363 17.0401 21.2388 15.8268C21.7413 14.6136 22 13.3132 22 12C22 9.34784 20.9464 6.8043 19.0711 4.92893C17.1957 3.05357 14.6522 2 12 2C9.34784 2 6.8043 3.05357 4.92893 4.92893C3.05357 6.8043 2 9.34784 2 12Z" stroke="black" stroke-linecap="round" stroke-linejoin="round"/>
<path d="M11.4443 2C9.57245 4.99957 8.58008 8.46429 8.58008 12C8.58008 15.5357 9.57245 19.0004 11.4443 22M12.5554 2C14.4272 4.99957 15.4196 8.46429 15.4196 12C15.4196 15.5357 14.4272 19.0004 12.5554 22" stroke="black" stroke-linecap="round" stroke-linejoin="round"/>
</svg>
