<svg width="24" height="24" viewBox="0 0 24 24" fill="none" xmlns="http://www.w3.org/2000/svg">
<path d="M9.14286 4C9.14286 4 9.14286 3 10.0952 3L13.9048 3C14.8571 3 14.8571 4 14.8571 4M9.14286 4H3.42857C2 4 2 5.5 2 5.5V18.5C2 18.5 2 20 3.42857 20H20.5714C22 20 22 18.5 22 18.5V5.5C22 5.5 22 4 20.5714 4H14.8571M9.14286 4C9.14286 4 9.14286 5 10.0952 5L13.9048 5C14.8571 5 14.8571 4 14.8571 4" stroke="black"/>
<path d="M13.9043 9H18.6662" stroke="black" stroke-linecap="round"/>
<path d="M13.9043 12H17.7138" stroke="black" stroke-linecap="round"/>
<path d="M13.9043 15H16.7614" stroke="black" stroke-linecap="round"/>
<path d="M5.2627 17.3695V16.1768C5.2627 15.5441 5.50946 14.9373 5.9487 14.4899C6.38794 14.0425 6.98368 13.7912 7.60486 13.7912H11.1181M5.84857 9.1287C5.84857 9.76138 6.09533 10.3682 6.53457 10.8155C6.97381 11.2629 7.56955 11.5142 8.19073 11.5142C8.81191 11.5142 9.40765 11.2629 9.84689 10.8155C10.2861 10.3682 10.5329 9.76138 10.5329 9.1287C10.5329 8.49601 10.2861 7.88924 9.84689 7.44187C9.40765 6.9945 8.81191 6.74316 8.19073 6.74316C7.56955 6.74316 6.97381 6.9945 6.53457 7.44187C6.09533 7.88924 5.84857 8.49601 5.84857 9.1287Z" stroke="black" stroke-linecap="round" stroke-linejoin="round"/>
</svg>
