<svg width="24" height="24" viewBox="0 0 24 24" fill="none" xmlns="http://www.w3.org/2000/svg">
<path d="M4 20L4 5.5L6 2L8 4.33333L10 2L12 4.33333L14 2L16 4.33333L18 2L20 4.33333V20L18 22L16 20L14 22L12 20L10 22L8 20L6 22L4 20Z" stroke="black"/>
<path d="M7 10.5L13 10.5" stroke="black" stroke-linecap="round"/>
<path d="M17 10.5H15" stroke="black" stroke-linecap="round"/>
<path d="M7 13.5L17 13.5" stroke="black" stroke-linecap="round"/>
<path d="M7 16.5H9.5" stroke="black" stroke-linecap="round"/>
<path d="M11 16.5H17" stroke="black" stroke-linecap="round"/>
<path d="M7 7.5L17 7.5" stroke="black" stroke-linecap="round"/>
</svg>
